<svg id="b10609f8-6377-4544-84ff-0abff0243e52" data-name="Calque 1" xmlns="http://www.w3.org/2000/svg" viewBox="0 0 14.04 20.49"><path d="M3.69,20.22A3.33,3.33,0,0,0,7,16.88V13.55H3.69a3.34,3.34,0,1,0,0,6.67Z" style="fill:#4bb27d"/><polygon points="3.69 19.88 3.68 19.86 3.65 19.91 3.69 19.88" style="fill:#373735"/><path d="M3.52,20v0l.11-.14C3.59,19.8,3.55,20.05,3.52,20Z" style="fill:#373735"/><path d="M3.49,20s-.06,0-.07.06S3.49,20.05,3.49,20Z" style="fill:#373735"/><path d="M.83,18.17h0Z" style="fill:#373735"/><path d="M.35,17.36h0c.11.17.06.38.16.55h0A2.57,2.57,0,0,0,1.2,19h0s.07,0,.08,0h0c0,.14.24.17.24.25s.06,0,.07,0a2.35,2.35,0,0,0,1,.48s0,0,0,.07A3.48,3.48,0,0,1,3.4,20s0-.05,0-.09-.18.07-.26,0l0,0c-.06,0,0,.09-.09,0s0,0,0,0a.9.9,0,0,0-.4,0c0-.09-.14,0-.16-.14s-.07,0-.1,0a3.77,3.77,0,0,1-1.17-.86C1,18.74,1,18.4.81,18.18h0a.59.59,0,0,1-.16-.29l-.09-.07a4.06,4.06,0,0,1,.14-2A6.14,6.14,0,0,1,2,14.17s0,0,0,0a2.31,2.31,0,0,1,.54-.28h0c.43-.31,1-.21,1.49-.34.61,0,1.31,0,2,0v0a3.94,3.94,0,0,1,.95.05,1.86,1.86,0,0,0,0,.41c-.08.53.18,1.09.08,1.62-.15.33.18.77,0,1.08-.23.63-.21,1.2-.41,1.85-.36.46-.67,1.06-1.27,1.2-.2.24-.58.13-.84.23l0,0c-.13-.08-.2.22-.3.06h0c-.07-.08-.1.23-.15.13v0c-.07,0,0-.05-.07-.06s0,.08,0,.06c0-.18-.17,0-.18-.16,0,0-.06-.07,0-.12s-.13,0-.12.08-.06.18,0,.24l0-.06a.31.31,0,0,1,0,.08c.1,0,.12.1.19.14h0c0-.08.11,0,.15,0l0,0c0,.07.09-.17.08,0l.63-.18c0-.06.16-.05.08-.13a.31.31,0,0,0,.32,0s0,0,0,0c.17.08.07-.18.25-.08,0-.11.2-.07.18-.23,0,0,0,0,0,.06a5.87,5.87,0,0,0,.52-.34c0-.17.29-.23.26-.42s.25-.17.27-.33v0a.66.66,0,0,0,.14-.47c.15,0,.16-.06.22-.12s.08-.33.06-.51c.07,0,0-.14.1-.13a3.33,3.33,0,0,1,.09-1.51h0a2.51,2.51,0,0,0-.24-.19h0c0-.08.07-.16,0-.25l0,0c0-.08.07-.17,0-.26h0l0-.06s.08,0,.07,0a7.08,7.08,0,0,0,0-.92l0-.47,0-.3v-.34H6.63l0,0-.15.06a0,0,0,0,1,0,0c-.18-.06-.37,0-.56,0,0,0,0-.05,0-.07s-.22-.11-.29.07c0,0,0-.05,0-.06a4.84,4.84,0,0,1-1.14,0c-.31.16-.66,0-1,.15v0a7.26,7.26,0,0,0-1.28.32,2,2,0,0,0-.42.26l0,0c-.16.29-.62.29-.71.67l0,0c0,.08-.15.13,0,.21H1c0,.28-.3.28-.31.59l0,0a.3.3,0,0,1-.07.19s0,0,0,0c-.21.17-.15.46-.19.69l-.06,0c.06.12,0,.32,0,.48h0l0,.07H.26A2.8,2.8,0,0,0,.35,17.36Z" style="fill:#373735"/><path d="M1.22,19.08h0S1.21,19.07,1.22,19.08Z" style="fill:#373735"/><path d="M4,20.49H4Z" style="fill:#373735"/><path d="M.35,10.22A3.33,3.33,0,0,1,3.69,6.88H7v6.67H3.69A3.33,3.33,0,0,1,.35,10.22Z" style="fill:#765ea4"/><polygon points="0.02 10.22 0 10.23 0.05 10.26 0.02 10.22" style="fill:#373735"/><path d="M.14,10.42h0L0,10.3C-.06,10.35.2,10.38.14,10.42Z" style="fill:#373735"/><path d="M.13,10.46s0,.06.06.07S.21,10.44.13,10.46Z" style="fill:#373735"/><path d="M2.48,13.53h0Z" style="fill:#373735"/><path d="M3.52,13.51l0-.06c-.19.1-.39,0-.59,0l0,0a4.55,4.55,0,0,1-1.35-.52h0s-.08,0-.09,0h0c0-.13-.27-.16-.28-.26a.05.05,0,0,0-.07,0,4.78,4.78,0,0,1-.79-1,0,0,0,0,1,0,0,1.51,1.51,0,0,1-.34-1s0,0-.08,0c0,.13.13.21.07.33h0c0,.08.09,0,.06.09s0,0,0,0,.07.34.22.46c-.07.07.05.17,0,.26s.06.07.12.06A3,3,0,0,0,1.64,13.1c.31,0,.5.36.84.42h0a1.36,1.36,0,0,1,.38.08l.12,0a8.84,8.84,0,0,0,2.23.17l.92.06h.76l.37,0,0-.5c0-.17,0-.22-.06-.34s0,0,0,0c0-.24,0-.45,0-.68h0c-.13-.55,0-1.15-.12-1.68,0-.65,0-1.39,0-2.07h0a3.73,3.73,0,0,1,0-.82,4.23,4.23,0,0,0,0-.9v0a2.9,2.9,0,0,0-.51,0l-.43,0a2.78,2.78,0,0,1-.86,0c-.35-.16-.82.17-1.15,0a1.9,1.9,0,0,0-1.93.41c-.61.21-.92.79-1.36,1.19C.82,8.78.46,9,.4,9.3h0c-.14.09.09.28-.08.32h0c-.1.05.19.17.08.19h0c0,.08,0,0-.08.06s.08,0,0,.06c-.18,0,0,.18-.17.17,0,0-.08.07-.12,0s0,.16.07.15.17.06.24,0H.4l.08,0c0-.09.11-.1.15-.16h0c-.08-.05,0-.11,0-.15h0c.08,0-.14-.12,0-.07a1.54,1.54,0,0,1,.11-.59S.82,9,.72,9A.34.34,0,0,0,1,8.85s0,0,0,0c.17,0-.06-.18.14-.18-.09-.08.13-.14,0-.27l.07,0a2.73,2.73,0,0,1,.38-.38c0-.17.27-.17.27-.35s.26-.06.34-.18v0a.94.94,0,0,0,.36-.29c.09.12.14.08.21.1s.27-.13.42-.21.12,0,.14,0a2.15,2.15,0,0,1,1.5,0h0C4.9,7.17,5,7.05,5,7s0,0,0,0,.18.08.27.06,0,0,0,0,.18.08.28,0v0l.06,0s0,.08,0,.07c.24,0,.47,0,.71,0l.36,0,.15,0a3.33,3.33,0,0,1,0,.76l0,0L6.88,8h0a3,3,0,0,0,0,.6s0,0-.07,0-.11.23.07.3H6.81a5.44,5.44,0,0,1,0,1.21c.17.33,0,.7.15,1H7A7.16,7.16,0,0,1,7,12.5c0,.19,0,.32,0,.52H7a.63.63,0,0,1,0,.47.59.59,0,0,0-.43,0l0,0c-.06.08-.21,0-.19.11l-.06,0c-.23.19-.42-.09-.71,0l0,0a.29.29,0,0,1-.22,0l0,0c-.24-.14-.5,0-.75,0l0-.06c-.12.07-.34,0-.5,0v0l-.08,0v-.06C3.92,13.45,3.72,13.51,3.52,13.51Z" style="fill:#373735"/><path d="M1.59,12.85Z" style="fill:#373735"/><path d="M.65,10l0,0S.64,10,.65,10Z" style="fill:#373735"/><path d="M.35,3.55A3.33,3.33,0,0,1,3.69.22H7V6.88H3.69A3.32,3.32,0,0,1,.35,3.55Z" style="fill:#e84f25"/><polygon points="0.02 3.55 0 3.56 0.05 3.6 0.02 3.55" style="fill:#373735"/><path d="M.14,3.75h0L0,3.63C-.06,3.69.2,3.72.14,3.75Z" style="fill:#373735"/><path d="M.13,3.79s0,.06.06.07S.21,3.78.13,3.79Z" style="fill:#373735"/><path d="M2.48,6.87h0Z" style="fill:#373735"/><path d="M3.52,6.84l0-.06c-.19.1-.39,0-.59,0l0,0a4.81,4.81,0,0,1-1.35-.51h0s-.08,0-.09,0,0,0,0,0S1.32,6,1.31,5.92s-.06,0-.07,0A4.78,4.78,0,0,1,.45,5s0,0,0,0a1.5,1.5,0,0,1-.34-1s0,0-.08,0c0,.13.13.2.07.32h0c0,.09.09,0,.06.09s0,0,0,0,.07.35.22.46c-.07.07.05.17,0,.26s.06.07.12.06A3.1,3.1,0,0,0,1.64,6.44c.31,0,.5.35.84.41v0a1.33,1.33,0,0,1,.38.07l.12,0a9.32,9.32,0,0,0,2.23.17l.92,0h.76l.37,0,0-.5c0-.16,0-.22-.06-.33s0,0,0,0c0-.23,0-.45,0-.67h0c-.13-.56,0-1.15-.12-1.69,0-.65,0-1.38,0-2.07h0a3.76,3.76,0,0,1,0-.82,4.23,4.23,0,0,0,0-.9v0H6.6L6.17.18a2.77,2.77,0,0,1-.86,0C5,.06,4.49.39,4.16.23a1.9,1.9,0,0,0-1.93.4c-.61.21-.92.79-1.36,1.19-.05.29-.41.48-.47.81h0C.3,2.72.53,2.92.36,3h0c-.1.05.19.17.08.19l0,0c0,.07,0,0-.08.05s.08,0,0,.06c-.18,0,0,.18-.17.18,0,0-.08.06-.12,0s0,.16.07.15.17.06.24,0l-.06,0,.08,0c0-.09.11-.1.15-.16h0c-.08-.05,0-.11,0-.14h0c.08,0-.14-.13,0-.08a1.54,1.54,0,0,1,.11-.59s.06-.15,0-.14A.35.35,0,0,0,1,2.18s0,0,0,0C1.13,2.17.9,2,1.1,2c-.09-.08.13-.14,0-.26a.09.09,0,0,1,.07,0,2.2,2.2,0,0,1,.38-.37c0-.18.27-.18.27-.36S2.13,1,2.21.88v0A.92.92,0,0,0,2.57.62c.09.12.14.07.21.09A1.5,1.5,0,0,1,3.2.51c0,.06.12,0,.14,0a2.2,2.2,0,0,1,1.5,0h0A2.54,2.54,0,0,0,5,.32s0,0,0,0,.18.08.27.06,0,0,0,0,.18.08.28,0v0l.06,0s0,.08,0,.07c.24,0,.47,0,.71,0l.36,0,.15,0a3.38,3.38,0,0,1,0,.76l0,0,.06.16,0,0a3,3,0,0,0,0,.6s0,0-.07,0-.11.23.07.3c0,0,0,0-.06,0a5.44,5.44,0,0,1,0,1.21c.17.33,0,.71.15,1.05H7A7.17,7.17,0,0,1,7,5.83C7,6,7,6.15,7,6.35H7a.63.63,0,0,1,0,.47.54.54,0,0,0-.43,0l0-.06c-.06.09-.21,0-.19.12l-.06,0c-.23.2-.42-.09-.71,0l0,0a.29.29,0,0,1-.22,0s0,0,0,0c-.24-.14-.5,0-.75,0l0-.06c-.12.08-.34,0-.5,0v0l-.08,0V6.79C3.92,6.78,3.72,6.85,3.52,6.84Z" style="fill:#373735"/><path d="M1.59,6.18h0S1.59,6.18,1.59,6.18Z" style="fill:#373735"/><path d="M.65,3.31l0,0S.64,3.31.65,3.31Z" style="fill:#373735"/><path d="M7,.22h3.33a3.33,3.33,0,1,1,0,6.66H7Z" style="fill:#ed7164"/><polygon points="6.68 0.22 6.67 0.23 6.72 0.26 6.68 0.22" style="fill:#373735"/><path d="M6.8.41h0L6.69.29C6.6.34,6.86.38,6.8.41Z" style="fill:#373735"/><path d="M6.79.44s0,.06,0,.07S6.86.43,6.79.44Z" style="fill:#373735"/><path d="M6.82,4.29v0A0,0,0,0,0,6.82,4.29Z" style="fill:#373735"/><path d="M7.06,5.29h.05c-.1-.19,0-.4,0-.59h0A12.12,12.12,0,0,0,7,3.25l0,0S7,3.22,7,3.2s0,0,0,0-.06-.31,0-.37a.06.06,0,0,0-.08,0,9.73,9.73,0,0,0-.11-1.2.06.06,0,0,1,.07,0,2.17,2.17,0,0,1-.07-1s0,0-.08,0,.1.2,0,.3h0c0,.07.09,0,0,.09s0,0,0,0,0,.32.08.46c-.09,0,0,.17-.08.23s0,.08.07.1c0,.55,0,1.11,0,1.67.16.26,0,.58,0,.89h0a.76.76,0,0,1,0,.37l.07.1a5.35,5.35,0,0,0-.08,1.06c0,.38,0,.62,0,1.25H7l1.35.06A4.08,4.08,0,0,0,9.52,7s0,0,0,0c.24,0,.46,0,.68,0v0a3.48,3.48,0,0,0,1.66-.47A3.07,3.07,0,0,0,13.3,5.14l0,0a3.7,3.7,0,0,0,.46-1.59,3.76,3.76,0,0,0-.52-1.66c0-.41-.6-.56-.73-.87A1.79,1.79,0,0,0,10.71.3C10.09.18,9.46.43,8.85.24c-.29.12-.6-.14-.92-.1v0c-.12-.12-.26.16-.33,0h0c-.06-.09-.14.21-.18.1v0c-.07,0,0,0-.06-.07s0,.08,0,0-.18,0-.19-.16c0,0-.06-.08,0-.12S7,0,7,.08,7,.26,7,.33V.26c0,.07,0,0,0,.08s.11.11.18.15h0c0-.08.11,0,.15,0l0,0c0,.07.11-.15.08,0a4.57,4.57,0,0,1,.65,0c0-.06.17,0,.12-.1a.35.35,0,0,0,.29.14s0,0,0,0,.14-.14.25,0c0-.13.21,0,.27-.11a.11.11,0,0,1,0,.08c.21,0,.43,0,.6,0s.35.05.48-.1a.65.65,0,0,0,.39,0v0A1,1,0,0,0,11,.48c0,.15.08.14.13.2s.29,0,.46,0c0,.07.13,0,.09.12a1.25,1.25,0,0,1,1.05.89H13s0,0,0,0,0,.19.08.25h0c.08,0,0,.18.11.23l0,0,.06,0s-.07,0-.08,0a3.23,3.23,0,0,1,.26,2.17l0,0a.81.81,0,0,1,0,.16l0,0c-.11.16-.11.37-.21.53,0,0,0,0-.05,0s-.21.12-.09.28c0,0-.05,0-.05,0a2,2,0,0,1-.77.82c-.17.33-.57.36-.84.59v0A2.47,2.47,0,0,1,10,6.83a4.43,4.43,0,0,0-.52,0v0c-.32.16-.68-.13-1,0l0-.06c0,.09-.21,0-.19.12l-.06,0c-.23.2-.42-.09-.7,0l0,0a.29.29,0,0,1-.22,0s0,0,0,0A.25.25,0,0,0,7.1,6.8,2.22,2.22,0,0,1,7,6.44l.06,0c-.07-.12,0-.34,0-.5h0l0-.08h.06C7.12,5.69,7.06,5.49,7.06,5.29Z" style="fill:#373735"/><path d="M7,3.21H7S7,3.22,7,3.21Z" style="fill:#373735"/><path d="M7.29.5h0S7.28.5,7.29.5Z" style="fill:#373735"/><circle cx="10.35" cy="10.22" r="3.33" style="fill:#44b6e9"/><polygon points="14.02 10.22 14.04 10.21 13.98 10.18 14.02 10.22" style="fill:#373735"/><path d="M13.9,10h0l.16.1C14.1,10.1,13.84,10.07,13.9,10Z" style="fill:#373735"/><path d="M13.91,10s0-.06-.06-.07S13.83,10,13.91,10Z" style="fill:#373735"/><path d="M12,7.11h0Z" style="fill:#373735"/><path d="M11.11,7l0,0c.18-.06.33.1.5.12h0a5.12,5.12,0,0,1,1.13.6h0s.07,0,.09,0a0,0,0,0,1,0,0c0,.13.23.16.22.25a.05.05,0,0,0,.07,0,6.09,6.09,0,0,1,.65.9.09.09,0,0,1-.06,0,1.22,1.22,0,0,1,.28.92s0,0,.08,0-.12-.18-.06-.28h0c0-.07-.1,0-.06-.07s0,0,0,0-.06-.31-.18-.41c.06-.06-.06-.15,0-.23s-.05-.07-.11-.06a3.07,3.07,0,0,0-.92-1.25c-.28,0-.41-.35-.69-.46h0A.76.76,0,0,1,11.71,7L11.6,7a3,3,0,0,0-2-.26A2.38,2.38,0,0,0,7.75,7.92s0,0,0,0a3.47,3.47,0,0,0-.37.51h0A3.18,3.18,0,0,0,7,9.87a2.93,2.93,0,0,0,.34,1.78l0,0a4,4,0,0,0,.85,1.18c.37.39,1,.41,1.41.61.29.23.72-.06,1,.07a1.57,1.57,0,0,0,1.63-.61c.51-.25.7-.79,1.09-1.16,0-.27.35-.43.39-.73h0c.14-.08-.12-.25.06-.29v0c.1,0-.19-.16-.08-.17l0,0c0-.06.05,0,.07-.05s-.08,0-.05,0c.18,0,0-.16.17-.15,0,0,.08-.06.12,0s0-.14-.07-.13-.17-.05-.24,0h.06l-.08,0c0,.08-.11.09-.15.14h0c.08.05,0,.1,0,.13h0c-.08,0,.14.11,0,.06a1.67,1.67,0,0,1-.08.53s-.05.13,0,.12a.25.25,0,0,0-.2.17h0c-.17,0,.07.16-.12.16.11.07-.11.12,0,.24a.08.08,0,0,1-.07,0,2.18,2.18,0,0,1-.32.35c0,.16-.22.18-.19.35a.45.45,0,0,0-.29.19v0c-.09.09-.23.18-.26.31-.11-.1-.14-.06-.22-.07s-.21.15-.32.25c0-.06-.1.06-.13,0A1.12,1.12,0,0,1,10,13.2h0c-.06,0-.13.15-.2.21s0,0,0,0-.13-.1-.21-.1l0,0c-.08,0-.12-.11-.22-.06v0l-.06,0s0-.08.05-.06a3.14,3.14,0,0,1-1.62-1h0L7.7,12h0c0-.17-.21-.26-.27-.42,0,0,.06,0,.06,0s0-.21-.16-.2c0,0,0,0,.06,0a1.7,1.7,0,0,1-.22-1c-.18-.28,0-.59-.06-.9h0a2.12,2.12,0,0,1,.47-1.1c.11-.12.14-.24.26-.36l0,0c.09-.33.52-.3.66-.59l0,.05c0-.09.16-.06.07-.18h.07c.1-.26.37-.08.56-.27v0A.22.22,0,0,1,9.49,7s0,0,0,0c.23.08.42-.1.64-.11l0,.06c.1-.08.29,0,.43,0V7l.07,0V7A4.52,4.52,0,0,1,11.11,7Z" style="fill:#373735"/><path d="M12.72,7.83h0S12.72,7.82,12.72,7.83Z" style="fill:#373735"/><path d="M13.39,10.43l0,0S13.4,10.43,13.39,10.43Z" style="fill:#373735"/></svg>