<svg id="a5746ed7-97fe-4638-bc7b-dc2147f03029" data-name="Calque 1" xmlns="http://www.w3.org/2000/svg" viewBox="0 0 28.46 28.51"><g id="bed6d098-3c97-44c9-95eb-282c9ecf5a22" data-name="git"><polygon points="10.76 28.19 10.8 28.23 10.93 28.15 10.76 28.19" style="fill:#1d1d1d"/><path d="M11.53,28.1s0-.06,0-.08l-.48.21C11.19,28.43,11.43,28,11.53,28.1Z" style="fill:#1d1d1d"/><path d="M11.65,28.15c.15.1.24,0,.28-.07S11.64,28,11.65,28.15Z" style="fill:#1d1d1d"/><path d="M24.81,23.55a.09.09,0,0,0,0,.05S24.81,23.57,24.81,23.55Z" style="fill:#1d1d1d"/><path d="M26.5,20.21l-.08-.08a3.15,3.15,0,0,1-.43,1,6.11,6.11,0,0,0-.61.92V22a16.89,16.89,0,0,1-3.71,3.84s0-.06,0-.09a.76.76,0,0,1-.18.25s0-.06,0-.09c-.42,0-.94.66-1.22.65-.09.07-.1.15,0,.18A17.86,17.86,0,0,1,16,28.2a.1.1,0,0,1-.08-.13,7.3,7.3,0,0,1-3.91.09c-.06.07.12.11,0,.17.41.17.8-.12,1.17.07l-.06.07c.28.07.07-.19.35-.07.12.08,0,.1,0,.11a5,5,0,0,0,1.78-.18c.16.15.64-.07.88.06.14-.08.3-.08.34-.19a13.6,13.6,0,0,0,5.79-2.43c.64-.79,1.75-1.3,2.49-2.24,0,0,0,0,0,0a5.21,5.21,0,0,1,.82-1.13l.1-.4a13.07,13.07,0,0,0,2.71-7.74,13.91,13.91,0,0,0-.52-4.54,9.42,9.42,0,0,0-2.2-3.91s0,0,.09,0c-.27-.36-.53-.69-.79-1a4.64,4.64,0,0,0-.86-.91l0,0C22.56,2.62,20.77,1.16,18.78.77A13.13,13.13,0,0,0,11.24.38V.32A14.72,14.72,0,0,0,5.72,2.7c-1.81,1.16-2.87,3.21-4,5-.89,1-.83,2.87-1.3,4a9,9,0,0,0,.79,7.24,9.71,9.71,0,0,0,1.63,3c.67.92,1.44,1.71,2.15,2.58a6.49,6.49,0,0,1,1.28,1c.21.19.43.4.66.59a5.24,5.24,0,0,0,.76.45v-.09c.27.43,1,.11,1.09.52H8.77c.15.25.64-.2.69.05l.06-.07c.26.07,0,.11.18.21s.08-.15.22-.05c-.07.35.65.11.56.5-.14,0,.19.22-.16.21.08.06.54.18.54,0s.28-.28.05-.49l-.08.11c-.06-.15-.05-.08-.06-.19-.34-.11-.33-.31-.54-.46a0,0,0,0,1,0,0c-.21.1-.41-.05-.53-.12l0-.09c0-.17-.47.14-.28-.07a9.68,9.68,0,0,1-1.06-.38l-1-.55c-.15,0-.5-.34-.46-.08-.05-.3-.51-.66-.69-.79a0,0,0,0,1,.07,0c-.15-.5-.56-.11-.64-.63-.22.16-.48-.53-.83-.48,0-.08,0-.12.07-.14a12.8,12.8,0,0,1-1.29-1.64c-.47-.3-.62-1.06-1.07-1.3a6.09,6.09,0,0,0-.24-.65,2.39,2.39,0,0,0-.34-.7l0,0a8.36,8.36,0,0,0-.78-1.53c.21-.24.12-.46.15-.73A3.62,3.62,0,0,1,1,16.2a9,9,0,0,0-.21-.93c.12-.1-.11-.48.09-.52a7.27,7.27,0,0,1,.83-5.3v0c0-.24-.13-.57-.17-.85,0,0,.05,0,0,0,.09-.33.39-.53.51-.82,0,0,0,0,0,.07.07-.3.43-.48.47-.86h.06l.06-.23s.13.1,0,.19A17.27,17.27,0,0,1,5.38,3.79,10.85,10.85,0,0,1,9,1.46l-.08.1.47-.32s0,.05,0,.08C10,1.2,10.68.78,11.38.69c0,0-.09.11,0,.12.47-.29.84.08,1-.31,0,0,.05.1,0,.13a9.42,9.42,0,0,1,4.29.09,4.79,4.79,0,0,1,1.85.3c.6.25,1.22.45,1.83.65l0,.06a10.63,10.63,0,0,1,4,3c.42.56.81.85,1.2,1.45l-.06.06a3.87,3.87,0,0,1,1,1.58,7.64,7.64,0,0,0,.76,1.73l-.13,0c.22.13.17.73.43.57l0,.24a1.94,1.94,0,0,1,.35,1.17A4,4,0,0,0,28,12.87L28,12.81a1.51,1.51,0,0,1,.07.8s0,0-.05-.08c-.24.86,0,1.82-.16,2.72l-.11-.12a6.2,6.2,0,0,1-.33,1.79l-.05-.05v.31l-.12,0c-.1.36-.22.7-.33,1A6,6,0,0,1,26.5,20.21Z" style="fill:#1d1d1d"/><path d="M21.52,25.87h0S21.54,25.85,21.52,25.87Z" style="fill:#1d1d1d"/><path d="M10.15,26.72l.08.05S10.17,26.74,10.15,26.72Z" style="fill:#1d1d1d"/><path d="M10.75,20.1c0,.09-.1.15-.22.15s-.23-.05-.23-.15.1-.14.22-.14S10.75,20,10.75,20.1Zm-1.29-.18c0,.08.06.18.18.2A.2.2,0,0,0,9.9,20c0-.08-.06-.18-.18-.22a.22.22,0,0,0-.26.1Zm1.83-.07c-.12,0-.2.11-.19.2s.12.14.24.11.21-.11.19-.19S11.41,19.84,11.29,19.85ZM14,4A9.91,9.91,0,0,0,3.89,14.09a10.35,10.35,0,0,0,7,9.89c.53.1.71-.23.71-.5s0-1.67,0-2.54c0,0-2.9.62-3.5-1.23,0,0-.47-1.2-1.15-1.51,0,0-1-.65.06-.64a2.18,2.18,0,0,1,1.6,1.07,2.18,2.18,0,0,0,3,.86,2.3,2.3,0,0,1,.67-1.39c-2.32-.26-4.65-.59-4.65-4.57a3.15,3.15,0,0,1,1-2.44,3.86,3.86,0,0,1,.11-2.8C9.59,8,11.58,9.4,11.58,9.4a9.82,9.82,0,0,1,2.6-.35,9.69,9.69,0,0,1,2.59.35s2-1.39,2.86-1.11a3.89,3.89,0,0,1,.1,2.8,3.21,3.21,0,0,1,1.07,2.44c0,4-2.43,4.31-4.75,4.57A2.46,2.46,0,0,1,16.76,20c0,1.39,0,3.12,0,3.46s.19.59.72.5a10.28,10.28,0,0,0,6.94-9.89A10.14,10.14,0,0,0,14,4ZM7.91,18.26c-.06,0,0,.14,0,.22a.15.15,0,0,0,.21,0s0-.14,0-.21S8,18.21,7.91,18.26Zm-.45-.33c0,.05,0,.12.09.16a.12.12,0,0,0,.18,0s0-.12-.09-.16S7.49,17.89,7.46,17.93ZM8.8,19.4c-.07.06,0,.18,0,.26s.22.11.27,0,0-.18,0-.26S8.85,19.34,8.8,19.4Zm-.47-.61c-.07,0-.07.15,0,.25s.18.13.23.09a.17.17,0,0,0,0-.25c-.06-.1-.17-.14-.23-.09Z" style="fill:#7062a7"/><path d="M10.75,20.1c0,.09-.1.15-.22.15s-.23-.05-.23-.15.1-.14.22-.14S10.75,20,10.75,20.1Zm-1.29-.18c0,.08.06.18.18.2A.2.2,0,0,0,9.9,20c0-.08-.06-.18-.18-.22a.22.22,0,0,0-.26.1Zm1.83-.07c-.12,0-.2.11-.19.2s.12.14.24.11.21-.11.19-.19S11.41,19.84,11.29,19.85ZM14,4A9.91,9.91,0,0,0,3.89,14.09a10.35,10.35,0,0,0,7,9.89c.53.1.71-.23.71-.5s0-1.67,0-2.54c0,0-2.9.62-3.5-1.23,0,0-.47-1.2-1.15-1.51,0,0-1-.65.06-.64a2.18,2.18,0,0,1,1.6,1.07,2.18,2.18,0,0,0,3,.86,2.3,2.3,0,0,1,.67-1.39c-2.32-.26-4.65-.59-4.65-4.57a3.15,3.15,0,0,1,1-2.44,3.86,3.86,0,0,1,.11-2.8C9.59,8,11.58,9.4,11.58,9.4a9.82,9.82,0,0,1,2.6-.35,9.69,9.69,0,0,1,2.59.35s2-1.39,2.86-1.11a3.89,3.89,0,0,1,.1,2.8,3.21,3.21,0,0,1,1.07,2.44c0,4-2.43,4.31-4.75,4.57A2.46,2.46,0,0,1,16.76,20c0,1.39,0,3.12,0,3.46s.19.59.72.5a10.28,10.28,0,0,0,6.94-9.89A10.14,10.14,0,0,0,14,4ZM7.91,18.26c-.06,0,0,.14,0,.22a.15.15,0,0,0,.21,0s0-.14,0-.21S8,18.21,7.91,18.26Zm-.45-.33c0,.05,0,.12.09.16a.12.12,0,0,0,.18,0s0-.12-.09-.16S7.49,17.89,7.46,17.93ZM8.8,19.4c-.07.06,0,.18,0,.26s.22.11.27,0,0-.18,0-.26S8.85,19.34,8.8,19.4Zm-.47-.61c-.07,0-.07.15,0,.25s.18.13.23.09a.17.17,0,0,0,0-.25c-.06-.1-.17-.14-.23-.09Z" style="fill:none"/><polygon points="8.68 19.36 8.4 18.88 8.4 18.88 8.68 19.36" style="fill:#373735"/><polygon points="8.39 18.88 8.4 18.88 8.4 18.88 8.39 18.88" style="fill:#373735"/><path d="M8.4,18.88h0Z" style="fill:#373735"/><path d="M8.36,19Z" style="fill:#373735"/><path d="M8.59,18.79l.09-.07c-.16.12,0,0-.09,0l0,0c0-.06-.14.07-.18.14l0-.05,0,.09,0-.06c.07-.17,0,.11,0,0l0,.12a.11.11,0,0,0,0-.05h0v0h0a.19.19,0,0,1,0,.07l0,0h0l0,0L8.34,19h0l-.05,0h0a.15.15,0,0,1,.1,0h0a.11.11,0,0,1,.06,0h0l0,0s0,0,0,.06v-.07c-.05.13.05-.19,0-.1.09-.11-.24.27-.14.1s-.3.19-.06,0c.4-.28.15-.07-.15-.06.07,0,0,0,0-.07s-.07-.07.11-.06c-.21-.1.3.07.15,0h0l0,0c-.05-.05-.08-.08,0,0h0l-.07-.07c-.07-.07-.13-.14-.06-.07l-.06-.06s.07.07.1.09l-.07-.08.1.11s0,0,0,0l.05.08h0l0,.08,0-.05-.07-.11-.12-.19.07.11-.09-.13s-.14-.16-.21-.21H8c.09.13,0,.07,0,.06l-.06-.05c-.11-.11.19.24,0,0a.3.3,0,0,1-.05.18c.09.05,0,0,.16.1-.21-.08-.28-.06-.28,0h0c-.28-.06.25.1-.1,0,.24.06-.09,0,.2.1l-.15,0s-.1.09-.11.13c.21,0-.1.09.2.07-.06,0-.17.08,0,.08h0s0,.05.24,0a1.13,1.13,0,0,0-.3.13c.13,0,.11,0,.23,0-.12.06,0,0-.12.08.37-.11.26,0,.09.2h0l.38-.29,0,0s-.1.12-.07.1l-.05,0c.07-.05-.09.13,0,0l0,0,.05-.05-.1.1c.06.13.32-.1.38,0l0,.06.05-.1,0,.06c0,.11.07-.06.09,0s0,.09,0,.13c0-.17,0,.23.06-.13v.12c.09-.12.14-.12.29-.14-.18-.28.06-.12-.13-.29l.06,0c-.19-.13,0-.06,0-.13s-.05,0-.05,0h.08c-.31,0,.27-.1-.07-.06l.1,0c-.16,0,.06,0-.22,0l.08,0c-.37.12.16-.08-.08,0l.06,0s-.09,0,0,0l0,0c.24-.14,0,0,0,0l.11-.07c-.13.07,0,0-.08,0l0,0-.08,0,.1-.07S8.61,18.79,8.59,18.79Z" style="fill:#373735"/><path d="M8.43,18.84h0Z" style="fill:#373735"/><path d="M8,18.36l0,0Z" style="fill:#373735"/><polygon points="8.87 19.48 8.87 19.48 8.88 19.48 8.87 19.48" style="fill:#373735"/><polygon points="8.88 19.47 8.88 19.47 8.88 19.47 8.88 19.47" style="fill:#373735"/><path d="M8.88,19.47Z" style="fill:#373735"/><path d="M8.88,19.61Z" style="fill:#373735"/><path d="M9.07,19.35l.07-.09c-.13.15,0,0-.08,0l0,0c0-.06-.13.1-.16.18v-.06l0,.1v-.06c0-.18,0,.11,0,0l0,.15a.06.06,0,0,0,0-.06h0v0h0a.11.11,0,0,1,0,.08s0,0,0,0h0s0,0,0-.06c-.08.13-.05.07-.06.1s0,.05,0,0H9l.1,0H9a.12.12,0,0,1,0,.09v-.07c0,.11,0-.07,0-.11H9c.08-.12-.19.31-.12.13s-.11.09-.12.05h0s0,0,.05-.08c.31-.37.12-.1-.18,0,.07-.06,0,0-.05-.06s-.08-.07.1-.09c-.23-.06.31,0,.16,0h0l0,0c-.06,0-.1-.06,0,0h0l-.08-.06c-.08-.06-.15-.12-.06-.06l-.07-.05s.08.06.11.08-.12-.11-.08-.08l.11.1s0,0,0,0l.07.06h0l.07.07,0,0-.08-.09-.16-.16.09.09-.12-.11s-.16-.14-.23-.18h0c.12.11,0,.05,0,.05l-.06,0c-.13-.09.22.21,0,0a.41.41,0,0,1,0,.2c.09,0,0,0,.17.08-.22-.05-.29,0-.28,0h0c-.3,0,.26.05-.1.06.25,0-.08.06.22.06H8.17c0,.05-.09.11-.09.16.22,0-.07.11.22,0-.05,0-.16.12,0,.09l0,0s.06,0,.23,0A1.4,1.4,0,0,0,8.2,20c.12,0,.11,0,.22,0-.1.08.06,0-.09.1.23-.12.26-.12.23,0h0l0,0-.1.2h0l.33-.35,0,0s-.08.13-.05.1l0,.05c.06-.06-.08.14,0,0l0,0L8.67,20l-.08.12c.05.09.22,0,.31-.08a.11.11,0,0,1,.08,0v.06L9,20v.06c0,.11.06-.07.09-.05a.62.62,0,0,0,0,.13c0-.18.1.21,0-.14l0,.12A.22.22,0,0,1,9.37,20a.92.92,0,0,1-.07-.13l0,0c0-.07.11-.07-.06-.17l.06,0c-.21-.09,0-.07,0-.13s0,0-.06,0l.08,0c-.3.07.24-.15-.08-.05l.1,0c-.16.07,0,0-.22.1l.08-.05c-.34.19.14-.11-.08,0l.06,0c-.05,0-.09.05,0,0l0,0c.21-.18,0,0,0,0l.1-.09c-.12.1,0,0-.08,0l0-.05-.06.06.08-.09S9.09,19.34,9.07,19.35Z" style="fill:#373735"/><path d="M8.92,19.43Z" style="fill:#373735"/><path d="M8.37,19l0,0Z" style="fill:#373735"/><polygon points="7.53 17.97 7.53 17.97 7.53 17.97 7.53 17.97" style="fill:#373735"/><polygon points="7.53 17.98 7.53 17.98 7.53 17.97 7.53 17.98" style="fill:#373735"/><path d="M7.53,18Z" style="fill:#373735"/><path d="M7.56,18.15h0Z" style="fill:#373735"/><path d="M7.64,17.82l0-.1c0,.19,0,0,0,.07v0c0-.05-.06.14-.07.22v0c0-.18,0,.12,0,0l0,.12s0,0,0-.05h0a0,0,0,0,0,0,0h0a.2.2,0,0,1,0,.09c0,.08,0,0,0,.06h0v0s0-.06,0-.09a.78.78,0,0,1,0,.15l0-.05,0-.05a.43.43,0,0,1,.1-.09h0s0,0,0,0,0,0,0,.06l0,0c0,.06,0,0,0,0h0s0-.07,0,.05-.06.15,0,.06,0,0-.06.06h0s0,.05,0,0c.23-.43.11-.13-.14,0,.05-.08,0,0-.06,0s-.09,0,.07-.1c-.11,0,0,0,0,0h0c-.08,0-.09,0,0,0h0l-.07,0-.09,0-.08,0s.09,0,.13,0l-.11-.05.14.05s0,0,0,0l.07,0h0l.1.06-.06,0-.1-.07-.2-.11.12.07-.15-.08S7,17.73,7,17.72H7c.14.08,0,.06,0,.06l-.08,0c-.15,0,.29.11,0,0A.32.32,0,0,1,7,18c.1,0,0,0,.18,0-.22,0-.27.08-.26.09s0,0,0,0c-.28.1.26,0-.07.09.24-.07-.06.08.22,0l-.14.05c0,.05-.05.13,0,.17.19-.09,0,.12.21,0,0,.05-.12.15,0,.09l0,0s.06,0,.2-.12a1.13,1.13,0,0,0-.2.26c.1-.09.09,0,.18-.13-.07.11,0,0-.07.12.22-.22.21-.19.17,0h0l-.05,0,0,.14h0c.07-.09.18-.29.25-.41l0,0s0,.15,0,.12l0,.06c0-.08,0,.15,0,0v0l0-.06c0,.06,0,.15,0,.13s.26-.22.34-.19v0c.06.09,0-.09.06-.07l0,.11c-.06-.16.15.18,0-.14l.07.11c0-.14,0-.16.12-.19-.26-.19,0-.12-.22-.22h.06c-.22,0,0-.07,0-.11s-.06,0-.06,0l.07-.05c-.26.17.19-.21-.09,0l.08-.07c-.12.12,0-.05-.17.16l.06-.07c-.26.28.1-.15-.07,0l0-.06c0,.05-.06.08,0,0l0,0c.15-.24,0,0,0,0l.07-.11c-.08.12,0,0-.06.05l0-.05,0,.07,0-.11C7.65,17.7,7.66,17.82,7.64,17.82Z" style="fill:#373735"/><path d="M7.55,18h0Z" style="fill:#373735"/><path d="M6.93,17.72h0Z" style="fill:#373735"/><polygon points="7.97 18.34 7.97 18.34 7.97 18.34 7.97 18.34" style="fill:#373735"/><polygon points="7.97 18.33 7.97 18.33 7.97 18.34 7.97 18.33" style="fill:#373735"/><path d="M8,18.33Z" style="fill:#373735"/><path d="M8,18.47Z" style="fill:#373735"/><path d="M8.14,18.22l.07-.08c-.13.15,0,0-.08,0l0,0c0-.06-.12.09-.15.18v-.06l0,.1,0-.06c0-.18,0,.11,0,0l0,.12a.18.18,0,0,0,0-.06H8a.28.28,0,0,1,0,.08l0,0h0l0-.05,0,.07h0s0,0,0,0l.11,0h.06s0,0,0,.08v-.07c0,.07,0,0,0,0v-.06c.07-.12-.19.31-.12.13s-.26.24,0,0c.36-.32.14-.08-.16,0,.08-.05,0,0,0-.05s-.08-.07.1-.08c-.11,0,0,0,0,0l.09,0H8l0,0,0,0H8l-.07,0c-.07-.06-.15-.13-.06-.06l-.07-.06s.08.07.11.09l-.08-.08.11.1h0l.06.06H8l.08.08,0-.05-.09-.09-.15-.17.09.1-.11-.12a2.35,2.35,0,0,1-.22-.19h0c.1.12,0,.06,0,.06l-.06-.05c-.12-.09.22.22,0,.05a.26.26,0,0,1,0,.18c.09,0,0,0,.17.09-.21-.06-.28,0-.27,0h0c-.29,0,.26.07-.09.05.24,0-.09,0,.21.07H7.28c0,.05-.09.1-.1.14.22,0-.08.1.22,0-.06,0-.17.11-.05.09h0s0,0,.22,0a1.13,1.13,0,0,0-.27.16c.12,0,.1,0,.22,0-.11.07,0,0-.11.09.35-.16.24-.07.13.2h0a3.81,3.81,0,0,0,.32-.35l0,0s-.08.13,0,.11l0,.05c.06-.07-.08.13,0,0l0,0,0-.05L7.66,19c.06.11.29-.14.36-.09v.06l0-.11v.07c0,.11.06-.07.09,0a.62.62,0,0,0,0,.13c0-.18.09.22,0-.14l0,.12c.05-.13.1-.15.2-.16l-.06-.1h0l0,0c-.06-.12.11,0-.07-.19l.06,0c-.19-.12,0-.07,0-.13s-.06,0-.06,0l.08,0c-.3.06.25-.14-.08,0l.1-.05-.21.09.07,0c-.34.17.15-.1-.07,0l.06,0s-.09.05,0,0l0,0c.22-.17,0,0,0,0l.1-.08c-.12.09,0,0-.08,0l0,0-.06.06.08-.09S8.16,18.22,8.14,18.22Z" style="fill:#373735"/><path d="M8,18.31Z" style="fill:#373735"/><path d="M7.49,17.88h0S7.5,17.88,7.49,17.88Z" style="fill:#373735"/><polygon points="14.01 4.67 14.06 4.71 14.2 4.61 14.01 4.67" style="fill:#373735"/><path d="M14.94,4.48s0-.05,0-.07l-.56.27C14.57,4.86,14.78,4.36,14.94,4.48Z" style="fill:#373735"/><path d="M15.09,4.53a.29.29,0,0,0,.36-.07C15.37,4.56,15.06,4.37,15.09,4.53Z" style="fill:#373735"/><path d="M23.15,18.21a.21.21,0,0,0,0-.06A.14.14,0,0,0,23.15,18.21Z" style="fill:#373735"/><path d="M20.53,22.4l0,.12a16.39,16.39,0,0,0,2-2.26v.08a9.94,9.94,0,0,0,1.69-7s.05.05.06.08a1.46,1.46,0,0,1-.12-.37s.06,0,.07.07a2.49,2.49,0,0,0-.12-1,2.36,2.36,0,0,1-.22-.84c-.06-.13-.14-.17-.18-.08A10.16,10.16,0,0,0,22.4,8.53a9,9,0,0,0-2.13-2c-.06-.08-.05-.13,0-.16a17,17,0,0,0-4.69-1.82c-.07.07.16.11,0,.17.51.15,1,0,1.44.26l-.08,0c.32.16.13-.16.44.06.12.1-.06.07,0,.1.73.2,1.38.62,2.08.82.06.22.66.47.79.75.18.08.32.22.45.19A9.74,9.74,0,0,1,24,14c.33,1.3-.29,2.81-.8,4.21,0,0,0,0,0,0a4.76,4.76,0,0,1-.79,1.62,4.09,4.09,0,0,1-.18.49,11.15,11.15,0,0,1-4.33,3.14l-.3.11a.35.35,0,0,1-.17,0,.25.25,0,0,1-.28-.17.55.55,0,0,1,0-.18v-1l0-1.41a10.31,10.31,0,0,0,0-1.46A2.29,2.29,0,0,0,17,19a2.79,2.79,0,0,0-.08-.29,1.61,1.61,0,0,0-.12-.23c-.13-.09.06-.06.13-.07l.29,0a6.73,6.73,0,0,0,1.37-.3,4,4,0,0,0,1.3-.71,3.78,3.78,0,0,0,.91-1.2,5.91,5.91,0,0,0,.45-2.76A3.18,3.18,0,0,0,20.88,12a2.89,2.89,0,0,0-.43-.59,2.76,2.76,0,0,0-.23-.24,1.66,1.66,0,0,1-.14-.13l0-.17s0,0,0,.06l.07-.42a3.59,3.59,0,0,0,0-.47,5.49,5.49,0,0,0-.05-.91c0-.16-.05-.27-.1-.47a3.11,3.11,0,0,0-.22-.56c-.25-.24-.78-.15-1.1-.05V8a6.41,6.41,0,0,0-1.11.56l-.52.31L16.89,9l-.16.11L16.17,9c-.22,0-.44-.08-.67-.11a8.8,8.8,0,0,0-1.36-.1,8.55,8.55,0,0,0-1.34.11c-.21,0-.43.08-.64.13l-.32.08-.23.08c-.17-.09-.47-.25-.72-.36a6.82,6.82,0,0,0-1.12-.54,2.46,2.46,0,0,0-.66-.16c-.23,0-.53,0-.55.27A4.13,4.13,0,0,0,8.3,9.77a3.5,3.5,0,0,0,.2,1.29,4.43,4.43,0,0,0-.7,1.06,3.27,3.27,0,0,0-.23,1.34,5.72,5.72,0,0,0,.55,2.62l-.06,0A3.48,3.48,0,0,0,10,17.73a7.75,7.75,0,0,0,1.23.34l.5.1c.12,0,.44,0,.19.17a2,2,0,0,0-.29.44,2.68,2.68,0,0,0-.11.31c0,.09,0,.16-.06.24a.93.93,0,0,1-.29.12,2.71,2.71,0,0,1-.41.09,2.26,2.26,0,0,1-.82,0,2,2,0,0,1-.8-.53c-.23-.22-.35-.56-.65-.86a2.21,2.21,0,0,0-1-.6,1.46,1.46,0,0,0-.59-.08,1,1,0,0,0-.31.08.24.24,0,0,0-.13.17.29.29,0,0,0,0,.19c.25.35.64.41.88.68a4.24,4.24,0,0,1,.62.9,2.65,2.65,0,0,0,.55.92,2.2,2.2,0,0,0,.92.54,3.14,3.14,0,0,0,2,.09,4.53,4.53,0,0,1,.11.86l.08.95,0,.47a.88.88,0,0,1-.08.49.59.59,0,0,1-.83.18,15.15,15.15,0,0,1-4-2.94,11.49,11.49,0,0,1-2.68-4.25A13.85,13.85,0,0,1,3.92,12a7.87,7.87,0,0,1,2-4.2,4.74,4.74,0,0,1,1.61-1.6c.69-.4,1.39-.76,2.11-1.1l-.09,0c.59,0,1.09-.79,1.54-.56l-.06,0c.34.1.59-.58.83-.42l0-.09c.37-.08.06.09.35.08.11,0,0-.16.25-.15.05.18.27.12.49.08s.45,0,.47.16c-.2,0,.32.14-.12.25.13,0,.72,0,.67-.18s.3-.35-.08-.48l-.08.14c-.13-.13-.1-.07-.15-.16-.5,0-.58-.2-1-.23,0,0,0,0,0,0a1.29,1.29,0,0,1-.79.16l-.09-.06c-.16-.13-.51.43-.42.13A12.4,12.4,0,0,0,8.3,5.14c-.1.15-.74.5-.42.51a1.71,1.71,0,0,0-.72.26,4.6,4.6,0,0,0-.6.48s0,0,0-.08c-.67.24-.33.72-1,.93.15.23-.73.82-.63,1.29-.09,0-.14,0-.17,0a10.57,10.57,0,0,0-1.29,2.91c0,.79-.4,1.86-.12,2.54a5,5,0,0,0,.12,2.2l0-.07a5.61,5.61,0,0,0,.94,2.36c-.15.34,0,.67.15,1a12.42,12.42,0,0,0,1.71,2c0,.2.54.49.44.65a17.72,17.72,0,0,0,3.48,2l.48.2a.91.91,0,0,0,.36.08,1.19,1.19,0,0,0,.41,0,1,1,0,0,0,.62-.68,1.66,1.66,0,0,0,0-.22v-.12l0-.25.07-1,0-.24c0-.08,0-.15,0-.32l0-.94,0,.06a2.1,2.1,0,0,0-.12-.42l-1.34.57s0,0,0,0a4.18,4.18,0,0,1-1.24-.21s0,0,.09-.05c-.41,0-.64-.36-1-.52l0-.05a1.29,1.29,0,0,1-.18-.16c.05,0,.14-.05.19.05a.46.46,0,0,1-.09-.17l-.1-.24a4.18,4.18,0,0,0-.28-.56,3,3,0,0,0-.89-1l-.16-.09-.06,0a.81.81,0,0,1-.13-.11s0-.06-.16.07a.37.37,0,0,1-.25.07.51.51,0,0,1,.14.21c.07.23,0,.15.07.16a1.32,1.32,0,0,1,.74.19,1.78,1.78,0,0,1,.64.64,2.82,2.82,0,0,0,1,.94,2.33,2.33,0,0,0,1.33.28,3.29,3.29,0,0,0,.64-.11,4.2,4.2,0,0,0,.76-.31c0-.17.05-.34.08-.5a1.76,1.76,0,0,1,.11-.33,4.66,4.66,0,0,1,.81-1,.19.19,0,0,1-.09-.1l-.29,0L12,17.73l-.58-.08L11,17.58l.15,0a6.32,6.32,0,0,1-.75-.06s0,0,.09,0a3.22,3.22,0,0,1-2.1-1.58s.14.08.12,0c-.42-.55-.1-1-.49-1.31a.07.07,0,0,1,.13,0,5.39,5.39,0,0,1-.07-1.74A2,2,0,0,1,8.34,12a2.71,2.71,0,0,1,.24-.35c.08-.11.29-.33.41-.49,0-.14-.1-.28-.13-.41a2.92,2.92,0,0,1-.07-.29,4.55,4.55,0,0,1,0-.53,4.27,4.27,0,0,1,.16-1,1.26,1.26,0,0,1,0-.27c0-.11.14-.09.22-.11a1.87,1.87,0,0,1,.74.17c.27.11.54.25.81.39s.49.29.85.53l.88-.23.79-.2v.06a7.33,7.33,0,0,1,3.58.23,11,11,0,0,1,1.5-.81,4.92,4.92,0,0,1,.77-.25c.2,0,.54-.11.56.19a5.62,5.62,0,0,1,.22,1.2,2.91,2.91,0,0,1-.17,1.29h0l-.08,0a3,3,0,0,1,.86,1,2.5,2.5,0,0,1,.23,1.24,17.62,17.62,0,0,1-.39,2.52.88.88,0,0,0-.05-.15.92.92,0,0,1-.21.54c-.12.17-.2.31-.06.36a2.71,2.71,0,0,1-.27.16,1.89,1.89,0,0,1-1.39.92,15.62,15.62,0,0,0-1.82.35.24.24,0,0,1,0-.08c-.18.08-.6.05-.26.27a.78.78,0,0,1,.17.3c0-.05-.06,0-.15-.12a4.84,4.84,0,0,1,.34,1.81c0,.64.11,1.29.1,1.91L16.58,22a4.75,4.75,0,0,1,.07,1.19.86.86,0,0,0,.18.72.68.68,0,0,0,.69.11l-.05.07a2.84,2.84,0,0,0,.4-.23l.05.11A9.25,9.25,0,0,0,20.53,22.4Z" style="fill:#373735"/><path d="M24.28,13.07h0S24.29,13.1,24.28,13.07Z" style="fill:#373735"/><path d="M12.6,3.53h.14S12.65,3.53,12.6,3.53Z" style="fill:#373735"/><polygon points="11.35 20.18 11.35 20.18 11.34 20.18 11.35 20.18" style="fill:#373735"/><polygon points="11.34 20.18 11.34 20.18 11.34 20.18 11.34 20.18" style="fill:#373735"/><path d="M11.33,20.18Z" style="fill:#373735"/><path d="M11.38,20Z" style="fill:#373735"/><path d="M11.58,19.89l.09-.06c-.17.1,0,0-.1,0l0,0c0-.08-.15.06-.19.14l0-.06,0,.1,0-.06c.06-.18-.05.1,0,0l-.05.15a.54.54,0,0,0,0,.12s0,0,0,0c0,.08,0,0,0,.05h0s0,0,0-.07a.09.09,0,0,1,0-.06h0v0h0s0,0,0,0a.19.19,0,0,1-.11-.08h0l0,0h0c.06.15,0-.06,0,.2,0,0,0,0-.07.08v-.06c0,.13,0-.2,0-.1l-.07.08c0,.06-.14.08-.06,0s.06,0,0,0-.18,0,0,0h.16a.83.83,0,0,1-.21-.17c.13.09-.08-.3.15,0-.08-.21.15.24.12.18l0-.07c.09.22-.09-.32,0,0v0l-.06-.2,0-.09a1.11,1.11,0,0,1,0,.13s0-.15,0-.1c.08.35,0-.08.08.31l0,.22s0,.07,0-.13l-.08-.47,0,.13,0-.17s-.06-.2-.09-.27h0c0,.16,0,.07,0,.05l0-.07c0-.15.08.29,0,0,0,.07,0,.07,0,.09s0,0,.06.17c-.09-.2-.14-.24-.14-.23s0,0,0,0c-.15-.25.1.24-.08-.06.12.22-.06-.05.07.2l-.07-.13s-.11,0-.15,0c.12.18-.12,0,.07.21-.06,0-.18-.1-.11,0l0,0s0,.08.12.2c-.25-.15-.21-.1-.3-.13.11.09.05.12.15.2-.13,0,0,.05-.14,0,.33.24.18.18,0,.46h0a2.26,2.26,0,0,0,.47-.11l-.05,0s-.13.09-.08.09l-.06,0c.08,0-.11.12,0,.06l0,0,.07,0s-.13.1-.12.07c.12.25.42,0,.47.07v.05l0-.1,0,.06c0,.12.06-.06.08,0s0,.09,0,.13c0-.18,0,.22,0-.14v.13c.05-.12.08-.11.14-.07,0-.32.06,0,0-.3l0,.06c-.06-.22.06,0,.07-.06s0-.06,0-.07l.05.07c-.19-.25.24.16,0-.1l.09.07c-.13-.11.06,0-.18-.15l.07.05c-.32-.22.17.06,0-.07l.06,0s-.08-.05,0,0l0,0c.28.05,0-.06,0-.06h.13c-.15,0,0,0-.08,0h0l.12,0S11.6,19.89,11.58,19.89Z" style="fill:#373735"/><path d="M11.41,19.93Z" style="fill:#373735"/><path d="M11.14,19.3v0S11.14,19.31,11.14,19.3Z" style="fill:#373735"/><polygon points="10.09 20.14 9.57 19.96 9.57 19.96 9.57 19.96 9.57 19.96 9.57 19.96 9.57 19.96 10.09 20.14" style="fill:#373735"/><polygon points="9.57 19.96 9.57 19.96 9.57 19.96 9.57 19.96" style="fill:#373735"/><path d="M9.57,20Z" style="fill:#373735"/><path d="M9.65,20.08Z" style="fill:#373735"/><path d="M9.69,19.74v-.11c0,.2,0,0,0,.08v0c-.05,0-.06.15-.05.24l0-.06,0,.1,0-.06c-.06-.18,0,.11,0,0l.06.14s0,0,0,0h0l0,0h0l0,0h0a.11.11,0,0,1,0,.07s0,0,0,0h0v0h0l0,.09h0a.26.26,0,0,1,.07-.1h0c.06,0,0,0,0,0h0s0,0,.07,0,0,0,0,.07l0,0c0,.13-.1-.17-.06-.08,0-.14,0,.36-.05.17s0,.08-.09.1h0s0,0,0-.09c.1-.47.06-.15-.16.06,0-.09,0,0-.08,0s-.1,0,0-.13c-.23.06.29-.14.15-.08h0s.05,0,0,0H9.28s.1,0,.14,0-.16,0-.11,0l.14,0h0l.1,0h0l.09,0-.06,0-.12,0-.21-.07.12,0-.16,0s-.21,0-.29,0H9c.15,0,.05,0,0,.05H8.9c-.15,0,.3.07,0,0a.32.32,0,0,1,.07.18c.1,0,0,0,.19,0-.21.07-.25.13-.24.14h0c-.25.15.25-.08,0,.1.22-.11,0,.09.21-.05L9,20.33c0,.05,0,.14,0,.18.18-.13,0,.13.21-.08,0,.06-.08.18,0,.1l0,0s.07,0,.18-.15a1.57,1.57,0,0,0-.14.3c.08-.11.1-.06.17-.16-.05.13,0,0,0,.14.15-.23.17-.24.2-.1h0l-.08,0v.2h0c0-.1.11-.32.15-.45a.23.23,0,0,1,0,0s0,.16,0,.13v.06c0-.08,0,.15,0,0v.05l0-.07c0,.06,0,.16,0,.14s.23-.27.32-.26l0,.06,0-.11,0,.05c.07.09,0-.09,0-.08l.07.11c-.08-.16.18.14,0-.14l.08.1a.21.21,0,0,1,.11-.25C10,20,10.24,20,10,20H10c-.23,0,0-.08-.07-.11s-.06,0-.07,0l.06-.06c-.23.21.14-.25-.1,0l.07-.09c-.1.14,0-.06-.14.18l0-.07c-.21.32.07-.17-.07,0l0-.06c0,.05-.05.08,0,0l0-.05c.1-.26,0,0,0,0l0-.12c-.06.14,0,0-.06.07l0-.06,0,.08,0-.12S9.7,19.73,9.69,19.74Z" style="fill:#373735"/><path d="M9.59,19.89Z" style="fill:#373735"/><path d="M8.91,19.82h0S8.91,19.81,8.91,19.82Z" style="fill:#373735"/><polygon points="11.42 20.11 11.45 20.1 11.35 20.09 11.42 20.11" style="fill:#373735"/><path d="M11.18,20.06h.23C11.58,20.06,11.07,20.07,11.18,20.06Z" style="fill:#373735"/><path d="M11.21,20.05c.07,0-.07,0-.12,0C11.2,20,11.06,20.07,11.21,20.05Z" style="fill:#373735"/><path d="M10.73,19.58h0Z" style="fill:#373735"/><path d="M10.56,20v.11c0-.2,0,0,0-.08v0s.06-.14.14-.19l0,.05.05-.09,0,.06c-.09.16.08-.09,0,0l.09-.12.28,0-.11.08c.29-.1.23.07.19.14s.08,0,.16,0-.2,0-.07-.07l.08,0s-.19,0-.1,0,.09,0,.1,0,0-.11-.19-.06c.14-.09,0,0,.12-.13a.51.51,0,0,0-.15.06c0-.16-.21-.11-.26-.15-.17.28,0-.09-.13,0v0c0,.07-.06.1-.06.06l0,.13c0-.2-.1-.16-.15-.16h0a.08.08,0,0,1-.07,0c-.08-.08-.34-.23-.23.19l0-.05c0,.07-.08,0-.06.07l0,0c.06.12,0,.13,0,.17s0,.08.08.14a.09.09,0,0,0,.11.13l-.05,0c.11-.07-.06.22.06.16,0,.17.17-.32.15-.13s0-.35.06,0c.06.48.16.15.06-.13,0,.08,0,0,0,0s-.05,0,.08.07c-.17-.14.24.15.22.06l-.08,0c.23.07-.3-.12,0,0h0c.16,0-.38-.11-.2-.06h0l.06,0-.06,0h0c.27,0-.1,0,.28,0a1.36,1.36,0,0,1,.24,0c.05,0,0,0-.15,0h-.42l0,0s0,0,0,0v0h0v0h0v0h0l0-.05v0h0v0h0a.43.43,0,0,1-.05.12h0c-.08,0,0,0-.06,0l0,0c-.15-.09,0,0,0,0s0-.05,0-.06l0,.07c-.13-.28.12.25,0-.07l0,.11c-.05-.16,0,.05-.06-.22l0,.08c-.08-.38.06.17,0-.08V20c0-.05,0-.1,0,0V20c0,.27,0,0,0,0v.07h0s0,0,0,0v.1S10.55,20,10.56,20Z" style="fill:#373735"/><path d="M10.7,19.93h0Z" style="fill:#373735"/><path d="M10.64,20.1Z" style="fill:#373735"/></g></svg>