<svg id="b0a52c0e-f5c8-4668-83a3-57cd4d9dd025" data-name="Calque 1" xmlns="http://www.w3.org/2000/svg" viewBox="0 0 20.43 20.48"><g id="bef4c466-96e3-4e06-bf8c-5d44cb21d51c" data-name="illustrator"><g id="bccba781-8f0c-463e-a9c0-dbbdd6647a1b" data-name="Calque 2"><rect x="2.48" y="3.33" width="15.71" height="13.81" style="fill:#f4991c"/></g><g id="fd26045c-86f3-41d2-944f-951ef56add00" data-name="Capa 1"><path d="M8.44,7.26h0A11,11,0,0,1,8,9.16l-.6,2.15H9.63L9,9.16C8.79,8.57,8.67,7.85,8.44,7.26Z" style="fill:#311f11"/><polygon points="8.13 7.38 8.11 7.39 8.16 7.39 8.13 7.38" style="fill:#1d1d1b"/><path d="M8.26,7.42l0,0H8.14C8.07,7.46,8.31,7.38,8.26,7.42Z" style="fill:#1d1d1b"/><path d="M8.25,7.43s0,0,.07,0S8.32,7.4,8.25,7.43Z" style="fill:#1d1d1b"/><path d="M8.78,9.07h0Z" style="fill:#1d1d1b"/><path d="M9.14,9.42H9.2c-.12-.05,0-.17-.12-.25h0a3.7,3.7,0,0,0-.31-.59h0s-.06,0-.06,0h0c.08-.07-.09-.12,0-.16H8.68a1.83,1.83,0,0,0-.25-.48s0,0,.06,0c-.18-.1-.17-.27-.2-.41s0,0-.07,0,.12,0,.06.12h0s.1,0,.06,0-.05,0-.05,0,0,.13.13.17c-.07,0,0,.07-.05.12s0,0,.09,0a5.31,5.31,0,0,0,.23.71c.19.07,0,.26.15.38h0a.2.2,0,0,1,.1.14l.07,0a4.57,4.57,0,0,0,.17,1c0,.19,0,.37.08.54s.07.17.23.35l0,0a.36.36,0,0,1,0,.07c-.05,0-.09,0-.11,0v0c0,.13-.4,0-.61.12a5.84,5.84,0,0,0-.93,0v0a.47.47,0,0,1-.32,0c.06-.12.11-.19.1-.27s0-.53.12-.74-.07-.4.12-.5S8,9.19,8,8.85c.17-.24,0-.57.25-.79-.08-.15.19-.24.19-.39h0c.12,0-.14-.14,0-.14h0c.1,0-.19-.1-.08-.09l0,0s0,0,.07,0-.07,0,0,0,0-.08.17,0c0,0,.08,0,.12,0s0-.06-.06-.08a.55.55,0,0,0-.24,0l.06,0H8.31s-.11,0-.16,0h0c.07,0,0,.06,0,.07h0c-.08,0,.14.08,0,0a1,1,0,0,1,0,.3c.05,0,0,.07.08.07-.11,0-.15.07-.15.09H8C7.87,7.9,8.14,8,8,8c.12,0-.06.08.07.14H8c0,.09-.09.17-.11.24s-.09.13,0,.22c0,0-.12.09-.08.17h0a.19.19,0,0,0,0,.22.24.24,0,0,0-.18,0,.23.23,0,0,1,0,.15.62.62,0,0,0,0,.13c-.06,0,0,.06-.08,0a.56.56,0,0,1-.2.66h0s.15.1.21.15h0s-.09.05-.08.1l0,0c0,.05-.1.06,0,.12h0l0,0s-.07,0-.06,0a1.94,1.94,0,0,0-.09.48,5.26,5.26,0,0,1-.12.71h.12l-.06,0,.16-.05s0,0,0,0,.3,0,.41,0,0,0,0,.06.14.11.18-.07v.07a1.1,1.1,0,0,1,.54,0c.15-.16.31,0,.47-.14v0c.19-.12.43,0,.68,0H9.7a1.3,1.3,0,0,1-.08-.17l.05,0A.25.25,0,0,1,9.59,11c0-.1,0-.19-.09-.23h.06c-.09,0,0-.1-.14-.05l0,0c-.21,0,0-.2-.12-.29h0s-.07-.06-.05-.09h0c.1-.14-.07-.21-.1-.32h.07c-.09,0-.05-.14-.1-.2h0l0,0h.06C9.25,9.58,9.17,9.51,9.14,9.42Z" style="fill:#1d1d1b"/><path d="M8.79,8.55Z" style="fill:#1d1d1b"/><path d="M8.14,7.32h0A0,0,0,0,0,8.14,7.32Z" style="fill:#1d1d1b"/><path d="M19.15.35H1.53A1.29,1.29,0,0,0,.34,1.54V19.16a1.19,1.19,0,0,0,1.19,1.19H19.15a1.19,1.19,0,0,0,1.19-1.19V1.54C20.46,1,19.86.35,19.15.35ZM10.82,15.71,10,13.09H7l-.72,2.62H3.91L7,5.47h3L13.2,15.71Zm5.95,0H14.51V8.33h2.26ZM15.58,7.38a1.12,1.12,0,0,1-1.19-1.19,1.19,1.19,0,0,1,2.38,0C16.89,6.9,16.29,7.38,15.58,7.38Z" style="fill:#311f11"/><path d="M19.15.35H1.53A1.29,1.29,0,0,0,.34,1.54V19.16a1.19,1.19,0,0,0,1.19,1.19H19.15a1.19,1.19,0,0,0,1.19-1.19V1.54C20.46,1,19.86.35,19.15.35ZM10.82,15.71,10,13.09H7l-.72,2.62H3.91L7,5.47h3L13.2,15.71Zm5.95,0H14.51V8.33h2.26ZM15.58,7.38a1.12,1.12,0,0,1-1.19-1.19,1.19,1.19,0,0,1,2.38,0C16.89,6.9,16.29,7.38,15.58,7.38Z" style="fill:none"/><polygon points="15.58 7.71 15.58 7.73 15.59 7.68 15.58 7.71" style="fill:#1d1d1b"/><path d="M15.65,7.59v0l0,.15C15.63,7.79,15.64,7.54,15.65,7.59Z" style="fill:#1d1d1b"/><path d="M15.66,7.61s0,0,0-.06S15.65,7.53,15.66,7.61Z" style="fill:#1d1d1b"/><path d="M16.85,6.89h0Z" style="fill:#1d1d1b"/><path d="M16.74,6.49h-.06c.1.07,0,.12,0,.18h0a3.57,3.57,0,0,1-.17.44v0s0,0,0,0a0,0,0,0,1,0,0c-.09,0,0,.11-.11.07a.17.17,0,0,0,0,.07c-.1.1-.22.17-.34.28a.16.16,0,0,1,0-.06c-.07.18-.23.15-.35.13s0,0,0,.08.07-.1.12,0v0s0-.09,0,0a.05.05,0,0,1,0,0c.06,0,.13,0,.16-.1,0,.07.06,0,.11.05s0,0,0-.09a1,1,0,0,0,.52-.35c0-.17.17-.14.19-.28h0a.14.14,0,0,1,0-.14l-.05-.06A.54.54,0,0,0,17,6.3l0-.1V5.93c0-.29-.06-.68-.44-.74l0,0c-.08,0-.12-.13-.21-.14V5c-.22,0-.39-.18-.59-.06a1,1,0,0,0-.66.13v0c-.13.12-.38.09-.48.28s0,.42-.17.56.14.27,0,.36c-.24.24,0,.5.23.58,0,.23.32.18.39.4.12-.07.13.2.25.2v0c0,.12.11-.15.1,0h0c0,.09.07-.2.07-.09v0s0,0,0,.07,0-.08,0,0c0,.18.06,0,0,.16,0,0,0,.08,0,.12s.05,0,.05-.07a.63.63,0,0,0,0-.24v0s0-.1-.05-.15h0c0,.08,0,0,0,0v0c0-.07,0,.15,0,0a.25.25,0,0,1-.17,0s0,0-.06.08c0-.11,0-.15,0-.15V7c0-.14-.08.11,0-.06-.06.11,0,0-.1.07l0-.07S15,6.87,15,6.84s0-.08-.15,0,0-.11,0-.1h0a.16.16,0,0,0-.16,0,.6.6,0,0,0,.13-.11c-.08,0-.07,0-.14-.08s0,0,.05,0c-.21-.07-.16-.28,0-.38h0L14.51,6h0s.08,0,.07-.06h0s.08,0,0-.07h0l0,0s.08,0,.07,0c.07-.16,0-.43.26-.55v0s0,0,0,0,.08-.08.13-.09,0,0,0,.06.09.09.05-.09a.11.11,0,0,1,0,.06.32.32,0,0,1,.32-.08c.1-.16.2,0,.32-.11v0c.16-.08.27.09.39.15s.09,0,.14.07l0,0c.19,0,0,.24.21.23l0,0c.09,0,0,.07.13,0l0,0c.21,0,0,.15.11.19h0s.06,0,0,.06h0c-.12.09,0,.15,0,.23h-.07c.08,0,0,.12.05.16h0l.05,0h-.06C16.68,6.37,16.74,6.43,16.74,6.49Z" style="fill:#1d1d1b"/><path d="M16.49,7.09Z" style="fill:#1d1d1b"/><path d="M15.51,7.09h0S15.51,7.09,15.51,7.09Z" style="fill:#1d1d1b"/><polygon points="17.1 15.71 17.12 15.7 17.07 15.68 17.1 15.71" style="fill:#1d1d1b"/><path d="M17,15.56h0l.15.09C17.19,15.61,16.93,15.58,17,15.56Z" style="fill:#1d1d1b"/><path d="M17,15.53s0,0-.06-.06S16.93,15.54,17,15.53Z" style="fill:#1d1d1b"/><path d="M17,12.41h0Z" style="fill:#1d1d1b"/><path d="M16.73,11.6h-.05c.1.15,0,.32,0,.49l0,0a7.86,7.86,0,0,0,.11,1.19h0s.06,0,0,.06h0c-.09.08.06.25,0,.3a.07.07,0,0,0,.08,0,6.68,6.68,0,0,0,.11,1h-.07a1.46,1.46,0,0,1,.07.85s0,0,.08,0-.1-.16,0-.24h0c0-.06-.09,0-.05-.08s.05,0,.06,0,0-.26-.08-.38c.08,0,0-.14.08-.18s0-.07-.08-.08a12.4,12.4,0,0,0,0-1.36c-.15-.21,0-.46,0-.72h0a.5.5,0,0,1,0-.3L16.86,12a13.48,13.48,0,0,0,.1-1.8c0-.33.06-.65.07-1a3.54,3.54,0,0,0,0-.46l0-.31c0-.12,0-.23-.06-.32h-.08l.05,0c-.31,0-.55,0-.7,0v0c-.45.13-.93,0-1.37.13h-.37c0,.54,0,1,.05,1.42h0c.07.45-.1.88-.05,1.32s.18.94.09,1.4c-.16.29.18.67,0,.93A2.38,2.38,0,0,0,14.57,15a2.27,2.27,0,0,0,0,.65,1.71,1.71,0,0,1,.32,0,1.21,1.21,0,0,1,.38.06c.24-.11.49.14.75.11v0c.1.12.21-.16.27,0h0c0,.09.11-.21.14-.1v-.05c.06,0,0,.05.06.07s0-.08,0-.06c0,.18.14,0,.15.17,0,0,.05.08,0,.12a.08.08,0,0,0,.11-.08c0-.09.05-.17,0-.24l0,.07,0-.08c-.08,0-.09-.11-.15-.15h0c0,.08-.09,0-.12,0v0c0-.08-.09.15-.07,0a3,3,0,0,1-.53,0s-.13,0-.09.1a.25.25,0,0,0-.23-.14s0,0,0,0-.12.14-.21,0c0,.12-.16,0-.21.11a.12.12,0,0,1,0-.08l-.24,0s0,0,0,0a.12.12,0,0,1,0,0s0,0-.06,0,.09-.19,0-.29h0a.61.61,0,0,0-.11-.38c.14,0,.11-.1.16-.16s0-.27-.11-.4,0-.11.07-.12a1.64,1.64,0,0,1,0-1.25h0c-.06-.05-.17-.11-.24-.17h0c0-.07.08-.14.06-.22s0,0,0,0,.08-.15,0-.23h0l0-.06s.08,0,.06,0c0-.64-.13-1.29-.11-1.94l0,0,0-.12h0c.06-.16,0-.33,0-.48,0,0,.05,0,.06,0s.12-.19-.06-.25h.06A4.07,4.07,0,0,1,14.67,9V8.7a.41.41,0,0,1,0-.12.61.61,0,0,1,0-.12s.14,0,.23,0a.91.91,0,0,0,.36-.06v0a4.66,4.66,0,0,1,1.12,0c.15,0,.24,0,.39,0l0,.05c.15.15-.14.5,0,.76l-.06,0c.09,0,0,.17.12.15l0,0c.19.19-.09.34,0,.57h0c0,.06.05.13,0,.17h0c-.14.19,0,.4,0,.6l-.07,0c.08.1,0,.28,0,.4h0l0,.06h-.06A3.87,3.87,0,0,0,16.73,11.6Z" style="fill:#1d1d1b"/><path d="M16.8,13.29h0Z" style="fill:#1d1d1b"/><path d="M16.55,15.43h0Z" style="fill:#1d1d1b"/><polygon points="10.82 16.05 10.83 16.06 10.88 16.01 10.82 16.05" style="fill:#1d1d1b"/><path d="M11.12,15.93a.06.06,0,0,1,0,0l-.18.15C11,16.13,11.07,15.87,11.12,15.93Z" style="fill:#1d1d1b"/><path d="M11.17,15.94c.07,0,.1,0,.12,0S11.16,15.87,11.17,15.94Z" style="fill:#1d1d1b"/><path d="M12.18,11.79v0A0,0,0,0,1,12.18,11.79Z" style="fill:#1d1d1b"/><path d="M11.47,10.35h-.05a6.12,6.12,0,0,1,.32.88h0c.22.76.53,1.43.8,2.17l0,0a.23.23,0,0,1,.08.11s0,0,0,0c0,.19.2.45.16.57s.07.05.09,0l.68,1.85-.28,0a.1.1,0,0,1-.09-.07,4.4,4.4,0,0,1-.93.1l-.83,0s.06,0,0,.08c.17.05.32-.1.48,0l0,0c.11,0,0-.09.14,0s0,0,0,0a2.28,2.28,0,0,0,.74-.08c.08.09.44,0,.66.08s.22,0,.17-.08L13.24,15,13,14.38c-.15-.41-.3-.83-.43-1.25s-.24-.88-.44-1.34h0a1.81,1.81,0,0,1-.22-.55l-.11-.13c-.21-1.15-.66-2.24-1-3.38l-.32-1.19L10.41,6l-.24-.74H9.65l-.34,0-.69.08s0,0,0,0c-.37,0-.71,0-1.07,0h0l-.28,0-.38,0L6.74,6l-.15.51a5.19,5.19,0,0,0-.24,1c-.31,1-.63,2.1-.91,3.15h0c-.19.85-.59,1.61-.79,2.45s-.36,1.8-.71,2.65l0,0c.58.15,1.3-.18,1.82,0a3.43,3.43,0,0,0,.65.1,11.82,11.82,0,0,0,.56-2.65L7,13a24.87,24.87,0,0,1,2.88,0L10,13c.18.45.12.89.29,1.33l0,0c-.06.21.28.34.14.5v0c-.06.12.27.15.19.24h0c.05.11,0,0,0,.12s.08,0,.08.06c-.17.07.12.26-.07.33,0-.06,0,.12-.13,0,0,0,.06.22.14.18s.19,0,.22-.1h-.07c.05-.06,0,0,.07-.07s0-.2.05-.31h0c-.1,0-.08-.16-.09-.23l0,0c.06-.06-.2-.12-.06-.12a7.85,7.85,0,0,1-.34-1c-.07,0-.08-.25-.15-.15a.63.63,0,0,0,0-.47s0,0,0,0,0-.21-.07-.27a.45.45,0,0,1-.1-.24.24.24,0,0,1-.1-.05c-.06.06-.2.05-.36.05s-.19,0-.24.06a.08.08,0,0,1,0-.08c-.32,0-.67,0-.94,0s-.56-.05-.75.1l-.31-.05H7.29a1.6,1.6,0,0,0-.3,0l0,0H6.78c0,.19-.12.48-.13.56a.91.91,0,0,0,0,.29c-.16,0-.16.16-.24.25s-.09.52-.1.79c-.07,0,0,.21-.13.2,0,.24-.05.57-.05.62a4,4,0,0,1-.68,0l-.83-.11h0a1.44,1.44,0,0,0-.3.24,0,0,0,0,1,0,0c-.11,0-.12-.07-.19-.05l0,0h0c0-.05.11-.12,0-.16h0s0,0,0-.07.07,0,0,.07c.39-1.16.6-2.44,1-3.64v.06l0-.26s0,0,0,0a7.7,7.7,0,0,0,.25-.91s0,.06.06,0c0-.24.21-.31.07-.47a0,0,0,0,1,.06,0,11.61,11.61,0,0,1,.53-1.83c0-.55.3-1.08.34-1.64h0A6,6,0,0,1,7,5.51c.25,0,.57,0,.85,0s.52,0,.82,0v0a1.61,1.61,0,0,1,.62,0c.22,0,.44.06.57.06a1.76,1.76,0,0,0,.14.26l-.06,0c.11.05.07.32.2.24l0,.11c.3.29.12.66.37,1l0,0a.78.78,0,0,1,.12.33l0,0A3.63,3.63,0,0,0,11,8.62l-.08,0a5.22,5.22,0,0,1,.28.74h0l.07.11,0,0C11.23,9.77,11.37,10.05,11.47,10.35Z" style="fill:#1d1d1b"/><path d="M12.53,13.46Z" style="fill:#1d1d1b"/><path d="M11,15.22v0S11,15.24,11,15.22Z" style="fill:#1d1d1b"/><polygon points="19.15 0.69 19.18 0.71 19.25 0.66 19.15 0.69" style="fill:#1d1d1b"/><path d="M19.65.7s0,0,0,0a.88.88,0,0,0-.33,0C19.41.8,19.59.6,19.65.7Z" style="fill:#1d1d1b"/><path d="M19.72.76a.2.2,0,0,0,.19.07C19.85.84,19.74.68,19.72.76Z" style="fill:#1d1d1b"/><path d="M20.14,13v-.05S20.14,13,20.14,13Z" style="fill:#1d1d1b"/><path d="M20.38,16.25l.05,0c-.1-.61,0-1.3,0-2l0,.05c0-1.65-.07-3.17-.11-4.8,0,0,0,0,0,.06a.7.7,0,0,1,0-.25s0,0,0,0c.09-.34-.06-1,0-1.23s-.05-.14-.08-.08c0-1.28,0-2.65-.11-4,0-.06,0-.07.07-.06a11.8,11.8,0,0,1-.1-1.69V1.57A.72.72,0,0,0,20,.91c-.05,0,0,.1-.06.06.07.12.14.21.19.31a.47.47,0,0,1,0,.17c0,.08,0,.2,0,.26l0,0c0,.24.09.05.05.3S20,2,20,2a10.88,10.88,0,0,0,.08,1.53c-.08.12,0,.56-.08.75s0,.26.07.31c0,1.8,0,3.63,0,5.47a27.9,27.9,0,0,1,0,2.92h0a7.84,7.84,0,0,1,0,1.21l.07.34c-.07,1.19-.08,2.4-.08,3.62v.91a1.05,1.05,0,0,1-.23.75,1,1,0,0,1-.66.37c-.25,0-.59,0-.88,0-2.77,0-5.18-.15-7.87.06,0,0,0,0,.05,0-.78,0-1.49,0-2.22,0h0c-1.82.13-3.78,0-5.53.12a12.53,12.53,0,0,1-1.62-.05A1.17,1.17,0,0,1,.39,19c0-1.15,0-2.32,0-3.44h0c-.06-1.8.1-3.54,0-5.34S.25,6.41.35,4.55a10.07,10.07,0,0,0,0-1.9c0-.33-.05-.66-.05-1A1,1,0,0,1,.59.85a1.38,1.38,0,0,1,.7-.4,5.52,5.52,0,0,1,.81,0H3.74c1.1,0,2.2-.1,3.31-.17,2.06.08,4.11-.14,6.1,0,.94-.12,2,.14,3,.1l0,0c.38.12.84-.16,1.07,0h0c.2.09.47-.21.59-.1l0,0c.24,0,0,0,.22.06s0-.08.17,0,.59,0,.61.16c-.14,0,.2.08-.09.12.08,0,.49,0,.45-.07s.19-.17,0-.24l-.05.06C19,.25,19,.28,19,.23c-.32,0-.36-.11-.59-.15h0a1,1,0,0,1-.5,0l-.05,0c-.07-.07-.36.16-.27,0-.65,0-1.4,0-2.13,0-.1,0-.56,0-.4.09a2.6,2.6,0,0,0-.92-.14s0,0,0,0c-.39-.15-.46.13-.83,0-.05.13-.66,0-.87.11,0,0-.06,0,0-.08l-2,0C10,.11,9.28,0,8.87.1a6.63,6.63,0,0,0-1.36,0l0,0A9.09,9.09,0,0,0,6,.16C5.83,0,5.59.05,5.36,0S4.28.05,3.74.11C3.65,0,3.29.14,3.26,0a11.46,11.46,0,0,1-1.2.09L1.4.16a1.54,1.54,0,0,0-.69.3A1.53,1.53,0,0,0,.24,1a1.68,1.68,0,0,0-.14.73Q.06,2.4,0,3V3c.05.21.17.45.24.67,0,0,0,0,0,0,0,.3-.07.58,0,.88,0,0,0,0,0,0,.05.27-.07.57,0,.9l0,0,0,.21s-.08,0-.07-.12C0,8,.2,10.68.17,13.3l0-.09.06.51a.06.06,0,0,1,0-.06c-.06.65,0,1.33,0,2,0,0,0-.1-.07,0,.09.47-.11.75.07,1,0,0,0,0-.06,0,0,.66,0,1.32,0,2a4.12,4.12,0,0,0,.06,1,1.4,1.4,0,0,0,.73.83,2.35,2.35,0,0,0,.91,0h.86a14.24,14.24,0,0,0,1.74-.06v0c1.47-.12,3,0,4.55,0,.63,0,1.06,0,1.7,0v0c1.07-.15,2.25.14,3.37,0l-.08.06c.17-.09.67,0,.61-.12l.2.05a21.22,21.22,0,0,1,2.3,0l-.06,0a3.52,3.52,0,0,1,.72,0l-.07,0a5.35,5.35,0,0,0,1.21.05A1.39,1.39,0,0,0,20.07,20s0,.07,0,.11a1.77,1.77,0,0,0,.33-.73,5,5,0,0,0,0-.87l0,0-.05-.26h.06C20.44,17.54,20.38,16.91,20.38,16.25Z" style="fill:#1d1d1b"/><path d="M20.31,9.44h0Z" style="fill:#1d1d1b"/><path d="M18.28.07h0Z" style="fill:#1d1d1b"/></g></g></svg>