<svg id="a3f05350-2f4b-4bb4-b1b2-5774a0f99253" data-name="Calque 1" xmlns="http://www.w3.org/2000/svg" xmlns:xlink="http://www.w3.org/1999/xlink" viewBox="0 0 22.8 22.88"><defs><linearGradient id="b83e8106-2d5e-4c1e-a87d-9e3c3b0c1c98" x1="11.65" y1="22.55" x2="11.65" y2="0.7" gradientUnits="userSpaceOnUse"><stop offset="0" stop-color="#f5d28a"/><stop offset="0.16" stop-color="#f5ce89"/><stop offset="0.32" stop-color="#f3c186"/><stop offset="0.49" stop-color="#f2ad82"/><stop offset="0.65" stop-color="#ef907b"/><stop offset="0.82" stop-color="#eb6b73"/><stop offset="0.99" stop-color="#e73e69"/><stop offset="1" stop-color="#e73b68"/></linearGradient></defs><path d="M11.65,6.76a4.87,4.87,0,0,0,0,9.74,4.88,4.88,0,0,0,4.78-4.87,4.88,4.88,0,0,0-4.78-4.87Zm0,8.45a3.58,3.58,0,1,1,2.53-1.05A3.58,3.58,0,0,1,11.65,15.21ZM18.5.7H4.8A4.09,4.09,0,0,0,3.22,1a4,4,0,0,0-1.33.89A4.06,4.06,0,0,0,1,3.25,4.22,4.22,0,0,0,.68,4.82V18.43A4.12,4.12,0,0,0,4.8,22.55H18.5a4.12,4.12,0,0,0,4.12-4.12V4.82A4.13,4.13,0,0,0,18.5.7ZM16.63,3.16a.87.87,0,0,1,.87-.88h2.58a.87.87,0,0,1,.87.88V5.73a.88.88,0,0,1-.88.88H17.5a.88.88,0,0,1-.87-.88Zm5.11,15.27a3.25,3.25,0,0,1-3.24,3.25H4.8a3.24,3.24,0,0,1-3.24-3.25V7.54h.66a.87.87,0,0,1,.86-.7H5.82a.88.88,0,0,1,.86.7H7.87a5.55,5.55,0,0,1,7.55,0h6.32V18.43Z" style="fill:url(#b83e8106-2d5e-4c1e-a87d-9e3c3b0c1c98)"/><path d="M11.65,6.76a4.87,4.87,0,0,0,0,9.74,4.88,4.88,0,0,0,4.78-4.87,4.88,4.88,0,0,0-4.78-4.87Zm0,8.45a3.58,3.58,0,1,1,2.53-1.05A3.58,3.58,0,0,1,11.65,15.21ZM18.5.7H4.8A4.09,4.09,0,0,0,3.22,1a4,4,0,0,0-1.33.89A4.06,4.06,0,0,0,1,3.25,4.22,4.22,0,0,0,.68,4.82V18.43A4.12,4.12,0,0,0,4.8,22.55H18.5a4.12,4.12,0,0,0,4.12-4.12V4.82A4.13,4.13,0,0,0,18.5.7ZM16.63,3.16a.87.87,0,0,1,.87-.88h2.58a.87.87,0,0,1,.87.88V5.73a.88.88,0,0,1-.88.88H17.5a.88.88,0,0,1-.87-.88Zm5.11,15.27a3.25,3.25,0,0,1-3.24,3.25H4.8a3.24,3.24,0,0,1-3.24-3.25V7.54h.66a.87.87,0,0,1,.86-.7H5.82a.88.88,0,0,1,.86.7H7.87a5.55,5.55,0,0,1,7.55,0h6.32V18.43Z" style="fill:none"/><polygon points="22.21 18.91 22.21 18.91 21.74 17.76 21.74 17.76 21.74 17.76 21.74 17.76 22.41 18.43 22.41 18.43 22.41 18.43 22.42 18.43 22.43 18.42 22.45 18.4 22.34 18.32 22.38 18.38 22.39 18.41 22.4 18.42 22.4 18.43 22.41 18.43 22.41 18.43 22.41 18.43 21.74 17.77 21.74 17.77 21.74 17.77 22.21 18.91 22.21 18.91 22.21 18.91" style="fill:#373735"/><path d="M22.18,17.89s-.05,0-.07,0l.29.32C22.57,18.09,22.06,18,22.18,17.89Z" style="fill:#373735"/><path d="M22.21,17.8c.07-.12-.07-.17-.12-.2C22.2,17.64,22.06,17.83,22.21,17.8Z" style="fill:#373735"/><path d="M21.19,7.14h.06A.06.06,0,0,0,21.19,7.14Z" style="fill:#373735"/><path d="M18.3,7.61l0,.11c.53-.2,1.12,0,1.68-.08l0,0c.31,0,.62,0,.92,0l.81,0c.05.6.13,1.46.17,2.22l-.05,0c0,.07.11.14.1.22s-.05,0-.07,0c-.18.3.12.88,0,1.06,0,.09.1.12.15.08.05,1.1.09,2.28.23,3.4a.1.1,0,0,1-.14.05,8.36,8.36,0,0,1,.13,3c.08,0,.09-.1.17,0,.09-.32-.2-.58-.05-.87l.07,0c.05-.21-.19,0-.09-.26s.1,0,.1,0a3.91,3.91,0,0,0-.14-1.32c.16-.1,0-.48.16-.64-.07-.11-.05-.23-.16-.27.09-1.55-.07-3.14-.06-4.72-.24-.62-.08-1.07,0-2.29-.3,0-.62,0-.93,0a0,0,0,0,1,0,0,3.52,3.52,0,0,1-1.11.07l-.29.14a23.13,23.13,0,0,0-3.12-.16h-.79c-.34,0-.29,0-.49-.13a6.68,6.68,0,0,0-1.4-.9,5.83,5.83,0,0,0-3.61-.48A4.72,4.72,0,0,0,8,6.92l-.16.16-.06.1c-.07.05-.11.05-.28.08,0,0,0,0,0-.06a3.32,3.32,0,0,1-.42,0c-.08,0-.19,0-.22,0a.34.34,0,0,0,0-.14.82.82,0,0,0-.2-.24A1.07,1.07,0,0,0,6,6.53v0a16.63,16.63,0,0,1-2.07.11,9.49,9.49,0,0,0-1.06,0c-.41,0-.8.51-.78.68s-.3.07-.54.13l-.13,0,0,.08v0c0,1.83,0,3.91.08,5.85H1.47c.13,1.56-.2,3.06-.1,4.61a2.91,2.91,0,0,0,.74,2.36A4.6,4.6,0,0,0,4.2,21.64c1,.42,2.3-.33,3.24,0a14.27,14.27,0,0,0,5.71-.12c1.77.17,3.54-.27,5.26.08.4-.11.79-.09,1.24-.17a2.08,2.08,0,0,0,1.24-.6l-.08,0c.43-.09.21-.75.6-.74v0c.26-.08-.19-.54,0-.55l-.07-.05c.05-.2.1,0,.19-.13s-.15-.06-.07-.17c.37.06,0-.49.42-.46,0,.13.17-.18.23.11.06-.07.05-.48-.12-.44s-.34-.16-.49.05l.13,0c-.13.06-.07.05-.17.07,0,.26-.24.26-.34.41h0c.13.15,0,.29-.06.36H21c-.15,0,.18.36,0,.19a2.25,2.25,0,0,1-1,1.21c0,.13-.37.2-.17.31a1.2,1.2,0,0,0-.75,0s0-.05,0,0c-.31-.23-.3.32-.59,0,0,.26-.57-.07-.74.22a.19.19,0,0,1,0-.15c-.57,0-1.2-.1-1.68-.11-.41.22-1-.1-1.35.21a2.39,2.39,0,0,0-1.18-.07l0,0a3.27,3.27,0,0,0-1.35.22c-.14-.29-.34-.23-.54-.32-.31.13-.93.09-1.4.22-.07-.14-.39,0-.42-.14a9.84,9.84,0,0,1-4.35,0h0a6.28,6.28,0,0,0-.58.47s0,0,0,0c-.27,0-.46-.15-.69-.16,0,0,0,0,0-.05-.23,0-.37-.24-.64-.2V21H3.53c0-.06.08-.14.14-.09A3,3,0,0,1,2,18.72a30.47,30.47,0,0,1-.13-3.35l.06.08L1.84,15a.13.13,0,0,1,.07.05,13.57,13.57,0,0,0,0-1.69s.09.09.13,0c-.18-.41.22-.65-.14-.85a.11.11,0,0,1,.13,0,21.57,21.57,0,0,1-.05-3.41,4.47,4.47,0,0,1-.17-1.59l-.2.2a3.21,3.21,0,0,0,.81,0,1.74,1.74,0,0,1,.13-.42A1.18,1.18,0,0,1,2.67,7l0,.06c.19-.21.54-.18.86-.2s.66,0,1,0l1,0a1,1,0,0,1,.83.25,1.11,1.11,0,0,1,.21.42c.13.08.37,0,.54,0l.53,0,0,.08c.3,0,.41-.32.61-.42a3.28,3.28,0,0,1,.64-.34,7,7,0,0,0,1.31-.59l0,.12c.09-.21.56-.07.45-.34l.18.06c.63-.47,1.19.08,2,0l-.06,0a1,1,0,0,1,.6.13s0,0-.07,0c.52.44,1.29.5,1.84,1L15,7.39c.18,0,.35.33.66.24a4.68,4.68,0,0,0,.75,0l0,.06.22-.09v.12C17.18,7.73,17.73,7.63,18.3,7.61Z" style="fill:#373735"/><path d="M21.8,10h0S21.8,10,21.8,10Z" style="fill:#373735"/><path d="M21.1,19.05l0-.05S21.11,19,21.1,19.05Z" style="fill:#373735"/><polygon points="15.96 3.16 15.92 3.17 16.03 3.19 15.96 3.16" style="fill:#373735"/><path d="M16.19,3.29h.07L16,3.2C15.8,3.24,16.3,3.26,16.19,3.29Z" style="fill:#373735"/><path d="M16.16,3.31c-.07,0,.07,0,.12,0C16.17,3.34,16.31,3.3,16.16,3.31Z" style="fill:#373735"/><path d="M16.24,5.91h0Z" style="fill:#373735"/><path d="M17,6.36l.07-.08c-.21.08-.15-.16-.27-.21h0c-.09-.23-.21-.56-.31-.89h.06s-.11,0-.1,0h.06c.19-.07-.11-.2,0-.25a.37.37,0,0,0-.16,0,2.4,2.4,0,0,0-.22-.8.27.27,0,0,1,.14,0c-.3-.23-.18-.46-.13-.69-.08,0-.09,0-.17,0s.19.13.05.2H16c-.05.05.19,0,.09.06s-.1,0-.1,0,0,.21.14.31c-.16,0,0,.11-.16.15.06,0,.05.05.16.06a5.24,5.24,0,0,0,.06,1.11c.32.2-.08.33.06.64h0a.53.53,0,0,1,.17.32h.16a.79.79,0,0,0,.66.68,1.85,1.85,0,0,0,.44,0A1.5,1.5,0,0,1,18,7c.56.08,1.05.31,1.6-.11,0,0,0,0,0,.06.15-.06.3,0,.44,0V7c.25-.14.47-.2.67-.34A.55.55,0,0,0,21,6a3.47,3.47,0,0,0,0-1.4H21c-.14-.36.2-.71.1-1.08A.71.71,0,0,0,21,2.94c-.13-.19-.29-.28-.37-.47s-.21-.21-.35-.16-.25.15-.37,0c-.45-.48-.89-.17-1.34.12-.41-.17-.84.25-1.22-.07-.07.13-.15.08-.29.06s-.31,0-.37.09l.07,0c-.25-.06.18.32-.15.19h0c-.19,0,.35.25.15.19l.08,0c0,.05-.1,0-.14,0s.15.05.1.06c-.36-.07.06.11-.34.07,0,0-.16.05-.24,0s0,.15.14.14a1.59,1.59,0,0,0,.49,0h0s.21,0,.29,0h0c-.15,0-.05,0,0,0l.07,0c.15,0-.27-.13,0,0a.15.15,0,0,1,.06-.19c-.06-.09.05,0-.07-.18.15.17.2.2.21.19s0,0,0,0c.12.27,0-.26.08.07,0-.25,0,.07,0-.22v.15a2.22,2.22,0,0,1,.39.11c.1-.22.24.09.32-.21.07.07.18.19.28.07v0a.34.34,0,0,0,.32-.22c0,.28.07.23.12.32.07-.13.22-.1.33-.22,0,.14.09,0,.1.14a.53.53,0,0,1,.5-.23c.08,0,.2,0,.24.09a.25.25,0,0,1,.05.19h0a1.67,1.67,0,0,1,.25-.41s0,0,0,0,0,.17,0,.16l0,.05c.08,0-.07.15.06.07l0,0,.06,0L20.33,3a.29.29,0,0,0,.07.12l.05.08.05.2a2.43,2.43,0,0,1,.12.8l-.06,0,.1.1H20.6c-.11.13.07.27,0,.4a.57.57,0,0,0-.13,0c.17.1-.23.16.13.2h-.12a1.23,1.23,0,0,1,0,.8c.33.24,0,.32.12.61l-.05,0a.3.3,0,0,1-.28.3c-.15,0-.27,0-.43,0s-.22,0-.34.06V6.46c-.21.31-.45-.27-.68.07l0-.11c0,.17-.14-.06-.13.23l0-.09c-.15.39-.28-.18-.46.07V6.56c0,.06-.11.1-.15,0s0,0,0,0c-.16-.28-.33,0-.5,0l0-.13c-.08.15-.23,0-.32.07l0-.06-.06.07,0-.12C17.26,6.37,17.12,6.43,17,6.36Z" style="fill:#373735"/><path d="M16.56,5.14Z" style="fill:#373735"/><path d="M17.2,3.1h0Z" style="fill:#373735"/><polygon points="18.5 1.37 18.53 1.41 18.61 1.31 18.5 1.37" style="fill:#373735"/><path d="M19.07,1.19s0-.05,0-.07a2.36,2.36,0,0,0-.36.26C18.82,1.55,19,1.06,19.07,1.19Z" style="fill:#373735"/><path d="M19.17,1.24c.11.08.19,0,.24-.07S19.17,1.08,19.17,1.24Z" style="fill:#373735"/><path d="M22.22,12.12a.43.43,0,0,0,0,0A0,0,0,0,0,22.22,12.12Z" style="fill:#373735"/><path d="M22.69,15.51l.11,0a11.12,11.12,0,0,1-.08-2l0,0c0-1.7-.15-3.26-.23-5,0,0,0,0,.06.06s-.11-.17-.1-.26.05,0,.06.06c.18-.36-.12-1.05,0-1.27,0-.1-.1-.15-.16-.09l-.08-2a3.43,3.43,0,0,0-.49-1.81c0-.06,0-.1.11-.11a6,6,0,0,0-2.48-1.92c-.06.07.08.11,0,.16.27.18.64,0,.84.3l-.07.05c.16.15.14-.14.28.06s-.07.06,0,.09c.4.23.68.61,1.07.86-.08.18.25.44.18.66.1.08.12.2.24.21a4.56,4.56,0,0,1,.18,1.22l0,1.41c0,.94.06,1.89.05,2.84.32.89-.06,2,.05,3h0a4.24,4.24,0,0,1,.07,1.25l.14.35a33.12,33.12,0,0,0-.16,3.74v.94a4.19,4.19,0,0,1-.09.86,3.56,3.56,0,0,1-.77,1.51,3.76,3.76,0,0,1-1.53,1.05,4.39,4.39,0,0,1-1.79.21,25.33,25.33,0,0,0-4,.25s0-.05,0-.06c-.8.06-1.53-.06-2.28,0v0c-1.87.26-3.9,0-5.7.25-.55,0-1.13,0-1.69,0a4.08,4.08,0,0,1-1.62-.5,4.16,4.16,0,0,1-2-2.72H.84a11.4,11.4,0,0,1,0-2.74A23.07,23.07,0,0,0,.87,13.7C1,11.79.51,9.77.7,7.85a5.68,5.68,0,0,0,0-2A3.28,3.28,0,0,1,.75,4,5.79,5.79,0,0,1,2.81,1.46,4.75,4.75,0,0,1,4.3.81C4.85.69,5.44.65,6,.57,8.13.74,10.25.3,12.3.65c1-.22,2,.28,3.13.21l0-.07c.39.23.87-.33,1.11,0h0c.2.18.48-.42.6-.21l0-.08c.24,0,0,.1.22.13s0-.16.18-.11c0,.36.61-.08.62.33-.13,0,.22.16-.09.24.09,0,.51,0,.47-.15s.2-.34-.06-.48l-.05.13c-.08-.13-.06-.07-.09-.17-.34,0-.38-.21-.62-.29a0,0,0,0,1,0,0c-.16.16-.38.06-.51,0L17.12.15c-.08-.16-.38.3-.28,0-.67.07-1.45.07-2.2.07-.11.1-.58,0-.41.18a1.57,1.57,0,0,0-1-.27s0,0,.05,0c-.4-.29-.48.26-.86-.09-.06.25-.69-.08-.9.22-.05-.06-.06-.11,0-.15-.69,0-1.44-.1-2-.11C9,.22,8.31-.1,7.89.2A3.58,3.58,0,0,0,6.48.13l0,0A4.38,4.38,0,0,0,4.91.32C4.75,0,4.45.09,4.17,0A5.59,5.59,0,0,0,2.44.86c-.16-.07-.4.33-.54.2A7.06,7.06,0,0,0,.47,3.53,6.55,6.55,0,0,0,.19,5c0,.44-.11.88-.18,1.3v0c.11.22.34.47.48.69,0,0,0,0,0,0,0,.31-.15.6-.12.91,0,0,0,0-.06-.06.08.29-.16.6,0,.94l0,0,.07.22c-.06,0-.16,0-.14-.13-.06,2.64.27,5.36.23,8.08l-.06-.1.1.52s0,0-.06,0a7,7,0,0,0,.14,2.07s-.11-.09-.13,0c.29.46,0,.91.49,1,0,0-.07.08-.12,0a5,5,0,0,0,3.5,2.48A11.18,11.18,0,0,1,6,22.75a8.21,8.21,0,0,0,1.79-.12v.07a40.81,40.81,0,0,1,4.7,0c.65,0,1.09-.05,1.75-.05v.08c1.11-.31,2.32.28,3.48-.06l-.08.11c.18-.17.69.06.63-.23l.2.09a2.78,2.78,0,0,1,1.1-.25,1.65,1.65,0,0,0,1.14-.5l0,.09a3,3,0,0,1,.57-.48s0,0,0,.09c.82-.35,1.1-1.38,1.27-2.17l.1.13a11.88,11.88,0,0,0,.06-1.72l.06,0-.08-.27h.12C22.81,16.84,22.7,16.19,22.69,15.51Z" style="fill:#373735"/><path d="M22.55,8.48Z" style="fill:#373735"/><path d="M17.6.14l.08,0S17.62.14,17.6.14Z" style="fill:#373735"/><polygon points="11.65 15.88 11.66 15.91 11.69 15.81 11.65 15.88" style="fill:#373735"/><path d="M11.85,15.64v-.07l-.11.3C11.79,16,11.81,15.53,11.85,15.64Z" style="fill:#373735"/><path d="M11.89,15.67c0,.06.06-.08.07-.13C12,15.65,11.87,15.52,11.89,15.67Z" style="fill:#373735"/><path d="M15.14,13.52v0Z" style="fill:#373735"/><path d="M15.06,12.43l-.11,0c.15.21-.1.35-.08.54l0,0a11.47,11.47,0,0,1-.56,1.27s0,0,0-.06.05.12,0,.13a.07.07,0,0,1,0-.06c-.2-.06-.14.29-.29.23a.19.19,0,0,0,.08.13,11.44,11.44,0,0,1-.95.81.22.22,0,0,1-.07-.12c-.22.4-.66.38-1,.36,0,.08,0,.08,0,.17.13.08.2-.22.32-.09v.07c.09,0,0-.19.08-.11s0,.1,0,.1.36,0,.45-.27c.09.15.18-.05.29.07,0-.07.07-.07,0-.18a3.13,3.13,0,0,0,1.4-1.07c-.07-.4.42-.43.5-.78h0a.56.56,0,0,1,.1-.38L15.16,13a2.88,2.88,0,0,0,.36-2.21,2.13,2.13,0,0,0-1.33-2s0,0,.06,0c-.22-.11-.34-.33-.57-.4l0,0C13.1,8.21,12.61,7.75,12,8a2.88,2.88,0,0,0-1.93.41l0-.06c-.4.33-1,.39-1.32.89-.49.38-.31,1.13-.6,1.56s.23.79-.07,1.08c-.44.7.13,1.39.71,1.71a1.21,1.21,0,0,0,.58.62,1.62,1.62,0,0,1,.63.57c.32-.09.41.49.75.51v-.08c.06.26.3-.27.31.08l0,0c0,.19.19-.4.2-.18l0-.09c.07,0,0,.1,0,.14s0-.16.06-.11c0,.36.17-.06.16.34,0,0,.06.16,0,.24s.16,0,.15-.15a1,1,0,0,0,0-.48v.13a.53.53,0,0,1,0-.16c-.09,0-.09-.22-.14-.3h0c0,.16-.09.06-.12,0v-.08c0-.16-.12.29-.07,0a1.09,1.09,0,0,1-.53-.05c-.05.09-.13,0-.15.14,0-.22-.08-.32-.13-.33s0,0,0,0c0-.3-.22.19-.15-.16-.13.21-.09-.15-.29.08a.76.76,0,0,1,.07-.13,2.48,2.48,0,0,1-.31-.36c-.23.09-.12-.25-.41-.11,0-.11,0-.28-.16-.3l0,0a.49.49,0,0,0-.4-.2c.23-.18.16-.2.22-.29-.16,0-.2-.19-.35-.28.12-.06-.09-.08.09-.15a.72.72,0,0,1-.06-1.18h0c-.1-.06-.32-.16-.45-.24s0,0,0,0,.18-.12.16-.21l.06,0c-.07-.09.18-.1.06-.22h0l0-.07c.06,0,.15.05.13.07.23-.54.36-1.3,1-1.69l0,.06,0-.16a.33.33,0,0,1,0,.06c.19,0,.25-.24.42-.29,0,0,0,.09.05.11,0-.21.26.14.18-.22a.21.21,0,0,1,0,.12,1.28,1.28,0,0,1,1-.26c.29-.33.61,0,1-.19v.06c.47-.12.8.29,1.16.48.13.12.27.14.41.26l0,.06c.45,0,.21.62.64.68l-.1,0c.17-.05,0,.19.29,0l-.05.09c.45,0,0,.43.33.58H15c.08.05.14.12.1.18s0,0-.06,0c-.21.27.13.43.14.68l-.13,0c.16.1,0,.31.08.46l-.06,0,.08.08H15C15,12.06,15.09,12.25,15.06,12.43Z" style="fill:#373735"/><path d="M14.24,14.19Z" style="fill:#373735"/><path d="M11.44,14.63l0,0S11.44,14.64,11.44,14.63Z" style="fill:#373735"/><polygon points="11.64 7.43 11.65 7.47 11.68 7.36 11.64 7.43" style="fill:#373735"/><path d="M11.86,7.21V7.14l-.15.29C11.76,7.6,11.83,7.09,11.86,7.21Z" style="fill:#373735"/><path d="M11.9,7.24c0,.07.07-.06.09-.11C12,7.24,11.9,7.09,11.9,7.24Z" style="fill:#373735"/><path d="M15.5,9.52h0Z" style="fill:#373735"/><path d="M16.37,10.51l.11,0c-.24-.18-.13-.5-.31-.71h0A3.26,3.26,0,0,0,15,8.33l.05,0c-.05,0-.12,0-.14,0a.07.07,0,0,1,.06,0c0-.23-.36-.18-.32-.34s-.11,0-.13.1a2.72,2.72,0,0,0-1.34-.54.21.21,0,0,1,0-.14A2.26,2.26,0,0,1,12,7.2c0,.07,0,.08,0,.16s.25-.16.34,0l0,.07c.08.07.06-.18.12-.07s0,.09,0,.1c.18,0,.33.12.55,0,0,.17.18.07.18.24.07,0,.1,0,.16-.1A6,6,0,0,1,14.9,8.68c.46,0,.38.57.63.83h0a.53.53,0,0,1,.26.36l.17.07a6.61,6.61,0,0,1,0,2.62A23.44,23.44,0,0,1,14.63,15s0,0,0,0c-.16.24-.44.3-.62.49l0,0c-.44.58-1.24.55-1.83.9A5.75,5.75,0,0,1,9.6,16l0-.06c-.7-.2-1-.88-1.51-1.32C7.81,14,7,13.56,7,12.77c.2-.46-.51-1-.16-1.44a7.18,7.18,0,0,0,.72-2.48c.3-.29.5-.64.78-.94a1.54,1.54,0,0,1,1-.61c.24-.38.82-.07,1.16-.23l0-.07c.18.2.24-.4.4-.07V7c.1.16.11-.44.19-.24V6.62c.09,0,0,.1.1.13s0-.16.06-.12c0,.36.23-.1.26.31,0,0,.08.15,0,.24s.17,0,.15-.15.07-.35,0-.48v.13a1,1,0,0,1,0-.17c-.13,0-.16-.2-.26-.27h0c-.05.17-.15.08-.21.07l0-.08C11,6.1,11,6.57,11,6.3c-.26.1-.57.17-.87.27,0,.11-.22.07-.09.23a.38.38,0,0,0-.47-.1s0,0,0,0c-.28-.19-.07.32-.36.08.09.23-.3.08-.23.38A.47.47,0,0,1,8.85,7a6.47,6.47,0,0,0-.75.42c0,.29-.45.28-.35.62-.14.06-.4.18-.42.41l0,0c-.12.2-.27.45-.17.68-.29-.08-.29,0-.41.09,0,.2-.11.47-.07.74-.14,0,0,.2-.2.15a4.64,4.64,0,0,1-.22,2.2h0a3.13,3.13,0,0,0,.52.21s0,0,0,0-.11.26-.05.38H6.58c.1.09-.09.28.09.37l0,0,.09.07c-.06,0-.15,0-.15,0a5.23,5.23,0,0,0,2.07,2.52l-.06,0,.23,0s0,0-.05,0c.16.25.5.24.72.37,0,0-.08.07-.06.12.25-.08.2.34.43,0a.18.18,0,0,1,0,.11l1.62.31c.46-.3,1-.07,1.37-.44v.06c.5-.36,1.14-.38,1.63-.78.22-.12.3-.29.48-.46l.06.06c.08-.5.84-.49.8-1.07l.08.08c-.11-.14.19-.2-.08-.32l.11,0c-.21-.42.41-.41.29-.85l.06.05c0-.11,0-.23,0-.28s0,0,0,0c.35-.23.12-.64.15-.95l.12,0c-.13-.17,0-.45-.07-.66h.06l-.09-.09.12,0A2.72,2.72,0,0,0,16.37,10.51Z" style="fill:#373735"/><path d="M15,8.28Z" style="fill:#373735"/><path d="M11.26,6.22l0,0S11.27,6.22,11.26,6.22Z" style="fill:#373735"/></svg>