<svg id="eea9f43c-3426-4b86-bcae-2300b8c926ee" data-name="Calque 1" xmlns="http://www.w3.org/2000/svg" viewBox="0 0 20.87 21"><g id="b5dbb3c8-c9e6-42f0-84a4-583f6a18c153" data-name="js"><path d="M18.54.71H2.82A2.14,2.14,0,0,0,.68,2.85V18.56a2.14,2.14,0,0,0,2.14,2.15H18.54a2.14,2.14,0,0,0,2.14-2.15V2.85A2.14,2.14,0,0,0,18.54.71Zm-7,15.59a2.55,2.55,0,0,1-2.8,2.84,2.91,2.91,0,0,1-2.82-1.72l1.53-.92c.29.52.56,1,1.21,1s1-.24,1-1.18V9.89h1.87V16.3ZM16,19.14a3.61,3.61,0,0,1-3.42-1.92l1.53-.88A2.06,2.06,0,0,0,16,17.48c.78,0,1.28-.39,1.28-.93s-.51-.87-1.37-1.25l-.47-.2c-1.36-.58-2.26-1.3-2.26-2.84A2.51,2.51,0,0,1,15.9,9.78a2.76,2.76,0,0,1,2.67,1.51l-1.46.93a1.28,1.28,0,0,0-1.21-.8.82.82,0,0,0-.9.8c0,.57.35.79,1.16,1.15l.47.2c1.6.68,2.49,1.38,2.49,2.95S17.79,19.14,16,19.14Z" style="fill:#f5d28a"/><path d="M18.54.71H2.82A2.14,2.14,0,0,0,.68,2.85V18.56a2.14,2.14,0,0,0,2.14,2.15H18.54a2.14,2.14,0,0,0,2.14-2.15V2.85A2.14,2.14,0,0,0,18.54.71Zm-7,15.59a2.55,2.55,0,0,1-2.8,2.84,2.91,2.91,0,0,1-2.82-1.72l1.53-.92c.29.52.56,1,1.21,1s1-.24,1-1.18V9.89h1.87V16.3ZM16,19.14a3.61,3.61,0,0,1-3.42-1.92l1.53-.88A2.06,2.06,0,0,0,16,17.48c.78,0,1.28-.39,1.28-.93s-.51-.87-1.37-1.25l-.47-.2c-1.36-.58-2.26-1.3-2.26-2.84A2.51,2.51,0,0,1,15.9,9.78a2.76,2.76,0,0,1,2.67,1.51l-1.46.93a1.28,1.28,0,0,0-1.21-.8.82.82,0,0,0-.9.8c0,.57.35.79,1.16,1.15l.47.2c1.6.68,2.49,1.38,2.49,2.95S17.79,19.14,16,19.14Z" style="fill:none"/><polygon points="16.01 19.14 16.01 19.81 16.01 19.81 16.01 19.81 16.01 19.81 16.02 19.82 16.02 19.83 16.03 19.84 16.09 19.74 16.05 19.77 16.03 19.79 16.02 19.8 16.02 19.8 16.01 19.81 16.01 19.81 16.01 19.81 16.01 19.81 16.01 19.14" style="fill:#373735"/><path d="M16.36,19.57s0-.05,0-.07l-.2.3C16.25,20,16.29,19.46,16.36,19.57Z" style="fill:#373735"/><path d="M16.42,19.59c.08.06.1-.08.12-.13C16.52,19.57,16.39,19.44,16.42,19.59Z" style="fill:#373735"/><path d="M18.62,14.3h0S18.63,14.29,18.62,14.3Z" style="fill:#373735"/><path d="M16.92,13.78l-.06.09c.36,0,.58.29.89.38l0,0a3,3,0,0,1,1.47,1.8l-.06,0s.12.07.11.12-.05,0-.06,0c-.16.18.13.51,0,.62a.11.11,0,0,0,.15.06,3,3,0,0,1-.87,2c-.05,0-.08,0-.11-.09a1.89,1.89,0,0,1-1.72.77c0,.08.07.07,0,.16.22.07.34-.24.56-.15v.08c.15,0,0-.19.14-.13s0,.09,0,.09c.28-.11.62-.17.78-.48.15.11.28-.17.47-.11,0-.1.09-.15,0-.25a2.26,2.26,0,0,0,.85-1.39,4.19,4.19,0,0,0,0-1.58,1.77,1.77,0,0,1-.37-.72,1.39,1.39,0,0,0-.49-.72,0,0,0,0,1,0,0,2.08,2.08,0,0,1-.58-.36l-.22,0a5.25,5.25,0,0,0-1.6-1,2.76,2.76,0,0,1-.71-.39.34.34,0,0,1-.13-.22.52.52,0,0,1,0-.28c.08-.22.32-.27.63-.21a.79.79,0,0,1,.33.17.49.49,0,0,1,.09.1,1.46,1.46,0,0,1,.17.24l.31.51c.3-.19.62-.44.9-.65A3.59,3.59,0,0,0,18.1,12l.32-.32s0,0,0,.06l.32-.24.16-.11s.07,0,.08-.06L19,11.28a2.33,2.33,0,0,0-.44-.65l0,0a5.43,5.43,0,0,0-.68-.51,3.78,3.78,0,0,0-.69-.36,2.19,2.19,0,0,0-1.45-.05,2.76,2.76,0,0,0-1.64.53,2.25,2.25,0,0,0-.89,1.49h-.06a8,8,0,0,0,0,1.38,1.88,1.88,0,0,0,.67,1.25c.67.84,1.87.65,2.62,1.24.19.27.51.32.74.58s.27.76-.06.89a2.87,2.87,0,0,1-1.51.19,2.28,2.28,0,0,1-.75-.18,3.38,3.38,0,0,1-.67-.41l-.07-.14a1.79,1.79,0,0,0-.55.28l-.51.37c0,.06-.17.09-.17.16l.13.22.28.55c.45.14.62.84,1.2,1V19c.12.29.5-.2.53.16l0,0c.07.2.3-.38.32-.16l0-.08c.12,0,0,.1.09.15s0-.16.1-.11c0,.37.29-.05.28.35-.07,0,.11.16-.06.24.05,0,.27,0,.25-.14s.1-.34,0-.49l0,.13c0-.13,0-.06,0-.16-.16,0-.17-.21-.27-.31a0,0,0,0,1,0,0c-.08.15-.17,0-.23,0v-.08c0-.16-.21.27-.12,0a2,2,0,0,1-.92-.21c-.09.07-.22-.12-.24.08a.5.5,0,0,0-.21-.44s0,0,0,0c0-.32-.33.09-.21-.28-.18.18-.16-.28-.38-.09a1,1,0,0,1,.13-.09c0-.05.06-.08.09-.06s-.06-.06,0-.05a.25.25,0,0,0,.1-.07.29.29,0,0,0,.09-.2c.22-.05.14.14.21,0v.05h0c.05,0,0,0,.34.06-.13.27,0,.34.1.5.26,0,.7.3,1.07.23,0,.15.28,0,.28.18a4.3,4.3,0,0,0,1.5-.64,1.47,1.47,0,0,0,.5-.86,1.54,1.54,0,0,0-.17-1h0a1.13,1.13,0,0,0-.66,0s0,0,0,0c-.16-.07-.2-.31-.36-.35,0,0,0,0,.05-.05-.17,0-.21-.27-.43-.2v-.05l-.13,0c0-.06.07-.15.12-.1-.61-.3-1.2-.45-1.71-.74a1.81,1.81,0,0,1-1-1.32l.07,0-.14-.21.07,0c.07-.3-.1-.6,0-.88,0,0,.08.06.12,0-.12-.25.3-.22,0-.45a.2.2,0,0,1,.11.06A1.53,1.53,0,0,1,15,10.3c.4-.47,1-.22,1.59-.39V10a1.39,1.39,0,0,1,1,.3,3,3,0,0,1,.4.39l.3.39c.24.25,0,.32-.23.5L18,11.5a.7.7,0,0,1-.43.35c-.17.05-.32.13-.42.1a.36.36,0,0,0-.29-.22l.1-.06c-.14.09-.24-.29-.38,0l0-.13a.7.7,0,0,1-.56,0,.42.42,0,0,0-.57.1v-.08c-.09.11-.16.23-.26.27s0,0,0-.06a.49.49,0,0,0-.26.62,1.09,1.09,0,0,0,.38.57l-.13,0c.25.06.5.35.78.4l0,.05.16,0-.05.11C16.27,13.63,16.61,13.65,16.92,13.78Z" style="fill:#373735"/><path d="M19.17,16.15h0S19.16,16.14,19.17,16.15Z" style="fill:#373735"/><path d="M15.62,18.56l0,0S15.63,18.56,15.62,18.56Z" style="fill:#373735"/><polygon points="11.56 16.3 12.23 16.3 12.23 16.3 12.24 16.3 12.24 16.3 12.24 16.3 12.25 16.3 12.27 16.29 12.17 16.26 12.2 16.28 12.22 16.29 12.22 16.3 12.23 16.3 12.23 16.3 12.23 16.3 12.23 16.3 12.23 16.3 11.56 16.3" style="fill:#373735"/><path d="M12,16.08h-.07l.3.13C12.4,16.16,11.89,16.12,12,16.08Z" style="fill:#373735"/><path d="M12,16c.07,0-.07-.07-.11-.08S11.88,16.05,12,16Z" style="fill:#373735"/><path d="M12,11.52v0S12,11.53,12,11.52Z" style="fill:#373735"/><path d="M11.49,10.37l-.11,0c.2.11,0,.41.08.63h0a8.46,8.46,0,0,0,.23,1.72l-.06,0s.11.06.1.09,0,0-.06,0c-.18.12.12.36,0,.44a.16.16,0,0,0,.16,0A6.91,6.91,0,0,0,12,14.67a.16.16,0,0,1-.14,0A1.57,1.57,0,0,1,12,15.92c.08,0,.08,0,.16,0,.1-.13-.19-.24-.05-.36h.08c.05-.08-.19,0-.09-.1s.09,0,.1,0c0-.18,0-.38-.15-.55.16,0,0-.2.16-.27-.06,0,0-.09-.15-.11.08-.64-.08-1.3-.06-2-.32-.31.06-.68-.05-1.05h0a.54.54,0,0,1-.07-.43L11.75,11a4.94,4.94,0,0,0,.16-1.43H10.42l-.58,0-.57,0-.07,1c0,.32,0,.44,0,.67a3.06,3.06,0,0,0,.24,1.23s-.05,0-.06,0c.06.28,0,.54,0,.8h0c.27.65,0,1.35.25,2,0,.38,0,.79,0,1.2a1,1,0,0,1-.4,1l0-.06a.83.83,0,0,1-.86,0A1.28,1.28,0,0,1,8,17l-.33-.47a2.59,2.59,0,0,0-.14-.29,3.64,3.64,0,0,0-.86.68,1.89,1.89,0,0,1-.77.51c-.12.15.16.45.37.58s.41.23.46.47a1.15,1.15,0,0,0,1,.76A2.32,2.32,0,0,0,9,19a1.53,1.53,0,0,0,1-.23,6.39,6.39,0,0,1,.9-.5c0-.35.64-.43.7-.87H11.5c.28-.08-.25-.36.11-.38v0c.2-.05-.39-.23-.17-.24l-.09,0c0-.08.1,0,.14-.06s-.16,0-.1-.07c.36,0-.07-.21.33-.2,0,0,.16-.08.25,0,0,0,0-.19-.15-.18s-.34-.06-.48,0l.13,0-.17,0c0,.11-.21.12-.29.18h0c.16.07.06.13,0,.16H11c-.15,0,.29.15,0,.09a1.28,1.28,0,0,1-.09.64c.08.07-.08.15.12.19a.34.34,0,0,0-.37.11s0,0,0,0c-.29-.08.14.26-.2.12.17.18-.16.07,0,.32a.57.57,0,0,1-.11-.11c-.13.12-.35.13-.47.18,0,.26-.32,0-.36.33-.12,0-.29-.14-.42,0v0a.69.69,0,0,0-.5.23c0-.29-.1-.23-.16-.34-.12.13-.33.06-.52.13,0-.13-.14,0-.09-.17a.69.69,0,0,1-.74-.14,1,1,0,0,1-.24-.33c-.07-.15,0-.2,0-.23h0a1.17,1.17,0,0,1-.57,0h.06c-.09-.07.13-.09.07-.14l.09,0c-.09-.06.24,0,.1-.06l.05,0,0-.05.12.09.07,0,.29-.2c.07-.07.11-.15.2-.23a1.42,1.42,0,0,1,.25.2,1.52,1.52,0,0,0,.74.45l-.06.05a1.1,1.1,0,0,0,.26-.06.16.16,0,0,1,0,.06c.3.13.56-.06.86-.16,0,0,0,.1.05.11.12-.24.51-.1.32-.43a.15.15,0,0,1,.1.08,5.81,5.81,0,0,0,.24-1.63c-.33-.4,0-.83-.3-1.24h.07c-.23-.53,0-1.09,0-1.63a3.15,3.15,0,0,0-.06-.61h.09c-.31-.38.27-.8-.07-1.2l.11,0c-.17-.07.06-.25-.23-.22l.09-.07c-.19-.13-.15-.27-.09-.41a.38.38,0,0,0,0-.45l.07.08a.49.49,0,0,1-.06-.17.2.2,0,0,1,.16,0s0,0,0,0c.24.13.31.13.42.09a1,1,0,0,1,.42-.11l0,.13c.16-.15.37,0,.54-.08l0,.06.13-.09-.08.13.21,0A1.22,1.22,0,0,1,11.49,10.37Z" style="fill:#373735"/><path d="M11.63,12.79Z" style="fill:#373735"/><path d="M11,16.58s0,0,0,0S11,16.57,11,16.58Z" style="fill:#373735"/><polygon points="18.54 1.38 18.56 1.42 18.63 1.31 18.54 1.38" style="fill:#373735"/><path d="M19,1.21s0,0,0-.07a2,2,0,0,0-.33.24C18.77,1.56,19,1.08,19,1.21Z" style="fill:#373735"/><path d="M19.09,1.27c.08.1.17,0,.22,0S19.12,1.12,19.09,1.27Z" style="fill:#373735"/><path d="M20.28,12.53a.06.06,0,0,0,0,0S20.27,12.52,20.28,12.53Z" style="fill:#373735"/><path d="M20.75,15.75l.12,0a11,11,0,0,1-.09-1.91l0,0c.05-1.61-.14-3.09-.22-4.69,0,0,0,0,0,.06s-.11-.16-.1-.25.05,0,.07.05c.18-.34-.12-1,0-1.2,0-.1-.1-.14-.15-.08,0-1.25-.09-2.59-.23-3.87a.1.1,0,0,1,.14-.05c-.17-.54-.14-1.15-.27-1.52a1.83,1.83,0,0,0-.78-1c-.06.06,0,.12-.07.15.16.2.52.14.57.44l-.08,0c.06.16.18-.08.2.13s-.09,0-.08.06c.21.34.15.64.32,1.17-.16.12,0,.54-.16.73.07.13.05.26.16.31-.09,1.75.07,3.55.06,5.35.32.84-.06,1.85,0,2.85h0a3.85,3.85,0,0,1,.08,1.19l.13.33a29.93,29.93,0,0,0-.16,3.55v.89a2,2,0,0,1-.13.74,1.69,1.69,0,0,1-1.06,1,2.09,2.09,0,0,1-.85.08l-1,0-1.91-.06a22.6,22.6,0,0,0-3.82.24s0-.05.05-.06c-.76.06-1.45-.05-2.17,0v0c-1.77.26-3.69,0-5.4.24-.52,0-1.08,0-1.59,0a2.07,2.07,0,0,1-1.32-.8,2.44,2.44,0,0,1-.42-1.55L.7,16.54H.77c-.14-1.76.2-3.47.1-5.23C1,9.5.51,7.59.7,5.76a5.07,5.07,0,0,0,0-1.86A7.86,7.86,0,0,1,.58,3,1.28,1.28,0,0,1,.8,2.1,2.54,2.54,0,0,1,2,1.12,3.93,3.93,0,0,1,3.46.92C4.53.87,5.6.72,6.69.57c2,.17,4-.27,6,.08.92-.22,1.94.28,3,.22l0-.08c.37.24.82-.33,1.05,0l0,0c.2.17.46-.42.58-.21l0-.09c.23,0,0,.1.21.13s0-.16.17-.1c0,.36.58-.08.59.32-.13,0,.2.16-.09.24.09,0,.48,0,.45-.15s.19-.34-.05-.48l0,.13c-.08-.13-.06-.06-.09-.16C18,.44,18,.25,17.76.17h0c-.16.16-.37.07-.49,0L17.23.15c-.08-.16-.36.3-.26,0-.64.06-1.38.06-2.09.06-.1.1-.55,0-.39.19a1.37,1.37,0,0,0-.91-.27s0-.05.05,0c-.39-.29-.46.27-.82-.08-.05.24-.65-.08-.85.21,0-.06-.06-.11,0-.15C11.27.1,10.56,0,10,0,9.54.22,8.88-.1,8.48.21A3.07,3.07,0,0,0,7.14.14l.05,0A4.21,4.21,0,0,0,5.65.32C5.5,0,5.27.09,5,0,4.69.13,4,.09,3.45.22,3.37.08,3,.27,3,.08A3.3,3.3,0,0,0,.6,1.61,3.09,3.09,0,0,0,.19,3c0,.42-.11.84-.18,1.24v0c.11.21.34.45.48.66,0,0,0,0,0,0,0,.3-.15.57-.12.86,0,0,0,0-.06-.05.08.27-.16.57,0,.89l0,0,.07.2c-.06,0-.16,0-.14-.12-.06,2.5.27,5.09.23,7.66l-.06-.09.1.5s0,0-.06-.05a13.5,13.5,0,0,0,0,1.91s-.1-.1-.13,0c.17.46-.23.74.13,1,0,0-.09,0-.12,0,0,.32,0,.64.06,1a2.7,2.7,0,0,0,.25,1.07A2.6,2.6,0,0,0,2.22,21c.67,0,1.17-.12,1.76-.09a7.41,7.41,0,0,0,1.7-.12v.06a36.64,36.64,0,0,1,4.45,0c.62,0,1-.05,1.66-.05l0,.08c1-.31,2.2.28,3.29-.07L15,20.9c.17-.18.66.06.59-.24l.2.09c.74-.39,1.35.18,2.26-.07l-.06.07a1.55,1.55,0,0,1,.7,0s0,0-.07.05a1.32,1.32,0,0,0,1.19-.31,2.92,2.92,0,0,0,.71-1l.08.14c0-.22.11-.48.14-.79a4,4,0,0,0,0-.85l.06,0-.09-.26h.13C20.88,17,20.77,16.39,20.75,15.75Z" style="fill:#373735"/><path d="M20.62,9.08h0S20.62,9.1,20.62,9.08Z" style="fill:#373735"/><path d="M17.68.14l.08,0S17.71.15,17.68.14Z" style="fill:#373735"/></g></svg>