<svg id="bd23bd6a-be2b-4da6-9b57-5a0c6079f8fb" data-name="Calque 1" xmlns="http://www.w3.org/2000/svg" viewBox="0 0 20.88 20.98"><path d="M19.28.71H2.09A1.41,1.41,0,0,0,.68,2.12V19.29a1.42,1.42,0,0,0,1.41,1.42H19.28a1.42,1.42,0,0,0,1.41-1.42V2.12A1.41,1.41,0,0,0,19.28.71ZM6.73,17.88h-3V8.31h3v9.57ZM5.25,7A1.73,1.73,0,1,1,7,5.29H7A1.72,1.72,0,0,1,5.25,7ZM17.87,17.88h-3V13.23c0-1.12,0-2.54-1.54-2.54s-1.8,1.21-1.8,2.45v4.74h-3V8.31h2.82V9.63h0a3.13,3.13,0,0,1,2.83-1.55c3,0,3.56,2,3.56,4.56Z" style="fill:#3666ae"/><path d="M19.28.71H2.09A1.41,1.41,0,0,0,.68,2.12V19.29a1.42,1.42,0,0,0,1.41,1.42H19.28a1.42,1.42,0,0,0,1.41-1.42V2.12A1.41,1.41,0,0,0,19.28.71ZM6.73,17.88h-3V8.31h3v9.57ZM5.25,7A1.73,1.73,0,1,1,7,5.29H7A1.72,1.72,0,0,1,5.25,7ZM17.87,17.88h-3V13.23c0-1.12,0-2.54-1.54-2.54s-1.8,1.21-1.8,2.45v4.74h-3V8.31h2.82V9.63h0a3.13,3.13,0,0,1,2.83-1.55c3,0,3.56,2,3.56,4.56Z" style="fill:none"/><polygon points="18.54 17.87 18.57 17.85 18.47 17.79 18.54 17.87" style="fill:#373735"/><path d="M18.3,17.46l-.07,0,.3.24C18.7,17.61,18.19,17.53,18.3,17.46Z" style="fill:#373735"/><path d="M18.33,17.39c.07-.09-.07-.13-.12-.15C18.32,17.27,18.18,17.41,18.33,17.39Z" style="fill:#373735"/><path d="M17.38,9l0,0A0,0,0,0,0,17.38,9Z" style="fill:#373735"/><path d="M15.23,8.25l0,.1c.43-.11.8.22,1.17.37h-.05a4.06,4.06,0,0,1,1.52,2.6l-.06,0s.12.1.12.16-.06,0-.07,0c-.15.24.16.66,0,.81a.1.1,0,0,0,.15,0,23.12,23.12,0,0,0,.26,2.6.14.14,0,0,1-.14,0,5,5,0,0,1,.15,2.24c.08,0,.09-.08.17,0,.09-.25-.2-.44-.06-.66l.08,0c0-.16-.19,0-.1-.2s.1,0,.1,0a2.3,2.3,0,0,0-.15-1c.16-.08,0-.36.15-.49-.06-.09-.05-.17-.16-.21A21.8,21.8,0,0,0,18.11,11c-.4-.51-.2-1.33-.76-1.93l0,0c-.21-.16-.48-.39-.7-.59a1.23,1.23,0,0,0-.27,0A3.58,3.58,0,0,0,14,7.74a3.75,3.75,0,0,0-2.4,1,3.66,3.66,0,0,0-.54.65l.79.22,0-.71,0-1.11-1.2,0H10l-.71.06c-.37,0-.75.06-1.05.11l.06.46s-.05,0-.06-.09a7.91,7.91,0,0,1,0,1,3.47,3.47,0,0,0,0,.72h0c.26,1.19,0,2.48.24,3.63,0,1.34,0,2.78.07,4.26h.25L8.76,18a6.92,6.92,0,0,1,1.44,0l.68.06.88,0c0-.31,0-.68,0-1,.14-1.22-.36-2.5-.17-3.73a3.23,3.23,0,0,0,.06-1.25c0-.42.14-1,.54-1.07a2.18,2.18,0,0,1,1-.16,2.34,2.34,0,0,1,.91.19,2.58,2.58,0,0,1,.92,1.8c-.17,1.36.27,2.7-.08,4a1.6,1.6,0,0,1,0,1,2.65,2.65,0,0,0,1,.16l0-.08c.25.24.55-.33.71,0l0,0c.13.18.3-.42.38-.21l0-.09c.16,0,0,.1.15.14s0-.16.11-.11c0,.36.39-.08.4.32-.09,0,.14.16-.06.25.06,0,.32,0,.3-.15s.12-.35,0-.49l0,.14c-.05-.14,0-.07-.06-.17-.21,0-.24-.21-.39-.29h0c-.1.16-.25.07-.33,0l0-.08c0-.15-.24.3-.18,0-.21,0-.44.05-.68.06h-.59c-.06.1-.14,0-.22.18a1.88,1.88,0,0,0,0-.2.43.43,0,0,0,.07-.15l0,0c.29-.15-.26.08.09-.24-.25,0,.08-.43-.21-.57a.21.21,0,0,1,.15,0c0-.43.09-.91.1-1.28-.21-.31.1-.76-.2-1a1.48,1.48,0,0,0,.07-.9l0,0a1.9,1.9,0,0,0-.27-1.07c.27-.15.19-.32.23-.53s-.19-.34-.34-.57a1.39,1.39,0,0,0-.63-.55c0-.17-.39-.14-.35-.32a4.1,4.1,0,0,0-1,.08,2.94,2.94,0,0,0-1,.34A3,3,0,0,0,11,12.29v0a2.64,2.64,0,0,0,.43.52,0,0,0,0,1,0,0c0,.21-.16.4-.13.59,0,0,0,0-.06,0,.09.18-.15.38,0,.59l-.05,0,.07.13c-.07,0-.16,0-.14-.08a17.83,17.83,0,0,0,.05,1.93l.08,1,0,.24,0,.13,0,.25-.31,0h-.59l.06-.06-.33.11a.06.06,0,0,1,0-.06,1.77,1.77,0,0,0-.65,0l-.23,0a.37.37,0,0,1-.18,0s.09-.09.09-.12a.14.14,0,0,1-.12,0c0-.13.19-.22-.09-.17a.2.2,0,0,1,.13,0,.7.7,0,0,1,0-.17l0-.32c0-.22,0-.44,0-.65,0-.44,0-.87,0-1.3-.33-.72,0-1.53-.29-2.27h.06a16.56,16.56,0,0,1,0-3,3.37,3.37,0,0,0,0-.56c0-.15,0-.32,0-.51l.08.06a1.09,1.09,0,0,1-.05-.17c.51-.18,1.31.31,2,0l-.06.11c.15-.17.34.06.42-.23l.09.09a.9.9,0,0,1,.39-.13,2,2,0,0,1-.08.66,1,1,0,0,0,0,.66l-.07,0,0,.12v0a.48.48,0,0,1,.2-.3s0,0,0,.07c.49-.22.69-.78,1.2-1v.15c.17-.26.66-.26,1-.35v.06l.16-.1v.12A8.83,8.83,0,0,1,15.23,8.25Z" style="fill:#373735"/><path d="M17.82,11.43h0S17.81,11.42,17.82,11.43Z" style="fill:#373735"/><path d="M17.29,17.31l.06,0S17.31,17.32,17.29,17.31Z" style="fill:#373735"/><polygon points="5.25 7.68 5.25 7.72 5.27 7.61 5.25 7.68" style="fill:#373735"/><path d="M5.36,7.44V7.37l-.06.3C5.33,7.84,5.33,7.33,5.36,7.44Z" style="fill:#373735"/><path d="M5.38,7.47c0,.07,0-.07,0-.12C5.41,7.46,5.36,7.32,5.38,7.47Z" style="fill:#373735"/><path d="M7.11,6.3h0Z" style="fill:#373735"/><path d="M6.85,5.66l-.11,0c.18.12,0,.15,0,.26l0,0c-.11.17-.06.43-.16.66l0,0s.06.09,0,.1l0,0c-.16-.1,0,.18-.15.1a.36.36,0,0,0,.09.12c-.13.17-.29.3-.45.52a.44.44,0,0,1,0-.13c-.07.35-.34.29-.53.25,0,.08,0,.09,0,.17s.1-.21.18-.07v.07s0-.19,0-.1,0,.1,0,.1.2,0,.23-.21c.07.15.09,0,.18.11,0-.07,0-.07,0-.17.34,0,.52-.38.73-.6-.14-.3.25-.21.25-.43l0,0c0-.09,0-.18,0-.22L7,6c.4-.28.25-.75.28-1.14s-.11-1.06-.74-1c0,0,0,0,0,0s-.16-.2-.3-.21l0,0c-.36.07-.58-.3-.9,0a1.14,1.14,0,0,0-.93.24l0-.06c-.16.22-.57.12-.69.41-.32.16,0,.65-.22.81s.29.4,0,.52c-.47.37,0,.75.39.79,0,.16.15.23.28.27a.36.36,0,0,1,.26.32c.2-.16.14.37.33.35V7c0,.25.18-.3.15,0H5c0,.19.13-.4.11-.19l0-.09s0,.1,0,.14,0-.16,0-.11c0,.36.08-.07.07.33,0,0,0,.16,0,.24s.08,0,.08-.14a2.6,2.6,0,0,0,0-.49v0s0-.21,0-.29h0c0,.16,0,.06,0,0V6.45c0-.16-.07.29,0,0-.07.06-.15,0-.22,0s0,0-.1.16c.05-.22,0-.28,0-.29v0c.09-.27-.15.22,0-.11-.12.22,0-.09-.17.15,0,0,0-.09.07-.13s0-.15-.07-.18c-.18.13,0-.14-.24,0,0-.07.09-.18,0-.14l0,0s-.09-.07-.27,0a1.14,1.14,0,0,0,.26-.2c-.14,0-.13,0-.26-.06.12,0-.07,0,.12-.08-.41,0-.31-.34,0-.44h0c-.1,0-.33-.09-.46-.14h0S4,5,3.93,5L4,5c-.07,0,.16,0,0-.09h.05L4,4.87l.13,0c.11-.17,0-.6.29-.76l0,.06,0-.13s0,0,0,.06S4.56,4,4.64,4s0,.09.06.12c0-.19.15.18,0-.17l0,.12a.3.3,0,0,1,.4-.13c.13-.34.26,0,.44-.25l0,.06c.26-.17.38.14.55.21s.14,0,.21.1l-.06.06c.34-.11,0,.38.33.29l-.1,0c.16-.07,0,.11.24,0l-.06.07c.4-.08-.08.24.19.26l-.07,0c.07,0,.12,0,.06.08H6.85c-.24.17.08.2.08.33H6.8c.15,0,0,.15.08.21H6.82l.08,0H6.78C6.76,5.48,6.86,5.57,6.85,5.66Z" style="fill:#373735"/><path d="M6.52,6.55Z" style="fill:#373735"/><path d="M5.16,6.44v0S5.17,6.45,5.16,6.44Z" style="fill:#373735"/><polygon points="6.73 18.55 6.74 18.59 6.74 18.58 6.74 18.58 7.44 17.88 7.44 17.88 7.44 17.88 7.42 17.87 7.4 17.87 7.35 17.85 7.39 17.88 6.74 18.53 6.73 18.55" style="fill:#373735"/><path d="M7.18,17.69H7.11l.3.12C7.58,17.77,7.07,17.73,7.18,17.69Z" style="fill:#373735"/><path d="M7.21,17.66c.07-.05-.07-.07-.12-.08C7.2,17.6,7.06,17.67,7.21,17.66Z" style="fill:#373735"/><path d="M7.14,13.6v0S7.15,13.6,7.14,13.6Z" style="fill:#373735"/><path d="M6.67,12.54H6.56c.2.2,0,.42.08.63h0a6.75,6.75,0,0,0,.23,1.54l-.06,0s.11.06.1.08a.06.06,0,0,1-.06,0c-.18.11.12.32,0,.39a.16.16,0,0,0,.16,0,5.76,5.76,0,0,0,.23,1.27.28.28,0,0,1-.14,0,1.27,1.27,0,0,1,.13,1.1c.08,0,.08,0,.16,0,.1-.12-.19-.22-.05-.33l.08,0c.05-.08-.19,0-.1-.1s.1,0,.11,0c0-.17,0-.34-.15-.5.16,0,0-.18.16-.24-.06,0,0-.08-.15-.1a17.35,17.35,0,0,0-.06-1.76c-.32-.28.06-.61,0-.94h0a.45.45,0,0,1-.07-.39l-.14-.11a11.5,11.5,0,0,0,.2-2.34A5.92,5.92,0,0,0,7.06,8L6.9,8S6.94,8,7,8a2.34,2.34,0,0,1-.53,0A1.85,1.85,0,0,0,6,8V8c-.61.26-1.18,0-1.82.25h-.5a13.7,13.7,0,0,0,.09,1.87H3.68c.13.58-.2,1.14-.1,1.72-.15.59.36,1.22.17,1.82-.31.38.35.86,0,1.21-.48.72-.17,1.42.12,2.13a1.67,1.67,0,0,0,0,.78,1.19,1.19,0,0,1,.89.1c.3-.23.64.28,1,.21V18c.12.24.27-.33.35,0l0,0c.07.18.15-.42.19-.21V17.7c.08,0,0,.1.07.14s0-.16.06-.11c0,.36.19-.08.19.32,0,0,.07.16,0,.25s.16,0,.15-.15.06-.35,0-.49v.14a.75.75,0,0,1,0-.17c-.11,0-.12-.21-.19-.29h0c-.05.16-.12.07-.16,0l0-.08c0-.15-.12.3-.09,0a2.53,2.53,0,0,1-.68.07c0,.1-.18,0-.13.18a.33.33,0,0,0-.3-.27s0,0,0,0C5,17,5,17.57,4.85,17.22c0,.25-.22-.08-.28.21a.39.39,0,0,1,0-.15c-.18,0-.07-.09-.08-.1a.27.27,0,0,1-.09.08s.09-.07-.12,0a.38.38,0,0,1,.11-.08s0,0,0-.1h0a.63.63,0,0,0-.22-.5c.28-.05.23-.13.32-.2-.14-.12-.1-.35-.22-.52.14,0,0-.15.14-.16a1.47,1.47,0,0,1,0-1.62h0c-.1-.06-.34-.14-.47-.21s0,0,0,0,.16-.19.12-.29l.06,0c-.08-.09.16-.19,0-.29h0l-.07-.06c.06,0,.16,0,.14,0,.06-.83-.27-1.68-.22-2.52l.06,0-.11-.17.06,0c.11-.21-.07-.43,0-.63,0,0,.09,0,.12,0-.17-.15.23-.24-.13-.31a.19.19,0,0,1,.13,0,2.76,2.76,0,0,1-.1-.64.91.91,0,0,1,0-.34A.7.7,0,0,1,4,8.57c0-.07.16-.06.27-.06a.73.73,0,0,0,.42-.12v.07c.47-.23,1,0,1.45,0,.15,0,.31-.06.51-.06l-.08.08h0c.15,0,.08.28,0,.43a.43.43,0,0,0,0,.51l-.11,0c.17.05-.06.21.23.19l-.09.07c.39.24-.18.44.07.74l-.07,0c.06.08.1.17,0,.23s0,0,0,0c-.28.25,0,.52,0,.79l-.13,0c.15.12,0,.36.08.52H6.59l.09.09H6.56A6.37,6.37,0,0,0,6.67,12.54Z" style="fill:#373735"/><path d="M6.81,14.74h0S6.8,14.73,6.81,14.74Z" style="fill:#373735"/><path d="M6.45,17.31l0,0S6.46,17.32,6.45,17.31Z" style="fill:#373735"/><polygon points="19.28 1.38 19.3 1.42 19.36 1.31 19.28 1.38" style="fill:#373735"/><path d="M19.7,1.24s0-.05,0-.07a.85.85,0,0,0-.31.21C19.43,1.56,19.66,1.1,19.7,1.24Z" style="fill:#373735"/><path d="M19.75,1.3c0,.1.15,0,.2,0S19.81,1.16,19.75,1.3Z" style="fill:#373735"/><path d="M20.3,13.17s0,0,0-.05A0,0,0,0,0,20.3,13.17Z" style="fill:#373735"/><path d="M20.77,16.44l.11,0a10.4,10.4,0,0,1-.08-1.94l0,0c0-1.64-.15-3.15-.23-4.77l.06.06c0-.08-.11-.17-.1-.25s.05,0,.06.05c.18-.34-.12-1,0-1.22s-.09-.14-.15-.09c-.05-1.27-.08-2.63-.23-3.93a.1.1,0,0,1,.14,0,6.45,6.45,0,0,1-.19-1.69c0-.28,0-.61,0-.76A1,1,0,0,0,20,1.39c-.08,0,0,.11-.11.12.06.19.41.26.3.51h-.08c0,.16.2,0,.1.21s-.09,0-.1,0a5.14,5.14,0,0,0,.15,1.52c-.17.12,0,.55-.16.74.06.13,0,.26.15.31-.08,1.79.08,3.62.06,5.45.32.85-.06,1.88,0,2.9h0a4.32,4.32,0,0,1,.07,1.21l.14.33a31,31,0,0,0-.16,3.61v.9a1.07,1.07,0,0,1-.18.67,1,1,0,0,1-.54.4,1.26,1.26,0,0,1-.33.05l-.45,0a40.88,40.88,0,0,0-7.83.11s0-.05.05-.06c-.78.06-1.48-.05-2.21,0v0c-1.8.26-3.75,0-5.49.24a12.06,12.06,0,0,1-1.6-.05,1.33,1.33,0,0,1-1-1.11L.7,16H.77c-.14-1.8.2-3.53.1-5.32C1,8.88.51,6.93.7,5.08a5.29,5.29,0,0,0,0-1.9,8.24,8.24,0,0,1-.1-1,1,1,0,0,1,.3-.85A1.56,1.56,0,0,1,2.31.92,15,15,0,0,0,4,.92C5,.87,6.13.72,7.24.57c2,.17,4.09-.27,6.07.08.93-.22,2,.28,3,.22l0-.08c.37.24.83-.33,1.07,0l0,0c.19.17.46-.42.58-.21l0-.09c.24,0,0,.1.21.13s0-.16.18-.1c0,.36.58-.08.6.32-.13,0,.21.16-.09.24.08,0,.49,0,.45-.15s.19-.34-.05-.48l-.05.13c-.08-.13-.06-.06-.09-.16-.32,0-.37-.21-.59-.29h0c-.16.16-.38.07-.5,0L18,.15c-.08-.16-.36.3-.27,0-.65.06-1.39.06-2.12.06-.1.1-.55,0-.4.19a1.39,1.39,0,0,0-.92-.27s0-.05,0,0c-.39-.29-.46.27-.83-.08-.05.24-.66-.08-.87.21,0-.06-.06-.11,0-.15C11.89.1,11.17,0,10.61,0c-.47.22-1.15-.1-1.56.21A3.11,3.11,0,0,0,7.7.14l0,0A4.32,4.32,0,0,0,6.18.32C6,0,5.79.09,5.56,0,5.2.13,4.48.09,3.94.22,3.86.08,3.49.27,3.47.08a9.11,9.11,0,0,1-1.2.19A2.11,2.11,0,0,0,.82.83a2.06,2.06,0,0,0-.47.69,2.78,2.78,0,0,0-.16.78c0,.43-.11.85-.18,1.25v0c.11.21.34.45.48.67,0,0,0,0,0,0,0,.3-.15.58-.12.87,0,0,0,0-.06,0,.08.28-.16.58,0,.91h0l.07.21C.2,6.12.1,6.11.12,6c-.06,2.54.27,5.17.23,7.79l-.06-.1.1.51s0,0-.06,0a13.93,13.93,0,0,0,0,1.94s-.1-.09-.13,0c.17.47-.23.75.13,1a.09.09,0,0,1-.12,0c.06.65.08,1.31.09,2a2.24,2.24,0,0,0,.21,1.12,1.8,1.8,0,0,0,.89.81,3.77,3.77,0,0,0,1,0c.28,0,.57,0,.86,0A7.67,7.67,0,0,0,5,20.79v.06a38,38,0,0,1,4.53,0c.63,0,1.05-.05,1.68-.05l0,.08c1.06-.31,2.24.28,3.35-.07l-.08.12c.17-.18.67.06.61-.24l.19.09c.76-.39,1.38.18,2.3-.07l-.06.07a1.5,1.5,0,0,1,.72,0s0,0-.08.05a2.62,2.62,0,0,0,1.22.09,1.67,1.67,0,0,0,1.06-.71l0,.16a4,4,0,0,0,.28-.79,3.69,3.69,0,0,0,0-.88l.06,0-.08-.27h.12C20.89,17.73,20.78,17.09,20.77,16.44Z" style="fill:#373735"/><path d="M20.63,9.66h0S20.64,9.68,20.63,9.66Z" style="fill:#373735"/><path d="M18.41.14l.09,0S18.44.15,18.41.14Z" style="fill:#373735"/></svg>