<svg width="226" height="36" viewBox="0 0 226 36" fill="none" xmlns="http://www.w3.org/2000/svg">
<g clip-path="url(#clip0_142_715)">
<path d="M105.48 23.2398C108.06 23.2398 110.151 21.1487 110.151 18.5692C110.151 15.9897 108.06 13.8987 105.48 13.8987C102.9 13.8987 100.809 15.9897 100.809 18.5692C100.809 21.1487 102.9 23.2398 105.48 23.2398Z" fill="#F6D38B"/>
<path d="M8.75838 27.1514C8.08027 27.1492 7.40456 27.0709 6.74395 26.9179C6.14343 26.7522 5.55756 26.5374 4.99227 26.2756C4.48863 26.0414 4.00944 25.7578 3.56173 25.4291C3.17351 25.1737 2.81166 24.8804 2.48153 24.5534C2.21051 24.3401 1.9567 24.1059 1.72247 23.8528C1.56884 23.6952 1.47579 23.4885 1.45972 23.269C1.45958 23.0389 1.531 22.8145 1.66408 22.6268C1.79607 22.4143 1.95288 22.2183 2.13119 22.043C2.35087 21.8174 2.62105 21.6473 2.91945 21.5467C3.08307 21.512 3.25214 21.512 3.41576 21.5467C3.56274 21.5384 3.70972 21.563 3.84606 21.6185C3.98239 21.674 4.10466 21.7592 4.20401 21.8678L5.10905 22.7435L5.83891 23.2106C6.26195 23.4727 6.71225 23.6881 7.18187 23.8528C7.68912 24.0245 8.22312 24.1036 8.75838 24.0863C9.44587 24.1038 10.1273 23.9535 10.7436 23.6485C11.3017 23.3822 11.7762 22.9683 12.1158 22.4516C12.5032 21.9179 12.7811 21.3127 12.9332 20.671C13.1136 19.9355 13.2019 19.1805 13.196 18.4233V4.46998C13.148 4.14088 13.148 3.80658 13.196 3.47749C13.2436 3.33589 13.3201 3.2057 13.4206 3.09516C13.5211 2.98462 13.6434 2.89613 13.7799 2.83528C14.1223 2.66008 14.5053 2.57946 14.8893 2.60176C15.2236 2.57292 15.5589 2.64404 15.8527 2.80609C16.0624 2.95644 16.2164 3.172 16.2906 3.4191C16.3255 3.70997 16.3255 4.00396 16.2906 4.29483V18.8903C16.3092 19.9747 16.1716 21.0562 15.8819 22.1013C15.5637 23.0843 15.0581 23.9963 14.3929 24.7869C13.7238 25.5545 12.8838 26.1544 11.9406 26.5384C10.9292 26.9457 9.8487 27.1538 8.75838 27.1514Z" fill="#1D1D1B" stroke="#1D1D1B" stroke-width="0.396694" stroke-miterlimit="10"/>
<path d="M29.1947 27.239C27.905 27.2598 26.6244 27.0216 25.4285 26.5384C24.3273 26.1152 23.3312 25.4578 22.5091 24.6118C21.7295 23.7704 21.1331 22.7764 20.7574 21.6927C20.458 20.6304 20.3493 19.5235 20.4363 18.4233C20.3984 16.9345 20.7739 15.4644 21.5212 14.1761C22.2685 12.8879 23.3582 11.8319 24.6695 11.1255C26.0609 10.382 27.6171 10.0005 29.1947 10.0163C30.2705 10.0098 31.3386 10.1977 32.3477 10.5709C33.22 10.9059 34.022 11.401 34.7124 12.0305C35.3272 12.6057 35.8318 13.2883 36.2014 14.0446C36.5374 14.7469 36.7167 15.5139 36.7269 16.2923C36.7788 16.7517 36.7299 17.2169 36.5837 17.6555C36.4375 18.0941 36.1974 18.4956 35.8802 18.832C35.3108 19.3162 34.584 19.5758 33.8366 19.5617H23.6769C23.624 20.4984 23.9146 21.4221 24.4943 22.1597C25.063 22.8944 25.8054 23.4762 26.6547 23.8528C27.485 24.2484 28.3918 24.4576 29.3114 24.4658C29.865 24.5156 30.4219 24.5156 30.9755 24.4658C31.3656 24.3734 31.7466 24.2464 32.1141 24.0863L32.99 23.736L33.6906 23.3858L34.2745 23.123C34.465 23.0662 34.6679 23.0662 34.8584 23.123C34.9682 23.1638 35.0686 23.2261 35.1539 23.3063C35.2391 23.3865 35.3074 23.483 35.3547 23.5901C35.473 23.7528 35.571 23.9292 35.6467 24.1155C35.661 24.2904 35.661 24.4661 35.6467 24.641C35.6467 24.9913 35.3839 25.3707 34.8 25.7502C34.0927 26.2087 33.3129 26.5443 32.4937 26.7427C31.4223 27.0602 30.312 27.2272 29.1947 27.239ZM23.6769 17.46H32.4353C32.7749 17.4745 33.1137 17.4148 33.4279 17.2848C33.6614 17.1681 33.7782 16.847 33.7782 16.3215C33.7698 15.6866 33.5546 15.0717 33.1651 14.5701C32.741 14.0072 32.1775 13.5646 31.5302 13.2857C30.797 12.9527 30 12.7834 29.1947 12.7894C28.1866 12.7585 27.1857 12.9687 26.2752 13.4024C25.5115 13.7999 24.8591 14.3819 24.3775 15.0955C23.8872 15.7837 23.6406 16.6158 23.6769 17.46Z" fill="#1D1D1B" stroke="#1D1D1B" stroke-width="0.396694" stroke-miterlimit="10"/>
<path d="M41.7192 27.0638C41.4167 27.0402 41.1253 26.9397 40.8725 26.7719C40.7704 26.7119 40.6816 26.6318 40.6113 26.5364C40.5411 26.4411 40.4909 26.3325 40.4638 26.2172C40.4129 25.9374 40.4129 25.6506 40.4638 25.3707V11.5634C40.4174 11.3027 40.4174 11.0359 40.4638 10.7752C40.4948 10.6692 40.5471 10.5705 40.6173 10.4852C40.6876 10.3999 40.7744 10.3298 40.8725 10.279C41.185 10.1431 41.5251 10.0831 41.8651 10.1038C42.2581 10.0639 42.6521 10.1676 42.9745 10.3957C43.2099 10.6819 43.325 11.0481 43.2957 11.4174V12.9353C43.4087 12.5626 43.5759 12.2085 43.792 11.8845C44.1289 11.5128 44.5231 11.1974 44.9598 10.9504C45.4079 10.651 45.9006 10.4244 46.4195 10.279C46.9262 10.102 47.4594 10.0132 47.996 10.0162C48.7489 10.0028 49.4958 10.1521 50.1856 10.4541C50.8319 10.7633 51.4158 11.1888 51.9081 11.7093C52.4544 12.2866 52.8898 12.9595 53.1927 13.6943C53.6125 12.9876 54.1121 12.3313 54.6816 11.7385C55.1922 11.1928 55.8079 10.7559 56.4917 10.4541C57.2013 10.15 57.9677 10.0007 58.7397 10.0162C59.9498 9.97813 61.1391 10.3369 62.1262 11.0379C63.0945 11.7687 63.801 12.7925 64.1407 13.957C64.6404 15.3411 64.878 16.8062 64.8413 18.2773V25.4875C64.89 25.7577 64.89 26.0345 64.8413 26.3048C64.7815 26.4243 64.6952 26.5284 64.5889 26.6094C64.4827 26.6904 64.3593 26.7459 64.2282 26.7719C63.9094 26.9223 63.5586 26.9925 63.2064 26.9762C62.8829 26.9864 62.5619 26.9162 62.2722 26.7719C62.1636 26.7164 62.0682 26.6382 61.9926 26.5424C61.917 26.4467 61.863 26.3358 61.8343 26.2172C61.7992 25.9362 61.7992 25.6518 61.8343 25.3707V18.0146C61.7966 17.1264 61.6193 16.2496 61.3088 15.4166C61.0978 14.7377 60.7158 14.1245 60.1994 13.6359C59.6857 13.2239 59.0478 12.9975 58.3893 12.9937C57.5939 12.9877 56.8135 13.2106 56.1413 13.6359C55.4833 14.0731 54.9662 14.6916 54.6524 15.4166C54.2822 16.2726 54.1028 17.199 54.1269 18.1313V25.5167C54.1386 25.8309 54.0681 26.1428 53.9225 26.4216C53.7867 26.6704 53.5706 26.8658 53.3094 26.9762C52.9649 27.0665 52.603 27.0665 52.2584 26.9762C52.1062 27.0034 51.9501 26.9993 51.7995 26.9642C51.6489 26.929 51.5071 26.8636 51.3826 26.7719C51.208 26.6305 51.0849 26.4356 51.0323 26.2172C50.9992 25.9653 50.9992 25.7102 51.0323 25.4583V18.0146C51.0395 17.0959 50.9117 16.1812 50.6527 15.2998C50.4696 14.6627 50.1164 14.0874 49.6309 13.6359C49.0713 13.2049 48.3811 12.9783 47.6749 12.9937C46.8836 12.9826 46.1084 13.2172 45.4561 13.6651C44.7981 14.1023 44.2809 14.7208 43.9672 15.4458C43.6028 16.2933 43.4236 17.2089 43.4417 18.1313V25.4875C43.4903 25.7577 43.4903 26.0345 43.4417 26.3048C43.4129 26.4233 43.3589 26.5343 43.2833 26.63C43.2078 26.7257 43.1124 26.804 43.0037 26.8594C42.6067 27.0579 42.1582 27.1292 41.7192 27.0638Z" fill="#1D1D1B" stroke="#1D1D1B" stroke-width="0.396694" stroke-miterlimit="10"/>
<path d="M70.6219 27.0638C70.2694 27.0668 69.9239 26.9652 69.6292 26.7719C69.5271 26.7119 69.4383 26.6318 69.368 26.5364C69.2978 26.4411 69.2476 26.3325 69.2205 26.2172C69.1696 25.9374 69.1696 25.6506 69.2205 25.3707V11.5634C69.1741 11.3027 69.1741 11.0359 69.2205 10.7752C69.2549 10.6665 69.3116 10.5662 69.387 10.4808C69.4624 10.3953 69.5549 10.3266 69.6584 10.279C69.9709 10.1431 70.311 10.0831 70.6511 10.1038C71.044 10.0639 71.438 10.1676 71.7604 10.3957C71.9958 10.6819 72.1109 11.0481 72.0816 11.4174L71.9356 12.9353C72.1293 12.5458 72.3858 12.1908 72.6947 11.8845C73.0316 11.5128 73.4258 11.1974 73.8625 10.9504C74.3106 10.651 74.8032 10.4244 75.3222 10.279C75.8288 10.102 76.3621 10.0132 76.8987 10.0162C77.6516 10.0028 78.3985 10.1521 79.0883 10.4541C79.7346 10.7633 80.3185 11.1888 80.8108 11.7093C81.3571 12.2866 81.7925 12.9595 82.0954 13.6943C82.5152 12.9876 83.0148 12.3313 83.5843 11.7385C84.0949 11.1928 84.7106 10.7559 85.3944 10.4541C86.086 10.1581 86.8316 10.009 87.5839 10.0162C88.7941 9.97813 89.9834 10.3369 90.9705 11.0379C91.9388 11.7687 92.6453 12.7925 92.985 13.957C93.4847 15.3411 93.7223 16.8062 93.6856 18.2773V25.4875C93.7343 25.7577 93.7343 26.0345 93.6856 26.3048C93.6585 26.4201 93.6084 26.5287 93.5381 26.624C93.4678 26.7193 93.379 26.7994 93.2769 26.8594C92.9581 27.0099 92.6073 27.08 92.2551 27.0638C91.8743 27.0737 91.4988 26.9723 91.1749 26.7719C91.0662 26.7164 90.9709 26.6382 90.8953 26.5424C90.8197 26.4467 90.7657 26.3358 90.737 26.2172C90.7019 25.9362 90.7019 25.6518 90.737 25.3707V18.0146C90.7588 17.095 90.6306 16.1781 90.3574 15.2998C90.1465 14.621 89.7644 14.0078 89.248 13.5192C88.7033 13.0814 88.0196 12.8535 87.3212 12.877C86.5258 12.8709 85.7454 13.0939 85.0732 13.5192C84.4152 13.9564 83.898 14.5749 83.5843 15.2998C83.214 16.1558 83.0347 17.0822 83.0588 18.0146V25.5167C83.0704 25.8309 83 26.1428 82.8544 26.4216C82.7185 26.6704 82.5025 26.8658 82.2413 26.9762C81.8968 27.0665 81.5348 27.0665 81.1903 26.9762C81.0336 27.0076 80.872 27.0056 80.716 26.9704C80.5601 26.9352 80.4133 26.8675 80.2853 26.7719C80.1107 26.6305 79.9876 26.4356 79.9349 26.2172C79.9019 25.9653 79.9019 25.7102 79.9349 25.4583V18.0146C79.9422 17.0959 79.8143 16.1812 79.5554 15.2998C79.3679 14.6105 78.9822 13.9913 78.446 13.5192C77.8864 13.0882 77.1962 12.8615 76.49 12.877C75.6987 12.8658 74.9235 13.1004 74.2712 13.5483C73.6132 13.9855 73.096 14.604 72.7823 15.329C72.4179 16.1766 72.2387 17.0922 72.2568 18.0146V25.4875C72.3054 25.7577 72.3054 26.0345 72.2568 26.3048C72.228 26.4233 72.174 26.5343 72.0984 26.63C72.0229 26.7257 71.9275 26.804 71.8188 26.8594C71.4476 27.0406 71.0322 27.1115 70.6219 27.0638Z" fill="#1D1D1B" stroke="#1D1D1B" stroke-width="0.396694" stroke-miterlimit="10"/>
<path d="M112.458 27.0054C112.056 27.0446 111.653 26.9413 111.319 26.7135C111.073 26.4421 110.937 26.0878 110.94 25.721V23.9696C110.62 24.4304 110.259 24.8604 109.86 25.254C109.286 25.7838 108.624 26.2087 107.903 26.5092C106.979 26.8923 105.985 27.0811 104.984 27.0638C104.015 27.0232 103.063 26.7952 102.181 26.3924C101.205 25.9533 100.331 25.3173 99.6122 24.5242C98.8754 23.7333 98.2914 22.8129 97.8897 21.8094C97.4558 20.7643 97.2373 19.6424 97.2474 18.5108C97.2371 17.3982 97.4557 16.2953 97.8897 15.2706C98.2841 14.2653 98.8803 13.3513 99.6414 12.5851C100.362 11.8216 101.224 11.2067 102.181 10.7752C103.094 10.3418 104.09 10.1127 105.101 10.1038C105.995 10.0732 106.886 10.2119 107.728 10.5125C108.408 10.7498 109.041 11.1056 109.597 11.5634C110.121 11.9805 110.592 12.4609 110.998 12.9937V11.5342C110.979 11.3352 111 11.1345 111.06 10.9439C111.121 10.7534 111.219 10.5768 111.348 10.4249C111.7 10.187 112.122 10.0739 112.545 10.1038C112.88 10.075 113.215 10.1461 113.509 10.3082C113.701 10.4568 113.844 10.6604 113.918 10.892C113.952 11.2122 113.952 11.5351 113.918 11.8553V25.3707C113.949 25.6618 113.949 25.9554 113.918 26.2464C113.842 26.4849 113.687 26.6906 113.48 26.8303C113.16 26.9768 112.808 27.0372 112.458 27.0054ZM105.655 24.0863C106.572 24.0877 107.472 23.8351 108.254 23.3565C109.077 22.8512 109.756 22.1428 110.226 21.2993C110.697 20.4559 110.942 19.5057 110.94 18.54C110.965 17.5226 110.723 16.5163 110.239 15.6209C109.779 14.8214 109.127 14.1491 108.341 13.6651C107.546 13.1958 106.637 12.9535 105.714 12.9645C104.687 12.9216 103.67 13.1858 102.794 13.7235C101.98 14.193 101.313 14.8804 100.868 15.7085C100.384 16.6038 100.142 17.6101 100.167 18.6276C100.134 19.6459 100.376 20.6544 100.868 21.5467C101.333 22.3616 102.009 23.0369 102.824 23.5025C103.695 23.9595 104.673 24.1714 105.655 24.1155V24.0863Z" fill="#1D1D1B" stroke="#1D1D1B" stroke-width="0.396694" stroke-miterlimit="10"/>
<path d="M133.011 23.5609C135.832 23.5609 138.12 21.2738 138.12 18.4525C138.12 15.6312 135.832 13.3441 133.011 13.3441C130.189 13.3441 127.902 15.6312 127.902 18.4525C127.902 21.2738 130.189 23.5609 133.011 23.5609Z" fill="#F29286"/>
<path d="M195.896 23.5317C198.702 23.5317 200.976 21.2576 200.976 18.4525C200.976 15.6473 198.702 13.3732 195.896 13.3732C193.09 13.3732 190.816 15.6473 190.816 18.4525C190.816 21.2576 193.09 23.5317 195.896 23.5317Z" fill="#7162A8"/>
<path d="M132.661 27.1806C131.655 27.1606 130.663 26.9423 129.741 26.5384C128.804 26.1149 127.961 25.5097 127.26 24.7577C126.531 23.9602 125.948 23.0414 125.537 22.043C125.135 20.949 124.927 19.7931 124.924 18.6276C124.925 17.4809 125.133 16.3437 125.537 15.2706C125.926 14.276 126.5 13.3646 127.23 12.5851C127.945 11.8352 128.797 11.2305 129.741 10.8044C130.664 10.409 131.656 10.2006 132.661 10.1914C133.724 10.1741 134.779 10.3831 135.755 10.8044C136.664 11.218 137.471 11.8258 138.12 12.5851C138.798 13.3766 139.322 14.2873 139.667 15.2706C140.006 16.3665 140.163 17.5102 140.134 18.6568C140.147 19.8068 139.97 20.951 139.609 22.043C139.284 23.032 138.779 23.9524 138.12 24.7577C137.462 25.5197 136.645 26.1276 135.726 26.5384C134.758 26.9584 133.715 27.1769 132.661 27.1806ZM133.128 24.2615C134.049 24.2736 134.955 24.0321 135.748 23.5636C136.541 23.0951 137.19 22.4176 137.624 21.6051C138.098 20.707 138.329 19.7008 138.295 18.686C138.329 17.6711 138.098 16.665 137.624 15.7669C137.175 14.9686 136.532 14.296 135.755 13.8111C134.96 13.3418 134.051 13.0995 133.128 13.1105C132.186 13.0991 131.258 13.3411 130.442 13.8111C129.652 14.2799 129.005 14.9563 128.573 15.7669C128.109 16.6686 127.878 17.6722 127.902 18.686C127.876 19.7001 128.107 20.7043 128.573 21.6051C129.017 22.4168 129.673 23.0928 130.471 23.5609C131.284 24.0068 132.201 24.2285 133.128 24.2031V24.2615ZM139.959 27.1806C139.568 27.2061 139.178 27.1037 138.85 26.8887C138.596 26.6431 138.449 26.3075 138.441 25.9545V4.00292C138.406 3.71205 138.406 3.41806 138.441 3.12719C138.483 3.00541 138.552 2.89479 138.643 2.80374C138.734 2.71268 138.845 2.6436 138.967 2.60175C139.26 2.4397 139.596 2.36858 139.93 2.39741C140.274 2.36446 140.62 2.43565 140.923 2.60175C141.128 2.71744 141.284 2.90438 141.361 3.12719C141.41 3.40723 141.41 3.69368 141.361 3.97373V25.5459C141.395 25.8368 141.395 26.1307 141.361 26.4216C141.295 26.6493 141.15 26.8461 140.952 26.9762C140.641 27.119 140.301 27.1889 139.959 27.1806Z" fill="#1D1D1B" stroke="#1D1D1B" stroke-width="0.396694" stroke-miterlimit="10"/>
<path d="M153.827 27.3557C152.545 27.4138 151.265 27.2153 150.061 26.7719C149.012 26.3305 148.067 25.6742 147.287 24.8453C146.507 24.0039 145.911 23.0099 145.535 21.9262C145.119 20.836 144.912 19.6776 144.922 18.5108C144.884 17.0221 145.26 15.5519 146.007 14.2637C146.754 12.9754 147.844 11.9195 149.156 11.2131C150.556 10.4647 152.122 10.0831 153.71 10.1038C154.786 10.0974 155.854 10.2853 156.863 10.6585C157.735 10.9935 158.537 11.4885 159.228 12.118C159.842 12.6932 160.347 13.3758 160.717 14.1322C161.053 14.8345 161.232 15.6014 161.242 16.3799C161.294 16.8393 161.245 17.3045 161.099 17.7431C160.953 18.1816 160.713 18.5831 160.395 18.9195C159.826 19.4038 159.099 19.6633 158.352 19.6493H148.221C148.168 20.5859 148.459 21.5097 149.039 22.2473C149.607 22.9819 150.35 23.5637 151.199 23.9404C152.03 24.3333 152.937 24.5424 153.856 24.5534C154.409 24.6032 154.966 24.6032 155.52 24.5534C155.946 24.5059 156.366 24.4179 156.775 24.2906L157.651 23.8528L158.352 23.5025L158.936 23.2398C159.126 23.183 159.329 23.183 159.52 23.2398C159.629 23.2805 159.73 23.3428 159.815 23.4231C159.9 23.5033 159.969 23.5998 160.016 23.7068C160.134 23.8695 160.232 24.0459 160.308 24.2323C160.322 24.4071 160.322 24.5829 160.308 24.7577C160.308 25.108 160.045 25.4875 159.461 25.867C158.754 26.3255 157.974 26.661 157.155 26.8595C156.074 27.1796 154.954 27.3466 153.827 27.3557ZM148.221 17.5767H156.98C157.319 17.5913 157.658 17.5315 157.972 17.4016C158.206 17.2848 158.323 16.9637 158.323 16.4383C158.314 15.8033 158.099 15.1884 157.71 14.6868C157.285 14.124 156.722 13.6813 156.075 13.4024C155.323 13.061 154.506 12.8915 153.681 12.9062C152.722 12.898 151.773 13.1076 150.907 13.5192C150.114 13.8675 149.422 14.4095 148.893 15.0955C148.387 15.8193 148.15 16.6967 148.221 17.5767Z" fill="#1D1D1B" stroke="#1D1D1B" stroke-width="0.396694" stroke-miterlimit="10"/>
<path d="M170.409 27.3557C169.811 27.3539 169.215 27.2953 168.628 27.1806C168.023 27.1014 167.427 26.9646 166.847 26.7719C166.317 26.5803 165.815 26.315 165.358 25.9837C164.951 25.7357 164.619 25.3829 164.395 24.9621C164.292 24.7608 164.223 24.5438 164.191 24.3199C164.134 24.1294 164.134 23.9265 164.191 23.736C164.306 23.5292 164.454 23.342 164.629 23.1814C164.707 23.0712 164.807 22.978 164.922 22.9078C165.038 22.8375 165.166 22.7915 165.3 22.7727C165.642 22.8499 165.956 23.0219 166.205 23.269L167.11 23.7944C167.452 24.0042 167.814 24.1801 168.19 24.3199C168.569 24.4769 168.959 24.6037 169.358 24.6993C169.727 24.8144 170.111 24.8735 170.497 24.8745C171.394 24.915 172.284 24.7026 173.066 24.2615C173.365 24.1062 173.616 23.8716 173.791 23.5833C173.966 23.295 174.059 22.9641 174.058 22.6268C174.069 22.2682 173.978 21.914 173.796 21.6051C173.653 21.3496 173.465 21.1222 173.241 20.9337C172.928 20.6937 172.596 20.4789 172.248 20.2915C171.857 20.1334 171.458 19.9969 171.051 19.8828L169.767 19.5033L167.928 18.9487C167.382 18.7071 166.871 18.3929 166.409 18.0146C165.918 17.6835 165.508 17.2441 165.212 16.7302C164.898 16.1068 164.747 15.4137 164.775 14.716C164.752 13.8371 164.996 12.972 165.475 12.2348C165.996 11.5031 166.715 10.9358 167.548 10.6001C168.548 10.1915 169.621 9.99281 170.701 10.0163C171.177 9.97053 171.656 9.97053 172.132 10.0163C172.57 10.0784 173 10.186 173.416 10.3374C173.825 10.5125 174.204 10.6585 174.584 10.8628C174.968 11.0686 175.33 11.3132 175.664 11.5926C175.84 11.6787 175.993 11.8059 176.11 11.9633C176.227 12.1208 176.304 12.304 176.336 12.4975C176.334 12.8811 176.2 13.2523 175.956 13.5484C175.791 13.8062 175.544 14.0015 175.255 14.103C175.119 14.1368 174.977 14.1386 174.841 14.1082C174.704 14.0778 174.576 14.0161 174.467 13.9279C174.088 13.6651 173.708 13.4024 173.299 13.1689C172.872 12.9687 172.433 12.7933 171.986 12.6435C171.037 12.3336 170.015 12.3336 169.066 12.6435C168.643 12.7757 168.274 13.0421 168.015 13.4024C167.765 13.7288 167.631 14.1296 167.636 14.5409C167.625 14.8722 167.739 15.1955 167.957 15.4458C168.164 15.7013 168.422 15.9102 168.716 16.0588L169.825 16.4967L171.168 16.847C171.869 17.0221 172.54 17.1973 173.27 17.4308C173.943 17.6515 174.589 17.9451 175.197 18.3065C175.775 18.6607 176.256 19.152 176.598 19.7369C176.976 20.466 177.157 21.2809 177.124 22.1013C177.185 22.8696 177.035 23.64 176.69 24.3293C176.346 25.0186 175.819 25.6008 175.168 26.0129C173.76 26.9445 172.096 27.4139 170.409 27.3557Z" fill="#1D1D1B" stroke="#1D1D1B" stroke-width="0.396694" stroke-miterlimit="10"/>
<path d="M182.554 6.01708C182.152 6.03758 181.75 5.95731 181.386 5.78355C181.195 5.61537 181.062 5.39037 181.007 5.14135C180.959 4.81225 180.959 4.47795 181.007 4.14885C180.957 3.82972 180.957 3.50468 181.007 3.18555C181.047 3.05592 181.114 2.93655 181.205 2.83573C181.296 2.73491 181.408 2.65506 181.532 2.60173C181.899 2.43915 182.3 2.36899 182.7 2.39739C183.089 2.38889 183.477 2.45837 183.839 2.60173C184.079 2.74543 184.257 2.97486 184.335 3.24393C184.385 3.58266 184.385 3.92689 184.335 4.26562C184.381 4.57526 184.381 4.89009 184.335 5.19973C184.248 5.45667 184.072 5.67406 183.839 5.81274C183.431 5.97657 182.992 6.04642 182.554 6.01708ZM182.554 27.1805C182.203 27.1902 181.853 27.1204 181.532 26.9762C181.407 26.9314 181.295 26.8579 181.203 26.7615C181.112 26.6652 181.045 26.5487 181.007 26.4216C180.973 26.1502 180.973 25.8756 181.007 25.6042V11.7677C180.96 11.4875 180.96 11.2014 181.007 10.9212C181.036 10.8063 181.09 10.6994 181.166 10.6085C181.242 10.5175 181.337 10.4448 181.445 10.3957C181.767 10.2575 182.117 10.1975 182.467 10.2206C182.807 10.1999 183.147 10.2599 183.459 10.3957C183.667 10.5287 183.814 10.7386 183.868 10.9795C183.916 11.2596 183.916 11.546 183.868 11.8261V25.6334C183.916 25.9135 183.916 26.1999 183.868 26.48C183.839 26.5948 183.785 26.7017 183.709 26.7927C183.633 26.8836 183.538 26.9563 183.43 27.0054C183.153 27.1241 182.855 27.1838 182.554 27.1805Z" fill="#1D1D1B" stroke="#1D1D1B" stroke-width="0.396694" stroke-miterlimit="10"/>
<path d="M195.604 26.7719C194.6 26.7588 193.609 26.5506 192.685 26.1589C191.743 25.7712 190.896 25.1836 190.203 24.4366C189.507 23.6648 188.953 22.7752 188.568 21.8094C188.183 20.753 187.995 19.635 188.014 18.5108C187.955 17.3532 188.114 16.1949 188.481 15.0955C188.865 14.1297 189.419 13.24 190.116 12.4683C190.853 11.7627 191.727 11.2162 192.685 10.8628C193.608 10.4666 194.6 10.2582 195.604 10.2498C196.608 10.2274 197.605 10.4267 198.524 10.8336C199.361 11.2305 200.091 11.8209 200.655 12.5559C201.267 13.3262 201.724 14.2087 201.998 15.1539C202.337 16.2402 202.504 17.3728 202.494 18.5108C202.527 20.014 202.238 21.5068 201.647 22.8895C201.178 24.0653 200.376 25.0793 199.341 25.8086C198.228 26.5159 196.92 26.8531 195.604 26.7719ZM195.604 34.0404C194.806 34.0513 194.011 33.9531 193.239 33.7485C192.559 33.5911 191.901 33.3458 191.283 33.0187C190.792 32.7653 190.348 32.4296 189.97 32.0263C189.827 31.9067 189.71 31.7599 189.625 31.5945C189.539 31.4291 189.488 31.2484 189.473 31.063C189.438 30.8699 189.438 30.6722 189.473 30.4791C189.56 30.3104 189.668 30.1534 189.794 30.0121C189.962 29.8279 190.148 29.6616 190.349 29.5158C190.54 29.4651 190.742 29.4651 190.933 29.5158C191.192 29.5366 191.437 29.6388 191.634 29.8077C191.9 30.0508 192.183 30.2752 192.48 30.4791C192.869 30.7551 193.291 30.9807 193.736 31.1505C194.334 31.3653 194.969 31.4643 195.604 31.4424C196.311 31.452 197.013 31.3333 197.677 31.0921C198.277 30.8682 198.816 30.5085 199.254 30.0413C199.691 29.5468 200.028 28.9717 200.246 28.3482C200.511 27.6291 200.64 26.8668 200.626 26.1005V11.505C200.611 11.3304 200.637 11.1547 200.703 10.9923C200.769 10.83 200.873 10.6855 201.005 10.5709C201.366 10.3562 201.783 10.2545 202.202 10.279C202.526 10.2675 202.847 10.3378 203.136 10.4833C203.238 10.5373 203.326 10.612 203.397 10.7025C203.467 10.7931 203.518 10.8974 203.545 11.0087C203.579 11.2802 203.579 11.5547 203.545 11.8261V26.4216C203.565 27.5511 203.356 28.673 202.932 29.7202C202.58 30.6665 202.01 31.5166 201.268 32.2014C200.526 32.8873 199.652 33.4139 198.699 33.7485C197.766 33.9924 196.801 34.0909 195.838 34.0404H195.604ZM195.604 23.9112C196.627 23.9966 197.651 23.751 198.524 23.2106C199.273 22.7323 199.887 22.0687 200.305 21.284C200.778 20.3859 201.01 19.3797 200.976 18.3649C201.01 17.35 200.778 16.3439 200.305 15.4458C199.862 14.7485 199.249 14.1758 198.524 13.7819C197.743 13.3316 196.856 13.0997 195.955 13.1105C195.049 13.0964 194.158 13.3393 193.385 13.8111C192.649 14.2615 192.052 14.9085 191.663 15.6793C191.217 16.5854 191.006 17.5893 191.05 18.5984C191.014 19.6068 191.225 20.6086 191.663 21.5175C192.079 22.2865 192.681 22.9389 193.415 23.4149C194.179 23.7747 195.025 23.9257 195.867 23.8528L195.604 23.9112Z" fill="#1D1D1B" stroke="#1D1D1B" stroke-width="0.396694" stroke-miterlimit="10"/>
<path d="M210.026 27.1222C209.686 27.1463 209.345 27.0862 209.034 26.947C208.927 26.8887 208.834 26.8095 208.758 26.7142C208.683 26.6189 208.628 26.5095 208.596 26.3924C208.561 26.1113 208.561 25.8269 208.596 25.5459V11.6509C208.563 11.399 208.563 11.1439 208.596 10.892C208.625 10.7806 208.679 10.6776 208.755 10.5914C208.831 10.5051 208.927 10.4381 209.034 10.3957C209.402 10.2408 209.804 10.1806 210.202 10.2206C210.471 10.1671 210.749 10.1671 211.019 10.2206C211.188 10.2783 211.332 10.3915 211.428 10.5417C211.516 10.6844 211.576 10.8431 211.603 11.0087C211.616 11.1641 211.616 11.3204 211.603 11.4758V13.0813C211.843 12.6645 212.137 12.2817 212.479 11.9429C212.841 11.5581 213.253 11.2242 213.705 10.9504C214.174 10.6505 214.686 10.4241 215.223 10.279C215.79 10.1028 216.381 10.0142 216.975 10.0162C217.975 10.0062 218.967 10.1947 219.894 10.5709C220.666 10.9531 221.344 11.5013 221.879 12.1764C222.508 12.9064 222.993 13.7481 223.31 14.6576C223.679 15.7369 223.847 16.8747 223.806 18.0146V25.6042C223.824 25.8764 223.824 26.1494 223.806 26.4216C223.772 26.5341 223.716 26.6385 223.641 26.7288C223.565 26.8191 223.473 26.8933 223.368 26.947C222.707 27.1807 221.986 27.1807 221.325 26.947C221.218 26.8887 221.125 26.8095 221.049 26.7142C220.974 26.6189 220.919 26.5095 220.887 26.3924C220.852 26.1113 220.852 25.8269 220.887 25.5459V18.0146C220.909 17.1295 220.729 16.2511 220.361 15.4458C220.057 14.7544 219.547 14.1735 218.902 13.7819C218.15 13.3433 217.289 13.1305 216.42 13.1689C215.553 13.1489 214.696 13.3605 213.938 13.7819C213.228 14.1556 212.648 14.7357 212.274 15.4458C211.873 16.2415 211.672 17.1235 211.69 18.0146V25.6042C211.724 25.8757 211.724 26.1502 211.69 26.4216C211.611 26.6431 211.456 26.8293 211.253 26.947C210.868 27.1191 210.443 27.1798 210.026 27.1222Z" fill="#1D1D1B" stroke="#1D1D1B" stroke-width="0.396694" stroke-miterlimit="10"/>
<path d="M182.554 7.91448C184.602 7.91448 186.262 6.25469 186.262 4.20723C186.262 2.15976 184.602 0.499969 182.554 0.499969C180.506 0.499969 178.846 2.15976 178.846 4.20723C178.846 6.25469 180.506 7.91448 182.554 7.91448Z" fill="#A7D6D7"/>
</g>
<defs>
<clipPath id="clip0_142_715">
<rect width="225.266" height="35" fill="white" transform="translate(0 0.5)"/>
</clipPath>
</defs>
</svg>
