<svg id="e6625aa2-abe0-4ed2-89e6-085333eb1780" data-name="Calque 1" xmlns="http://www.w3.org/2000/svg" viewBox="0 0 20.43 20.48"><g id="ff7a2ef9-a6b3-4b50-a021-15015d0745e9" data-name="photoshop"><rect x="1.94" y="2.98" width="17.03" height="14.29" style="fill:#4094d1"/><polygon points="1.77 2.98 1.76 3.01 1.79 3.09 1.77 2.98" style="fill:#f8f4e8"/><path d="M1.83,3.49l0,0-.08-.29C1.73,3.3,1.86,3.4,1.83,3.49Z" style="fill:#f8f4e8"/><path d="M1.82,3.57a.31.31,0,0,0,0,.19S1.86,3.55,1.82,3.57Z" style="fill:#f8f4e8"/><path d="M1.84,13.69v0Z" style="fill:#f8f4e8"/><path d="M2,16.33l0,0c-.05-.5,0-1,0-1.57v0c0-1.32,0-2.54-.06-3.85v0a1.25,1.25,0,0,1,0-.21s0,0,0,0c.05-.28,0-.82,0-1s0-.11,0-.07c0-1,0-2.12,0-3.17,0,0,0-.06,0,0-.07-.9,0-1.83,0-2.75,0,0,0,.1,0,0,0,.29,0,.53,0,.8l0,0c0,.19.05,0,0,.24s0,0,0,0c0,.42,0,.85,0,1.24,0,.09,0,.44,0,.59a1.85,1.85,0,0,0,0,.25c0,1.45,0,2.92,0,4.4.08.69,0,1.52,0,2.34h0c0,.27,0,.66,0,1l0,.27,0,1.16v1.25h3.6c2.22,0,4.16.08,6.32,0,0,0,0,0,0,0H13.5c1.46-.07,3,0,4.44-.07H19c0-1.42,0-3,0-4.46h0C19,11.4,19,10,19,8.56S18.93,5.5,19,4a8.66,8.66,0,0,0,0-1,20,20,0,0,1-2,0,47,47,0,0,0-5.31,0c-1.65,0-3.3.06-4.9,0-.75.06-1.59-.06-2.43-.05l0,0c-.3-.06-.68.08-.87,0h0c-.16,0-.38.11-.47,0L3,3c-.19,0,0,0-.17,0s0,0-.14,0-.47,0-.49-.08-.16,0,.07-.06c-.06,0-.39,0-.36,0S1.79,3,2,3L2,3,2.1,3a3.21,3.21,0,0,1,.47.08h0A1.43,1.43,0,0,1,3,3.1l0,0c.06,0,.29-.07.21,0H4.94c.08,0,.45,0,.32-.05A3.74,3.74,0,0,0,6,3.12H6c.31.07.37-.07.67,0,0-.07.53,0,.7-.06s0,0,0,0l1.57,0c.38-.06.93,0,1.26-.05a9.61,9.61,0,0,0,1.09,0h0a9.73,9.73,0,0,0,1.27,0,1.41,1.41,0,0,0,.5.08c.28,0,.86,0,1.3-.06.07,0,.36,0,.38,0a34.41,34.41,0,0,1,4.06,0h0c.1,0,0,0,.11,0s0,.07.07.18,0,0,0,0c0,.24,0,.47,0,.71,0,0,0,0,0,0,0,.23,0,.47,0,.73v.19s0,0,0-.1c0,2.05,0,4.17.06,6.28l0-.07,0,.4s0,0,0,0c0,.52,0,1.07,0,1.57,0,0,0-.08,0,0,0,.37-.06.6,0,.79,0,0,0,0,0,0,0,1.05,0,2.12,0,3.17l0,.36-.51,0H17.8c-.4,0-.79,0-1.18,0v0c-1.18.06-2.44,0-3.66,0H11.61v0c-.86.08-1.81-.07-2.71,0l.06,0c-.13,0-.54,0-.48.06l-.16,0c-.61.09-1.11-.05-1.86,0h0c-.2,0-.43,0-.58,0l.06,0a18.54,18.54,0,0,0-2,0l.08,0c-.32,0-.9,0-1.32,0l0,0-.21,0v0H2Z" style="fill:#f8f4e8"/><path d="M1.92,10.86h0S1.93,10.87,1.92,10.86Z" style="fill:#f8f4e8"/><path d="M2.64,3.12h0Z" style="fill:#f8f4e8"/><path d="M7.08,6.07a2.66,2.66,0,0,0-1,.11v3.2A1.9,1.9,0,0,0,7,9.5c1.37,0,2.17-.69,2.17-1.83S8.34,6.07,7.08,6.07Z" style="fill:#132035"/><polygon points="7.08 6.4 7.09 6.42 7.1 6.37 7.08 6.4" style="fill:#1d1d1b"/><path d="M7.17,6.29v0l-.06.15C7.13,6.49,7.15,6.23,7.17,6.29Z" style="fill:#1d1d1b"/><path d="M7.18,6.3s0,0,0,0S7.18,6.23,7.18,6.3Z" style="fill:#1d1d1b"/><path d="M8.65,6.88h0Z" style="fill:#1d1d1b"/><path d="M9.06,7.17l.06,0C9,7.1,9.05,7,9,6.9H9a1,1,0,0,0-.55-.44l0,0s-.05,0-.06,0l0,0c0-.11-.15,0-.14-.1s0,0,0,.06a1.05,1.05,0,0,0-.53-.07s0,0,0-.06c-.17.12-.31,0-.47,0s0,0,0,.08.09-.09.13,0v0s0-.09.05,0,0,0,0,0,.13,0,.21,0c0,.09.07,0,.07.1s0,0,.06-.07a2.85,2.85,0,0,1,.65.26c.19-.06.16.17.27.24h0s.11,0,.11.11h.09c0,.35.19.61.08.94s-.3.54-.41.92v0c0,.09-.16.1-.23.18V9c-.15.25-.46.2-.67.38s-.64.07-1,.1v0a.53.53,0,0,1-.36,0l-.12-.08s0-.09,0-.13c.07-.22-.18-.54-.09-.8s-.17-.38,0-.54c.24-.32.08-.64-.06-1a.93.93,0,0,0,0-.44.88.88,0,0,1,0-.28c0-.1.16-.08.23-.07.13-.15.32.09.46.05v0c.06.12.12-.16.15,0h0c0,.09.06-.21.08-.11V6s0,0,0,.07,0-.08,0-.06C7,6.17,7,6,7,6.16c0,0,0,.07,0,.12s.07,0,.06-.08a.49.49,0,0,0,0-.24V6a.64.64,0,0,0,0-.09S7,5.84,7,5.8H7c0,.08-.06,0-.07,0v0c0-.08-.06.15,0,0a1.65,1.65,0,0,1-.32,0c0,.05-.09,0-.06.1,0-.11-.12-.13-.16-.12s0,0,0,0c-.15-.12-.08.15-.23,0,0,.11-.2,0-.14.16a.18.18,0,0,1-.07-.05S5.79,6,5.77,6l0,.12a1,1,0,0,0,0,.25c.11.15,0,.19.1.27,0,0-.09.13,0,.2h0a.28.28,0,0,0,.11.23c-.14,0-.11,0-.16.09s0,.15.11.23,0,.07-.07.07a.6.6,0,0,1,0,.73h0l.24.1h0c0,.05-.08.09-.06.13h0s-.08.09,0,.13h0l0,0s-.08,0-.07,0a1.8,1.8,0,0,0,0,.56,2.57,2.57,0,0,0,.06.4,1.3,1.3,0,0,0,.39.14l0,0a.29.29,0,0,0,.11,0s0,0,0,0,.21,0,.3,0,0,0,0,.06.11.11.15-.07a.2.2,0,0,1,0,.07,1.7,1.7,0,0,1,.6-.05c.14-.18.35-.07.48-.24v0c.17-.17.42-.15.6-.3S8.6,9,8.66,9l0,0c0-.2.34-.17.28-.41l0,0C9,8.55,9.08,8.53,9,8.48H9c-.14-.17.16-.16.07-.33l0,0s0-.09,0-.11l0,0c.16-.09,0-.25,0-.36l.06,0c-.06-.07,0-.18-.06-.25h0l0,0H9.2C9.18,7.33,9.1,7.26,9.06,7.17Z" style="fill:#1d1d1b"/><path d="M8.42,6.44Z" style="fill:#1d1d1b"/><path d="M7,5.79H7Z" style="fill:#1d1d1b"/><path d="M19.08.35H1.6A1.27,1.27,0,0,0,.34,1.61V19.1A1.27,1.27,0,0,0,1.6,20.35H19.08a1.27,1.27,0,0,0,1.26-1.25V1.61A1.27,1.27,0,0,0,19.08.35Zm-8.57,9.83A4.91,4.91,0,0,1,7,11.32h-.8v3.89H3.65V4.35A22.93,22.93,0,0,1,7,4.12,5.21,5.21,0,0,1,10.28,5a3.25,3.25,0,0,1,1.15,2.51A3.36,3.36,0,0,1,10.51,10.18Zm3.66,5.26a6,6,0,0,1-2.63-.57L12,13a5.4,5.4,0,0,0,2.17.57c.8,0,1-.23,1-.69S15,12.35,14.05,12c-1.6-.57-2.28-1.49-2.28-2.4C11.77,8.12,13,7,15,7a6.16,6.16,0,0,1,2.28.46L16.8,9.15a3.43,3.43,0,0,0-1.72-.45c-.57,0-.91.22-.91.68s.34.57,1.26.92c1.48.57,2.17,1.25,2.17,2.51C17.71,14.3,16.45,15.44,14.17,15.44Z" style="fill:#132035"/><path d="M19.08.35H1.6A1.27,1.27,0,0,0,.34,1.61V19.1A1.27,1.27,0,0,0,1.6,20.35H19.08a1.27,1.27,0,0,0,1.26-1.25V1.61A1.27,1.27,0,0,0,19.08.35Zm-8.57,9.83A4.91,4.91,0,0,1,7,11.32h-.8v3.89H3.65V4.35A22.93,22.93,0,0,1,7,4.12,5.21,5.21,0,0,1,10.28,5a3.25,3.25,0,0,1,1.15,2.51A3.36,3.36,0,0,1,10.51,10.18Zm3.66,5.26a6,6,0,0,1-2.63-.57L12,13a5.4,5.4,0,0,0,2.17.57c.8,0,1-.23,1-.69S15,12.35,14.05,12c-1.6-.57-2.28-1.49-2.28-2.4C11.77,8.12,13,7,15,7a6.16,6.16,0,0,1,2.28.46L16.8,9.15a3.43,3.43,0,0,0-1.72-.45c-.57,0-.91.22-.91.68s.34.57,1.26.92c1.48.57,2.17,1.25,2.17,2.51C17.71,14.3,16.45,15.44,14.17,15.44Z" style="fill:none"/><polygon points="14.17 15.77 14.19 15.79 14.23 15.74 14.17 15.77" style="fill:#1d1d1b"/><path d="M14.46,15.65s0,0,0,0l-.17.16C14.36,15.85,14.41,15.59,14.46,15.65Z" style="fill:#1d1d1b"/><path d="M14.51,15.66c.07,0,.1,0,.11-.06S14.5,15.59,14.51,15.66Z" style="fill:#1d1d1b"/><path d="M17.53,11.61v0A0,0,0,0,0,17.53,11.61Z" style="fill:#1d1d1b"/><path d="M16.27,10.72l0,0c.29,0,.49.3.72.47h0a2.39,2.39,0,0,1,.69,1.57h0a1.67,1.67,0,0,1,0,.39l0,0s.05.08,0,.12,0,0,0,0c-.1.14,0,.47-.15.54s0,.08.06.06a2.89,2.89,0,0,1-1.26,1.37s-.05,0-.06-.05a2.39,2.39,0,0,1-1.54.43c0,.05.06,0,0,.09.18,0,.3-.12.47-.08v0c.11,0,0-.1.13-.07s0,0,0,0a1.53,1.53,0,0,0,.69-.26c.09.06.25-.09.37-.06s.11-.08.1-.14A2.38,2.38,0,0,0,17.81,13a1.27,1.27,0,0,1-.06-.18h0a2.61,2.61,0,0,0-.24-1.19h0l-.38-.46L17,11.08a3.5,3.5,0,0,0-1.42-.91c-.26-.1-.51-.19-.75-.31s-.46-.28-.45-.43c0-.45.44-.53.92-.47a4.27,4.27,0,0,1,.7.12l.35.1a5,5,0,0,1,.57.28A4.94,4.94,0,0,0,17,8.81s0,0,0,0c.07-.4.2-.65.26-1h0c0-.09.05-.28.07-.4l0-.1-.1,0-.21-.07-.65-.2a3.34,3.34,0,0,0-1.25-.11,3.39,3.39,0,0,0-2.82,1l0,0a2.44,2.44,0,0,0-.57,2.32,1.9,1.9,0,0,0,.82,1c.37.24.77.41,1.14.62a2.32,2.32,0,0,0,.81.31c.27,0,.64.2.62.51a.74.74,0,0,1-.24.62,1.45,1.45,0,0,1-.65.16,5.38,5.38,0,0,1-1.49-.07L12,13.12a7.62,7.62,0,0,1-.47,1.72c.36.08.77.48,1.24.54v0c.14.15.4-.09.48.09h0c.08.1.23-.18.27-.07l0,0c.11,0,0,0,.09.08s0-.08.08-.05c0,.18.27,0,.27.17-.06,0,.1.08,0,.12,0,0,.23,0,.21-.07s.09-.17,0-.24l0,.07c0-.07,0,0,0-.09s-.16-.11-.26-.15h0a.19.19,0,0,1-.22,0l0,0c0-.08-.18.14-.12,0a3.37,3.37,0,0,1-.92-.14c-.06,0-.23-.07-.19,0a.62.62,0,0,0-.34-.25s0,0,0,0-.11-.09-.12-.06-.07,0,0,0c-.07.05-.07,0,0,0s0,0,0-.09a.06.06,0,0,1,.08,0c.07-.29.19-.6.26-.85a.57.57,0,0,1,0-.24s0,0,0-.07v0l.07.08a.6.6,0,0,0,.28.09h0a1.58,1.58,0,0,0,.75.11c0,.15.15.15.25.21a4.92,4.92,0,0,0,.81-.05c0,.07.22,0,.24.05a1.6,1.6,0,0,0,.61-.33.94.94,0,0,0,.24-.7.87.87,0,0,0-.35-.69c-.19-.14-.36-.24-.53-.35h0a2.72,2.72,0,0,0-.38.11s0,0,0,0c-.14,0-.21-.16-.34-.19s0,0,0,0c-.13,0-.2-.17-.36-.17v0h-.09s0-.07.08,0a3.54,3.54,0,0,1-1.26-1A1.72,1.72,0,0,1,12,8.91l0,.05a1.64,1.64,0,0,1,0-.22s0,0,0,0a3.82,3.82,0,0,1,.42-.7s0,.06.05,0c.07-.2.29-.13.26-.33a.05.05,0,0,1,0,.06,2.42,2.42,0,0,1,1.54-.63,4.11,4.11,0,0,1,1.53-.11v0a2.67,2.67,0,0,1,1,.21c.45.05.14.41.1.74s-.1.48-.17.74l0,0c0,.09,0,.26-.05.3a1.73,1.73,0,0,0-1.11-.4l.05-.05c-.09.07-.31-.07-.3.08l-.08-.06a.85.85,0,0,1-.49.05.48.48,0,0,0-.49.21v0c-.07.1-.1.22-.15.29s0,0,0,0a.42.42,0,0,0,0,.57,2,2,0,0,0,.5.3l-.07,0c.2,0,.47.21.71.26l0,0h.13l0,.06C15.72,10.52,16,10.59,16.27,10.72Z" style="fill:#1d1d1b"/><path d="M17.62,13.27h0Z" style="fill:#1d1d1b"/><path d="M13.79,15.15h0Z" style="fill:#1d1d1b"/><polygon points="10.73 10.44 10.75 10.44 10.76 10.37 10.73 10.44" style="fill:#1d1d1b"/><path d="M10.87,10.13h0a2,2,0,0,1,0,.24C10.94,10.36,10.8,10.13,10.87,10.13Z" style="fill:#1d1d1b"/><path d="M10.92,10.1c.07,0,0-.1,0-.12S10.85,10.07,10.92,10.1Z" style="fill:#1d1d1b"/><path d="M10.27,4.78h0Z" style="fill:#1d1d1b"/><path d="M8.83,4.38l0,0c.29,0,.54.17.81.25h0a3.4,3.4,0,0,1,1.54,1.37h0s.09,0,.1.08,0,0,0,0c0,.17.22.4.17.51s.07.05.09,0a5.92,5.92,0,0,1,.16,1.79s0,0-.07,0A2,2,0,0,1,11,10s.07,0,.07,0c.15-.13.1-.33.23-.44l0,0c.08-.1-.07-.07,0-.16s0,0,.05,0a1.34,1.34,0,0,0,.15-.72c.09,0,.05-.25.14-.33s0-.13-.06-.15a3.65,3.65,0,0,0-.45-2.47c-.32-.26-.47-.75-.91-1h0a4,4,0,0,1-.5-.26H9.6a6.37,6.37,0,0,0-3.19-.57c-.61,0-1.19,0-1.77,0L4.21,4l-.52.09-.17,0H3.44s0,.06,0,.09l0,.35c0,.2,0,.31.07.47,0,0,0,0,0,0,0,.34,0,.65,0,1h0c.13.8,0,1.67.12,2.44,0,.94,0,2,0,3h0c.07.79-.1,1.56,0,2.35a7.93,7.93,0,0,0,.07,1.44,5.3,5.3,0,0,1,1.12,0c.41.13,1-.09,1.37-.06a.58.58,0,0,1,0-.19,7.37,7.37,0,0,0-.06-2.92,6.36,6.36,0,0,0,0-.78c.77,0,1.34-.08,2,0,.38-.17.89,0,1.32-.25l0,0c.21,0,.27-.3.44-.2v0c.12,0,.06-.29.16-.23v0c.08-.07,0,0,.11,0s0-.07,0-.09.18-.19.31,0c0,0,.13,0,.05.11s.18-.15.11-.19-.06-.18-.19-.16l0,.06c-.07,0,0,0-.09,0s-.18,0-.28,0h0c0,.1-.11.11-.15.13h0c-.07-.05-.05.2-.08.07a2.67,2.67,0,0,1-.79.4c0,.07-.22.07-.13.14a.62.62,0,0,0-.42,0l0,0c-.19-.11-.17.17-.35,0,0,.13-.28,0-.35.15a.07.07,0,0,1,0-.07,7.42,7.42,0,0,1-.83,0,.61.61,0,0,1-.36,0,1.1,1.1,0,0,0-.52.06H5.9a2.67,2.67,0,0,0,0,.79v0a1.5,1.5,0,0,0,.11.69c-.15.07-.12.17-.16.27s0,.48.1.72c-.06,0,0,.2-.06.21a3.38,3.38,0,0,1,.1.72c0,.13,0,.26,0,.39a.5.5,0,0,1,0,.16l-.15-.05-.36-.06h0a3.15,3.15,0,0,0-.3.24s0,0,0,0C5,15.1,4.9,15,4.77,15s0,0,0,0-.26-.07-.4,0v0l-.09,0s0-.08,0-.07H3.93v-.07l0-.34,0-.69c0-.46,0-.92,0-1.39l0,.05-.05-.23,0,0a8.23,8.23,0,0,0,0-.86s0,0,.06,0c-.09-.2.11-.33-.07-.43a.06.06,0,0,1,.07,0,11.21,11.21,0,0,1,0-1.74c-.16-.48,0-1-.15-1.52h0a13.46,13.46,0,0,1,0-2c0-.28,0-.47,0-.75h0a1.39,1.39,0,0,1,0-.35c0-.11,0-.26.14-.22a1.53,1.53,0,0,0,.71-.11l0,.06c.07-.09.3,0,.26-.14l.09,0c.31-.23.61,0,1-.11l0,0a.57.57,0,0,1,.31,0s0,0,0,0c.34.12.72,0,1.08,0l0,.06a2.5,2.5,0,0,1,.72,0l0,0,.12,0v.07A7.79,7.79,0,0,1,8.83,4.38Z" style="fill:#1d1d1b"/><path d="M11.15,6.13h0S11.14,6.12,11.15,6.13Z" style="fill:#1d1d1b"/><path d="M10.05,10.21h0S10.06,10.21,10.05,10.21Z" style="fill:#1d1d1b"/><polygon points="19.08 0.69 19.11 0.71 19.18 0.66 19.08 0.69" style="fill:#1d1d1b"/><path d="M19.58.7s0,0,0,0a.85.85,0,0,0-.32,0C19.34.8,19.51.61,19.58.7Z" style="fill:#1d1d1b"/><path d="M19.65.76a.2.2,0,0,0,.19.08C19.77.85,19.67.68,19.65.76Z" style="fill:#1d1d1b"/><path d="M20.14,13v0S20.14,12.94,20.14,13Z" style="fill:#1d1d1b"/><path d="M20.38,16.22l.05,0c-.1-.61,0-1.3,0-2l0,0c0-1.64-.07-3.15-.11-4.78,0,0,0,0,0,.06a.75.75,0,0,1,0-.26s0,0,0,.06c.09-.35-.06-1,0-1.23s-.05-.14-.08-.08c0-1.28,0-2.64-.11-3.94,0-.07,0-.08.07-.06a11.8,11.8,0,0,1-.1-1.69V1.57a1.06,1.06,0,0,0-.24-.65c-.05,0,0,.1-.06.06.14.24.35.41.27.73l0,0c0,.24.09.05.05.3S20,2,20,2a11,11,0,0,0,.08,1.53c-.08.12,0,.55-.08.74s0,.27.07.32c0,1.79,0,3.62,0,5.46a27.75,27.75,0,0,1,0,2.91h0a7.84,7.84,0,0,1,0,1.21l.07.34c-.07,1.19-.08,2.4-.08,3.61V19a1.12,1.12,0,0,1-.89,1.14,8.59,8.59,0,0,1-.88,0c-2.76,0-5.17-.15-7.86.06,0,0,0,0,.06,0-.78,0-1.48,0-2.21,0h0c-1.81.13-3.77,0-5.52.12a10.79,10.79,0,0,1-1.61-.05A1.24,1.24,0,0,1,.39,19c0-1.14,0-2.31,0-3.43h0c-.06-1.8.1-3.53,0-5.33S.25,6.44.35,4.58a10.08,10.08,0,0,0,0-1.9c0-.33-.05-.65-.05-1A1.08,1.08,0,0,1,.57.88,1.33,1.33,0,0,1,1.26.47a3.54,3.54,0,0,1,.8,0H3.7C4.8.43,5.89.36,7,.29c2.05.08,4.09-.14,6.08,0,.94-.12,2,.14,3,.1l0,0c.38.12.84-.16,1.07,0h0c.2.09.46-.21.58-.1l0,0c.24,0,0,0,.21.06s0-.08.17,0,.59,0,.61.16c-.13,0,.21.08-.09.12.09,0,.49,0,.45-.07s.2-.17,0-.24L19,.31c-.08-.06-.06,0-.09-.08-.32,0-.37-.11-.6-.15h0a1,1,0,0,1-.5,0l-.05,0c-.08-.07-.37.16-.27,0-.65,0-1.4,0-2.13,0-.1,0-.56,0-.4.09A2.6,2.6,0,0,0,14,.08s0,0,.05,0c-.39-.15-.47.13-.83,0-.06.13-.67,0-.87.11-.05,0-.06,0-.05-.08L10.39,0C9.91.11,9.24,0,8.83.1a6.71,6.71,0,0,0-1.37,0l0,0A9,9,0,0,0,5.94.16C5.78,0,5.55.05,5.32,0S4.24.05,3.7.11C3.62,0,3.25.14,3.22,0A11.26,11.26,0,0,1,2,.13c-.21,0-.41,0-.67,0A1.71,1.71,0,0,0,.68.48,1.61,1.61,0,0,0,.1,1.8L0,3.06V3c.05.21.17.46.24.67,0,0,0,0,0,0,0,.29-.07.57,0,.87,0,0,0,0,0,0,.05.28-.07.57,0,.9l0,0,0,.21s-.08,0-.07-.12C0,8.06.2,10.7.17,13.32l0-.1.06.51s0,0,0-.05c-.06.65,0,1.32,0,2,0,0,0-.1-.07,0,.09.47-.11.75.07,1a0,0,0,0,1-.06,0c0,.65,0,1.3,0,2a2.92,2.92,0,0,0,.09,1,1.47,1.47,0,0,0,.74.81,2.31,2.31,0,0,0,.9.05h.87a14.15,14.15,0,0,0,1.73-.06v0c1.46-.12,3,0,4.54,0,.63,0,1.06,0,1.69,0l0,0c1.07-.15,2.24.14,3.36,0l-.08.06c.17-.09.68,0,.61-.12l.2.05a21.17,21.17,0,0,1,2.3,0l-.06,0a3.51,3.51,0,0,1,.72,0l-.08,0a5.4,5.4,0,0,0,1.21.05,1.44,1.44,0,0,0,1.12-.52L20,20a1.9,1.9,0,0,0,.33-.73,5.11,5.11,0,0,0,0-.87l0,0-.05-.26h.06C20.44,17.52,20.38,16.88,20.38,16.22Z" style="fill:#1d1d1b"/><path d="M20.31,9.43Z" style="fill:#1d1d1b"/><path d="M18.21.07h0Z" style="fill:#1d1d1b"/></g></svg>