<svg id="bb9ec952-05c3-4e8a-b5f4-3fa1f5318dcc" data-name="Calque 1" xmlns="http://www.w3.org/2000/svg" viewBox="0 0 22.93 20.2"><g id="ae130a50-0844-4c65-b6df-80e21bd25bb2" data-name="react"><path d="M18.79,6.66c-.24-.09-.48-.16-.72-.23,0-.17.08-.33.11-.5.55-2.66.19-4.8-1-5.5s-3.09,0-5,1.71c-.19.17-.38.34-.55.52l-.37-.35C9.16.51,7.13-.25,5.91.46s-1.52,2.69-1,5.21c0,.25.11.49.17.74-.29.08-.57.17-.83.27C1.83,7.5.12,8.81.12,10.15S2,12.94,4.42,13.79c.2.07.41.14.61.19-.07.27-.12.54-.18.81-.47,2.48-.1,4.44,1.07,5.11s3.23,0,5.2-1.74c.16-.14.32-.28.47-.43l.61.55c1.91,1.64,3.8,2.31,5,1.63s1.6-2.8,1.09-5.38c0-.19-.08-.39-.13-.6l.42-.13C21.11,13,23,11.57,23,10.15s-1.76-2.66-4.19-3.49Zm-6-3.79c1.66-1.45,3.21-2,3.92-1.61s1,2.18.57,4.48c0,.15-.06.3-.1.45a21.93,21.93,0,0,0-3-.48,22.66,22.66,0,0,0-1.9-2.37Zm-5.16,9.6c.23.39.46.78.7,1.16-.69-.08-1.38-.19-2.07-.34a21,21,0,0,1,.73-2c.21.39.42.78.64,1.16ZM6.24,7.1c.64-.14,1.32-.26,2-.35-.23.37-.47.75-.69,1.14S7.15,8.65,7,9.05a20.25,20.25,0,0,1-.71-2Zm1.22,3.08c.29-.62.62-1.22,1-1.82S9.12,7.2,9.5,6.63c.67,0,1.36-.08,2.05-.08s1.39,0,2,.08c.38.56.74,1.14,1.09,1.73s.66,1.19,1,1.8c-.3.62-.63,1.22-1,1.82s-.7,1.17-1.08,1.74c-.66,0-1.36.07-2.06.07s-1.38,0-2-.06c-.39-.57-.76-1.15-1.1-1.74s-.66-1.2-1-1.81Zm8.06,2.28c.23-.39.44-.79.65-1.19a19.72,19.72,0,0,1,.76,2c-.69.15-1.4.28-2.1.36.24-.38.47-.76.69-1.15Zm.64-3.41c-.21-.4-.42-.79-.64-1.17s-.45-.76-.69-1.13a19.8,19.8,0,0,1,2,.36A17.43,17.43,0,0,1,16.16,9.05Zm-4.6-5a18.24,18.24,0,0,1,1.32,1.59c-.88,0-1.77,0-2.65,0C10.66,5.05,11.12,4.51,11.56,4ZM6.38,1.29C7.13.85,8.8,1.48,10.55,3l.34.31A22.76,22.76,0,0,0,9,5.71a23.39,23.39,0,0,0-3,.47c-.06-.23-.11-.46-.16-.69-.42-2.17-.14-3.79.56-4.2ZM5.29,13.06l-.55-.18a9.28,9.28,0,0,1-2.82-1.39,2,2,0,0,1-.84-1.34c0-.81,1.42-1.86,3.45-2.57.26-.09.51-.17.77-.24a23.82,23.82,0,0,0,1.1,2.84A23.8,23.8,0,0,0,5.29,13.06Zm5.2,4.37A8,8,0,0,1,8,19a2,2,0,0,1-1.58.06c-.71-.42-1-2-.6-4.11,0-.25.1-.5.16-.75a22,22,0,0,0,3,.44A23,23,0,0,0,10.92,17a5.36,5.36,0,0,1-.43.4Zm1.1-1.08a20.32,20.32,0,0,1-1.35-1.62l1.31,0c.46,0,.91,0,1.36,0A18.79,18.79,0,0,1,11.59,16.35Zm5.83,1.34a2,2,0,0,1-.73,1.39c-.71.41-2.23-.12-3.86-1.52-.19-.16-.38-.34-.57-.52a20.67,20.67,0,0,0,1.89-2.39,20.88,20.88,0,0,0,3-.47,5.41,5.41,0,0,1,.12.55,8,8,0,0,1,.11,3Zm.82-4.8-.38.11a24.9,24.9,0,0,0-1.14-2.85,21.63,21.63,0,0,0,1.09-2.8c.23.06.46.14.67.21C20.56,8.27,22,9.33,22,10.15S20.46,12.15,18.24,12.89Zm-6.69-.67a2,2,0,1,0-2-2.05,2.05,2.05,0,0,0,2,2.05Z" transform="translate(-0.05)" style="fill:#4094d1"/><path d="M18.79,6.66c-.24-.09-.48-.16-.72-.23,0-.17.08-.33.11-.5.55-2.66.19-4.8-1-5.5s-3.09,0-5,1.71c-.19.17-.38.34-.55.52l-.37-.35C9.16.51,7.13-.25,5.91.46s-1.52,2.69-1,5.21c0,.25.11.49.17.74-.29.08-.57.17-.83.27C1.83,7.5.12,8.81.12,10.15S2,12.94,4.42,13.79c.2.07.41.14.61.19-.07.27-.12.54-.18.81-.47,2.48-.1,4.44,1.07,5.11s3.23,0,5.2-1.74c.16-.14.32-.28.47-.43l.61.55c1.91,1.64,3.8,2.31,5,1.63s1.6-2.8,1.09-5.38c0-.19-.08-.39-.13-.6l.42-.13C21.11,13,23,11.57,23,10.15s-1.76-2.66-4.19-3.49Zm-6-3.79c1.66-1.45,3.21-2,3.92-1.61s1,2.18.57,4.48c0,.15-.06.3-.1.45a21.93,21.93,0,0,0-3-.48,22.66,22.66,0,0,0-1.9-2.37Zm-5.16,9.6c.23.39.46.78.7,1.16-.69-.08-1.38-.19-2.07-.34a21,21,0,0,1,.73-2c.21.39.42.78.64,1.16ZM6.24,7.1c.64-.14,1.32-.26,2-.35-.23.37-.47.75-.69,1.14S7.15,8.65,7,9.05a20.25,20.25,0,0,1-.71-2Zm1.22,3.08c.29-.62.62-1.22,1-1.82S9.12,7.2,9.5,6.63c.67,0,1.36-.08,2.05-.08s1.39,0,2,.08c.38.56.74,1.14,1.09,1.73s.66,1.19,1,1.8c-.3.62-.63,1.22-1,1.82s-.7,1.17-1.08,1.74c-.66,0-1.36.07-2.06.07s-1.38,0-2-.06c-.39-.57-.76-1.15-1.1-1.74s-.66-1.2-1-1.81Zm8.06,2.28c.23-.39.44-.79.65-1.19a19.72,19.72,0,0,1,.76,2c-.69.15-1.4.28-2.1.36.24-.38.47-.76.69-1.15Zm.64-3.41c-.21-.4-.42-.79-.64-1.17s-.45-.76-.69-1.13a19.8,19.8,0,0,1,2,.36A17.43,17.43,0,0,1,16.16,9.05Zm-4.6-5a18.24,18.24,0,0,1,1.32,1.59c-.88,0-1.77,0-2.65,0C10.66,5.05,11.12,4.51,11.56,4ZM6.38,1.29C7.13.85,8.8,1.48,10.55,3l.34.31A22.76,22.76,0,0,0,9,5.71a23.39,23.39,0,0,0-3,.47c-.06-.23-.11-.46-.16-.69-.42-2.17-.14-3.79.56-4.2ZM5.29,13.06l-.55-.18a9.28,9.28,0,0,1-2.82-1.39,2,2,0,0,1-.84-1.34c0-.81,1.42-1.86,3.45-2.57.26-.09.51-.17.77-.24a23.82,23.82,0,0,0,1.1,2.84A23.8,23.8,0,0,0,5.29,13.06Zm5.2,4.37A8,8,0,0,1,8,19a2,2,0,0,1-1.58.06c-.71-.42-1-2-.6-4.11,0-.25.1-.5.16-.75a22,22,0,0,0,3,.44A23,23,0,0,0,10.92,17a5.36,5.36,0,0,1-.43.4Zm1.1-1.08a20.32,20.32,0,0,1-1.35-1.62l1.31,0c.46,0,.91,0,1.36,0A18.79,18.79,0,0,1,11.59,16.35Zm5.83,1.34a2,2,0,0,1-.73,1.39c-.71.41-2.23-.12-3.86-1.52-.19-.16-.38-.34-.57-.52a20.67,20.67,0,0,0,1.89-2.39,20.88,20.88,0,0,0,3-.47,5.41,5.41,0,0,1,.12.55,8,8,0,0,1,.11,3Zm.82-4.8-.38.11a24.9,24.9,0,0,0-1.14-2.85,21.63,21.63,0,0,0,1.09-2.8c.23.06.46.14.67.21C20.56,8.27,22,9.33,22,10.15S20.46,12.15,18.24,12.89Zm-6.69-.67a2,2,0,1,0-2-2.05,2.05,2.05,0,0,0,2,2.05Z" transform="translate(-0.05)" style="fill:none"/><polygon points="11.5 12.22 11.5 12.05 11.5 12.05 11.5 12.05 11.5 12.05 11.5 12.04 11.5 12.04 11.48 12.07 11.49 12.06 11.5 12.05 11.5 12.05 11.5 12.05 11.5 12.05 11.5 12.05 11.5 12.05 11.5 12.22" style="fill:#1d1d1b"/><path d="M11.46,12.1v0l.06-.07S11.47,12.13,11.46,12.1Z" transform="translate(-0.05)" style="fill:#1d1d1b"/><path d="M11.44,12.09s0,0,0,0S11.44,12.13,11.44,12.09Z" transform="translate(-0.05)" style="fill:#1d1d1b"/><path d="M9.84,11.1h0Z" transform="translate(-0.05)" style="fill:#1d1d1b"/><path d="M9.55,10.65h0c.07.09.06.21.12.3h0a1.66,1.66,0,0,0,.48.63h0s0,0,.05,0h0c0,.07.14.09.15.14s0,0,0,0a1.55,1.55,0,0,0,.57.26s0,0,0,0a2,2,0,0,1,.54.09s0,0,0,0-.11,0-.16,0v0s0,0-.05,0,0,0,0,0S11,12,11,12s-.08,0-.09-.08,0,0-.06,0a2.24,2.24,0,0,1-.7-.48c-.16-.05-.17-.25-.27-.37h0a.44.44,0,0,1-.1-.16l-.05,0a2.45,2.45,0,0,1,0-1.14,3.54,3.54,0,0,1,.6-1.07s0,0,0,0a1.37,1.37,0,0,1,.28-.21h0a2.2,2.2,0,0,1,.82-.34,2.4,2.4,0,0,1,1.08.17v0a2,2,0,0,1,.67.54c.15.24.41.48.44.8s.16.43.07.61c-.14.35-.18.68-.33,1s-.42.57-.76.65c-.12.12-.33.08-.48.13v0c-.07,0-.12.11-.17,0h0s-.06.12-.09.07v0s0,0,0,0,0,0,0,0-.1,0-.11-.08,0,0,0-.06-.07,0-.07,0,0,.09,0,.12v0l0,0c.05,0,.06.05.1.07h0s.06,0,.09,0h0s.05-.08,0,0l.36-.1s.1,0,.05-.06a.19.19,0,0,0,.18,0h0c.1,0,.05-.09.15,0s.11,0,.1-.12,0,0,0,0,.22-.12.3-.18.17-.12.16-.23a.32.32,0,0,0,.16-.18v0a.5.5,0,0,0,.1-.26c.08,0,.08,0,.12-.06s.06-.19.06-.29,0-.08.06-.07a5.47,5.47,0,0,1,.09-.88h0a.64.64,0,0,0-.13-.1h0c0-.05,0-.1,0-.15h0s0-.11,0-.16h0l0,0s0,0,0,0a2.15,2.15,0,0,0-.83-1.05h0l-.09,0h0a1.08,1.08,0,0,0-.3-.16s0,0,0,0-.1-.11-.17,0a0,0,0,0,1,0,0A4.94,4.94,0,0,0,11.64,8c-.18.07-.39,0-.57.13v0a4.71,4.71,0,0,0-.69.31,1.29,1.29,0,0,0-.21.19h0c-.07.17-.31.23-.34.44l0,0s-.07.09,0,.12h0c0,.16-.14.19-.13.36h0s0,.09,0,.11h0c-.1.11-.05.27-.06.4l0,0c0,.07,0,.19,0,.27h0l0,0h0A1.87,1.87,0,0,0,9.55,10.65Z" transform="translate(-0.05)" style="fill:#1d1d1b"/><path d="M10.11,11.6Z" transform="translate(-0.05)" style="fill:#1d1d1b"/><path d="M11.71,12.35h0Z" transform="translate(-0.05)" style="fill:#1d1d1b"/><polygon points="18.24 13.05 18.25 13.05 18.26 13.02 18.24 13.05" style="fill:#1d1d1b"/><path d="M18.4,13v0l-.06.1C18.38,13.06,18.37,12.93,18.4,13Z" transform="translate(-0.05)" style="fill:#1d1d1b"/><path d="M18.42,13s0,0,0,0S18.4,12.91,18.42,13Z" transform="translate(-0.05)" style="fill:#1d1d1b"/><path d="M20.85,11.76h0Z" transform="translate(-0.05)" style="fill:#1d1d1b"/><path d="M21.34,11.24v0c-.07.12-.21.17-.31.27h0c-.28.2-.53.41-.83.59h0s0,0,0,0,0,0,0,0-.17.13-.23.12a0,0,0,0,0,0,0l-.75.41s0,0,0,0a1.82,1.82,0,0,1-.67.29s0,0,0,0,.12-.09.2-.09v0c.05,0,0-.05.05-.05s0,0,0,0a.85.85,0,0,0,.3-.15s.11,0,.16,0,.05,0,.05-.07a6.82,6.82,0,0,0,1.05-.52c.12-.16.36-.2.53-.34h0a1.16,1.16,0,0,1,.21-.16l0-.07a2.22,2.22,0,0,0,1-1.22,1.12,1.12,0,0,0-.23-.88,2,2,0,0,0-.65-.56h0c-.14-.09-.25-.2-.39-.28h0a7,7,0,0,0-1.06-.53,8.39,8.39,0,0,0-1.35-.52v0a3,3,0,0,1-.56-.18c-.13-.11-.14.1-.2.17l-.1.27c-.17.35-.21.79-.4,1.14-.16.2-.12.56-.28.75a2.38,2.38,0,0,0-.18.3,1.31,1.31,0,0,0-.07.19l.08.19c.1.21.22.41.34.61a12.12,12.12,0,0,1,.46,1.22c.13.17.09.41.19.62l0,0c0,.11.13.12.08.24h0c0,.07,0,0,.07,0s0-.06.05,0v0s0,0,0,0,0,0,0,0,.11-.05.14,0,.06,0,0,.06.11,0,.09-.06,0-.09-.05-.11v0l0,0c-.07,0-.09,0-.14,0h0s-.08,0-.08,0h0c0-.05,0,.09,0,0s0,0-.05,0l-.08-.21s-.05-.12-.08-.07,0-.17,0-.21h0c0-.1-.1-.07,0-.17s0-.14-.12-.16l0,0-.13-.4c-.09-.07-.07-.24-.17-.29a.68.68,0,0,0-.1-.28h0a.8.8,0,0,0-.18-.29c.05-.06,0-.1,0-.16s-.1-.2-.17-.3,0-.08,0-.11,0-.25.08-.39a5.42,5.42,0,0,1,.26-.48h0s0-.12-.06-.17h0c0-.06.08-.1.09-.16V9c0-.07.08-.1.07-.18h0V8.75s0,0,0,0c.11-.26.19-.52.28-.79l.13-.4c0-.14,0-.17.15-.12H18v0c.12.06.27.06.4.11s0,0,0,0,.14.11.21,0,0,0,0,0a3.19,3.19,0,0,1,.78.29,4.38,4.38,0,0,1,.69.25h0a3.93,3.93,0,0,1,.84.49L21.2,9h0c.23.09.32.36.52.49h0c.06,0,.07.12.12.07v.05c.17.09.11.27.21.44h0c0,.05,0,.11,0,.15s0,0,0,0c-.08.16-.06.34-.15.49l0,0c0,.09-.12.2-.18.29h0v0h0C21.52,11,21.44,11.14,21.34,11.24Z" transform="translate(-0.05)" style="fill:#1d1d1b"/><path d="M20.16,12.08h0Z" transform="translate(-0.05)" style="fill:#1d1d1b"/><path d="M18,12.81h0Z" transform="translate(-0.05)" style="fill:#1d1d1b"/><polygon points="17.37 17.69 17.54 17.71 17.54 17.71 17.54 17.71 17.54 17.71 17.54 17.71 17.55 17.7 17.52 17.68 17.53 17.69 17.54 17.7 17.54 17.71 17.54 17.71 17.54 17.71 17.54 17.71 17.54 17.71 17.37 17.69" style="fill:#1d1d1b"/><path d="M17.55,17.57h0l.06.09C17.64,17.63,17.52,17.59,17.55,17.57Z" transform="translate(-0.05)" style="fill:#1d1d1b"/><path d="M17.56,17.55s0-.05,0-.06S17.52,17.55,17.56,17.55Z" transform="translate(-0.05)" style="fill:#1d1d1b"/><path d="M17.45,14.88h0Z" transform="translate(-0.05)" style="fill:#1d1d1b"/><path d="M17.19,14.24l0,0c.06.06.05.24.1.36h0c.07.33.17.64.23,1h0a.07.07,0,0,1,0,.05h0c0,.07.05.21,0,.26s0,0,0,0c0,.27,0,.54.08.84h0a1.74,1.74,0,0,1,0,.72s0,0,.05,0,0-.15,0-.22h0c0-.05,0,0,0-.06s0,0,0,0a.91.91,0,0,0,0-.33s0-.12,0-.16,0-.06,0-.07a6.51,6.51,0,0,0-.07-1.16c-.1-.17,0-.4-.11-.61h0a.73.73,0,0,1-.08-.25l0-.06c0-.13,0-.24-.07-.44s-.16,0-.23,0l-.2,0c-.25.05-.5.11-.75.14a10.85,10.85,0,0,0-1.63.24s0,0,0,0l-.24,0c-.12,0-.2.11-.23.16h0c-.18.33-.49.61-.66.94s-.59.75-.87,1.14v0a1.88,1.88,0,0,1-.18.24c0,.07.13.15.17.21a2.52,2.52,0,0,0,.41.39c.27.28.68.43,1,.69s.52.23.68.4a2,2,0,0,0,1.31.45,1.2,1.2,0,0,0,1.14-.34c.08-.18.3-.29.38-.51h0c.08-.06,0-.2.08-.22h0c.05,0-.08-.12,0-.13h0c0-.05,0,0,0,0s0,0,0,0,0-.12.1-.11,0,0,.06,0,0-.1,0-.1-.08-.05-.12,0l0,0h0c0,.07-.06.07-.09.11h0s0,.08,0,.1h0s.05.09,0,.06a1,1,0,0,1-.13.4s-.06.09,0,.09-.13.09-.15.12,0,0,0,0,0,.11-.12.11-.1.08-.07.16l0,0a.43.43,0,0,1-.29.15c-.06.08-.2,0-.27.1a.58.58,0,0,0-.27,0h0a1.14,1.14,0,0,0-.32,0c0-.08-.06-.07-.1-.11s-.21,0-.33-.05-.09,0-.07-.07a1.65,1.65,0,0,1-.92-.48h0l-.18,0s0,0,0,0-.08-.1-.14-.13h0c-.06,0-.08-.1-.16-.11h0s0,0,0,0a11.66,11.66,0,0,1-1.29-1h0l-.08,0h0s0-.09.11-.22,0,0,0,0,.14-.09.11-.18l0,0a5.56,5.56,0,0,1,.5-.67c.08-.23.3-.38.4-.61h0a6,6,0,0,1,.58-.75l.34,0v0c.22-.1.48,0,.7-.09v0c0-.05.14,0,.12-.08l0,0c.15-.12.3,0,.48-.09v0a.31.31,0,0,1,.15,0v0c.17,0,.33-.07.5-.1v0c.07-.05.23-.05.33-.09v0l0,0v0C17,14.3,17.11,14.18,17.19,14.24Z" transform="translate(-0.05)" style="fill:#1d1d1b"/><path d="M17.48,15.63Z" transform="translate(-0.05)" style="fill:#1d1d1b"/><path d="M17.26,17.84h0A0,0,0,0,0,17.26,17.84Z" transform="translate(-0.05)" style="fill:#1d1d1b"/><polygon points="11.66 16.46 11.67 16.46 11.66 16.44 11.66 16.46" style="fill:#1d1d1b"/><path d="M11.7,16.38h0l0,.07S11.68,16.37,11.7,16.38Z" transform="translate(-0.05)" style="fill:#1d1d1b"/><path d="M11.72,16.37s0,0,0,0S11.69,16.35,11.72,16.37Z" transform="translate(-0.05)" style="fill:#1d1d1b"/><path d="M12.41,15.5Z" transform="translate(-0.05)" style="fill:#1d1d1b"/><path d="M12.5,15.2l0,0c0,.07-.07.09-.09.14h0a1.45,1.45,0,0,0-.22.36h0v0h0c-.06,0,0,.08-.08.08l0,0a2.16,2.16,0,0,0-.18.3h0c0,.12-.09.18-.16.25l0,0s0-.08,0-.08v0s0,0,0,0a0,0,0,0,1,0,0s.07-.07.06-.13,0,0,.08,0,0,0,0-.05a3.86,3.86,0,0,0,.3-.38c0-.11.12-.12.15-.21h0a.12.12,0,0,1,.05-.1v0c.2-.13.26-.29.53-.57l.17-.18a1.81,1.81,0,0,0-.8.06s0,0,0,0-.13,0-.2,0h0c-.16.07-.33,0-.48.07s-.4,0-.6,0v0c-.16,0-.31-.05-.47,0a.6.6,0,0,0-.28,0l-.08,0,.06.09s.06.1.12.13.1.06.1.13c0,.22.22.32.4.43s.28.23.33.42c.09,0,.06.18.13.24h0c0,.06.11,0,.06.07h0c0,.05.11,0,.08,0v0s0,0,0,0,0,0,0,0,0,0,0,.09,0,0,0,0,0,0,0,0,.07,0,.09-.08l0,0a.14.14,0,0,0,0,0s0-.06,0-.09h0s0,0,0,0l0,0s-.08,0,0,0a.8.8,0,0,1-.13-.13s0,0-.06,0a.08.08,0,0,0,0-.11h0c0-.07-.07,0,0-.07s0-.06-.09,0l0,0s-.06-.11-.09-.15-.05-.09-.13-.07,0-.09-.06-.1h0a.19.19,0,0,0-.13-.07c0-.05,0-.06,0-.09s-.08-.06-.14-.08,0,0,0-.05a.3.3,0,0,1-.18-.13c-.06-.07-.07-.13,0-.13h0a.37.37,0,0,1-.17,0h0s0,0,0,0h0s.06,0,0,0h0l0,0,.07,0,.05,0a.7.7,0,0,1,.29,0v0l.05,0v0c.06,0,.12,0,.17,0s0,0,0,0,.07.06.09,0v0a1,1,0,0,1,.35,0c.09-.08.2,0,.3-.07h0c.13-.06.27,0,.4,0l.15,0v0c.11-.08.17.06.28,0l0,0s0,0,.1-.07v0c.18-.09.1,0,.17,0h0s0,0,0,0h0c-.15.09-.06.09-.12.16h0s0,.06-.06.1h0v0h0A.75.75,0,0,0,12.5,15.2Z" transform="translate(-0.05)" style="fill:#1d1d1b"/><path d="M12.15,15.69Z" transform="translate(-0.05)" style="fill:#1d1d1b"/><path d="M11.64,16.19h0S11.64,16.19,11.64,16.19Z" transform="translate(-0.05)" style="fill:#1d1d1b"/><polygon points="10.44 17.43 10.55 17.56 10.55 17.56 10.56 17.56 10.56 17.56 10.56 17.56 10.57 17.56 10.56 17.52 10.56 17.54 10.56 17.55 10.56 17.55 10.55 17.55 10.55 17.56 10.55 17.56 10.55 17.56 10.44 17.43" style="fill:#1d1d1b"/><path d="M10.67,17.42h0v.11S10.63,17.42,10.67,17.42Z" transform="translate(-0.05)" style="fill:#1d1d1b"/><path d="M10.69,17.41a0,0,0,0,0,0-.05S10.66,17.39,10.69,17.41Z" transform="translate(-0.05)" style="fill:#1d1d1b"/><path d="M9.6,15.24h0Z" transform="translate(-0.05)" style="fill:#1d1d1b"/><path d="M9.07,14.78h0c.12.07.17.21.27.31h0c.21.28.45.5.68.76h0s0,0,0,0,0,0,0,0,.16.15.16.21,0,0,0,0a8.08,8.08,0,0,0,.57.6.05.05,0,0,1,0,0l.14.11.19.22a2,2,0,0,1-.21.2l-.14.11s0,0,0,0,.06-.12.16-.16v0c.08,0,0,0,.06-.09s0,0,0,0l.11-.1s-.06-.08-.08-.12-.14-.16-.18-.17-.07-.09-.07-.14,0,0-.07,0c-.22-.31-.49-.58-.73-.88-.17-.09-.24-.32-.39-.47h0a.59.59,0,0,1-.17-.18l-.07,0a3.46,3.46,0,0,0-.22-.31s-.07-.17-.19-.15l-.19,0c-.25,0-.51-.07-.76-.12a7.6,7.6,0,0,0-1.64-.21h0l-.23,0c-.1,0-.28-.12-.26.06h0a10.29,10.29,0,0,0-.17,1.21,6.65,6.65,0,0,0-.09,1.42h0A6.09,6.09,0,0,0,5.7,18a2,2,0,0,0,.6,1c.17.22.54.1.75.2a1.61,1.61,0,0,0,1.32-.4c.41-.14.73-.44,1.12-.6.14-.16.39-.18.55-.33h0c.1,0,.09-.18.18-.14h0c.06,0,0-.15.06-.12v0s0,0,.06,0,0,0,0,0,.08-.1.15,0,.06,0,0,.06.08-.06,0-.09,0-.09-.09-.08v0s0,0,0,0-.09,0-.14,0h0c0,.06,0,.07-.07.08h0s0,.11,0,0a3.24,3.24,0,0,1-.34.29s-.09.07,0,.09a.24.24,0,0,0-.19.06s0,0,0,0,0,.1-.15.07-.13.06-.13.15l0,0-.36.19c-.06.09-.22.09-.26.2a.49.49,0,0,0-.26.11v0a.81.81,0,0,0-.27.19c-.06-.05-.1,0-.15,0s-.21.12-.29.18-.08,0-.1,0a1,1,0,0,1-1,0h0a1.11,1.11,0,0,0-.16.07s0,0,0,0-.06-.08-.12-.11h0c-.06,0,0-.1-.13-.12h0l0,0s0,0,0,0a2.83,2.83,0,0,1-.53-1.46v0l0-.1h0c0-.14,0-.28,0-.41s0,0,0,0,.06-.15,0-.2h0a2.83,2.83,0,0,1,0-.82,4.51,4.51,0,0,1,0-.73h0a1.85,1.85,0,0,1,.08-.47L6,14.38c0-.05,0-.17.1-.13l.34,0v0c.23,0,.45.14.7.09l0,0s.14,0,.14,0l0,0c.18-.07.29.08.49.05l0,0a.24.24,0,0,1,.15,0h0c.15.09.34,0,.51.07l0,0c.08,0,.23,0,.34,0h.05v0C8.88,14.69,9,14.64,9.07,14.78Z" transform="translate(-0.05)" style="fill:#1d1d1b"/><path d="M10,15.87Z" transform="translate(-0.05)" style="fill:#1d1d1b"/><path d="M10.26,17.45h0Z" transform="translate(-0.05)" style="fill:#1d1d1b"/><polygon points="5.4 13.11 5.41 13.1 5.39 13.07 5.4 13.11" style="fill:#1d1d1b"/><path d="M5.44,13h0l0,.1S5.41,13,5.44,13Z" transform="translate(-0.05)" style="fill:#1d1d1b"/><path d="M5.46,12.94s0,0,0,0S5.42,12.94,5.46,12.94Z" transform="translate(-0.05)" style="fill:#1d1d1b"/><path d="M6.41,10.42h0Z" transform="translate(-0.05)" style="fill:#1d1d1b"/><path d="M6.2,9.73h0a2.3,2.3,0,0,1,.17.39h0l0,.07c-.11.27-.19.59-.28.89v0s0,0,0,.06,0,0,0,0,0,.22-.1.25a0,0,0,0,0,0,0c-.09.26-.18.54-.25.81h0a1.88,1.88,0,0,1-.23.69s0,0,0,0,0-.14.07-.2v0s0,0,0-.07,0,0,0,0a.84.84,0,0,0,.08-.32s0-.11.1-.13,0-.06,0-.08c.16-.35.26-.73.41-1.1,0-.2.16-.37.21-.58h0a.83.83,0,0,1,.07-.24l0-.06-.06-.07c-.12-.51-.36-1-.52-1.47l-.27-.81-.18-.43s0-.13-.08-.13l-.16.06a.93.93,0,0,0-.22.1,0,0,0,0,1,0,0c-.15.07-.31.09-.45.15h0c-.35.19-.77.28-1.09.5a6.43,6.43,0,0,0-1.26.73h0a3.93,3.93,0,0,0-.86.77.91.91,0,0,0-.23.57,2.94,2.94,0,0,0,.16.6c0,.27.36.44.47.64a2.29,2.29,0,0,0,1.19.78c.37.24.81.32,1.18.56.21,0,.38.21.6.26v0c0,.08.19,0,.21.08h0S5,12.89,5,13v0c.06,0,0,0,0,0s0,0,0,0,.13,0,.1.12,0,.05,0,.05.1,0,.1,0,.06-.07,0-.12l0,0v0c-.07,0-.06-.07-.1-.1h0s-.09,0-.11,0v0s-.1.05-.06,0l-.44-.12s-.11-.05-.1,0a.28.28,0,0,0-.16-.13h0c0-.1-.11,0-.16-.08,0,.05-.12-.07-.19,0s0,0,0,0-.27-.13-.37-.18-.21-.13-.32-.1A.74.74,0,0,0,3,12H3a.87.87,0,0,0-.32-.11c0-.08,0-.09-.07-.14s-.21-.1-.32-.13-.08-.05-.06-.09a1.22,1.22,0,0,1-.74-.7h0l-.17,0s0,0,0,0,0-.13-.05-.18h0c-.05-.05,0-.13-.07-.18h0l0,0s0,0,0,0c-.21-.44.14-1,.55-1.32v0L1.9,9s0,0,0,0,.21-.19.33-.26,0,0,0,0,.17,0,.16-.14,0,0,0,0a3.79,3.79,0,0,1,.73-.43c.17-.18.44-.22.63-.37h0a4.52,4.52,0,0,1,.91-.35c.13,0,.21-.08.34-.12v0a.6.6,0,0,1,.16-.08c.06,0,.11,0,.11,0a.62.62,0,0,0,.13.32h0s0,.14.1.1V7.9c.15.12.06.29.19.46h0a.31.31,0,0,1,.07.14h0c0,.18.13.33.19.49h0C6,9,6,9.19,6,9.29H6l0,0H6C6.08,9.48,6.15,9.6,6.2,9.73Z" transform="translate(-0.05)" style="fill:#1d1d1b"/><path d="M6.06,11.09Z" transform="translate(-0.05)" style="fill:#1d1d1b"/><path d="M5.15,12.86l0,0S5.16,12.87,5.15,12.86Z" transform="translate(-0.05)" style="fill:#1d1d1b"/><polygon points="6.33 1.29 6.25 1.14 6.25 1.14 6.25 1.14 6.25 1.14 6.24 1.14 6.24 1.14 6.23 1.18 6.24 1.16 6.25 1.15 6.25 1.15 6.25 1.15 6.25 1.15 6.25 1.15 6.25 1.15 6.33 1.29" style="fill:#1d1d1b"/><path d="M6.21,1.28h0l0-.11C6.19,1.17,6.24,1.29,6.21,1.28Z" transform="translate(-0.05)" style="fill:#1d1d1b"/><path d="M6.18,1.29s0,.05,0,.06S6.21,1.31,6.18,1.29Z" transform="translate(-0.05)" style="fill:#1d1d1b"/><path d="M5.53,3.88h0Z" transform="translate(-0.05)" style="fill:#1d1d1b"/><path d="M5.7,4.57h0a1.76,1.76,0,0,1-.06-.41h0c0-.34-.06-.66-.06-1h0a.14.14,0,0,1,0-.06s0,0,0,0,0-.22,0-.26,0,0,0,0A6.29,6.29,0,0,1,5.74,2s0,0,0,0a1,1,0,0,1,.36-.66s0,0,0,0S6,1.47,6,1.51H6s0,0,0,.06,0,0,0,0a.75.75,0,0,0-.13.32s0,.11-.09.14,0,.06,0,.08a3.79,3.79,0,0,0-.17,1.16c.07.19,0,.4,0,.62h0a.72.72,0,0,1,0,.26l0,.07a6.66,6.66,0,0,0,.18,1.53l.09.49s0,.06,0,.08H6l.18,0,.21,0a3.87,3.87,0,0,0,.8-.19s0,0,0,0c.16,0,.31,0,.46-.07h0c.36-.12.78-.11,1.14-.23.09,0,.26,0,.32-.13l.22-.28.44-.58h0c.21-.32.51-.55.73-.86a3,3,0,0,0,.35-.48s.08-.09.07-.13l-.12-.09A2.08,2.08,0,0,1,10.56,3c-.14-.22-.49-.3-.62-.5a2.5,2.5,0,0,0-1.17-.75,10,10,0,0,0-1.16-.52c-.2,0-.39-.16-.62-.14v0c-.08-.07-.17.08-.22,0h0s-.08.11-.11.07v0s0,0,0,0,0,0,0,0-.1.06-.15,0-.06,0,0-.07-.11.05-.08.08,0,.09.07.1v0l0,0c.06,0,.09,0,.13,0h0s.06,0,.09,0v0s.05-.1,0,0a1.15,1.15,0,0,1,.42,0s.11,0,.08,0,.14.09.18.1h0c.07.08.11-.05.16,0s.12.06.19,0,0,0,0,0a2.43,2.43,0,0,1,.36.16c.11,0,.21.12.32.09a.51.51,0,0,0,.24.14h0A.77.77,0,0,0,8.94,2C8.93,2,9,2,9,2.09a2.4,2.4,0,0,1,.32.13s.08,0,.06.09A1.88,1.88,0,0,1,10.2,3h.17c.05,0,.07.1.12.14h0c.06,0,.06.11.14.13h0l.05,0s0,0-.05,0l.09.08s0,0,0,0l-.23.32a8.16,8.16,0,0,1-.5.66v0l-.05.1v0a2.6,2.6,0,0,0-.25.33s0,0,0,0-.14.09-.1.18a0,0,0,0,1,0,0A5.38,5.38,0,0,1,9,5.55c0,.13-.08.12-.23.15a1.45,1.45,0,0,0-.36.08h0a7.24,7.24,0,0,1-1,.15c-.13,0-.22,0-.35.07V6c-.2.11-.48,0-.69.12v0c0,.05-.15,0-.12.08l0,0A.28.28,0,0,1,6,6.18s0,0,0-.08a.43.43,0,0,0,0-.13h0a.43.43,0,0,1,0-.14h0c0-.17-.09-.33-.11-.5h0A2.44,2.44,0,0,1,5.76,5h0l0,0h0C5.76,4.83,5.72,4.7,5.7,4.57Z" transform="translate(-0.05)" style="fill:#1d1d1b"/><path d="M5.62,3.14Z" transform="translate(-0.05)" style="fill:#1d1d1b"/><path d="M6.6,1.35h0Z" transform="translate(-0.05)" style="fill:#1d1d1b"/><polygon points="11.39 3.91 11.38 3.91 11.39 3.93 11.39 3.91" style="fill:#1d1d1b"/><path d="M11.45,4h0l0-.07S11.47,4,11.45,4Z" transform="translate(-0.05)" style="fill:#1d1d1b"/><path d="M11.43,4s0,0,0,0S11.46,4,11.43,4Z" transform="translate(-0.05)" style="fill:#1d1d1b"/><path d="M10.74,4.86h0Z" transform="translate(-0.05)" style="fill:#1d1d1b"/><path d="M10.65,5.15l0,0c0-.07.07-.09.09-.14h0A2.74,2.74,0,0,0,11,4.68h0s0,0,0,0h0c.05,0,0-.08.07-.08s0,0,0,0a2.16,2.16,0,0,0,.18-.3l0,0c0-.12.09-.18.17-.25s0,0,0,0,0,.08,0,.08v0s0,0,0,0l0,0s-.07.07-.06.13,0,0-.08,0,0,0,0,0-.19.26-.3.38-.12.12-.16.2h0a.18.18,0,0,1-.06.09V5a3.75,3.75,0,0,0-.52.56l-.11.11s-.11.09,0,.08h.56a.53.53,0,0,0,.18,0v0c.06,0,.13,0,.19,0h0c.16-.06.33,0,.48-.06a3.92,3.92,0,0,0,.59,0v0c.16,0,.31,0,.47,0a.46.46,0,0,0,.27,0l.09,0s0-.06,0-.08-.06-.09-.11-.13-.11-.06-.11-.12c0-.23-.21-.32-.39-.43s-.28-.23-.32-.42c-.1,0-.06-.18-.13-.24h0c0-.06-.1,0-.05-.07h0s-.1,0-.07,0l0,0s0,0,0,0h0c.06-.07-.05,0,0-.1s0,0,.05,0,0,0-.05,0-.07.05-.08.09l0,0,0,0s0,.06,0,.09h0s0,0,0,0v0s.08,0,0,0a.83.83,0,0,1,.14.13s0,0,.05,0a.1.1,0,0,0,0,.11h0c0,.07.08,0,0,.07s0,.06.09,0l0,0s.05.11.08.15.05.09.13.07,0,.09.06.1h0a.14.14,0,0,0,.13.07c-.05.06,0,.07,0,.1s.08,0,.13.07,0,0,0,.05a.43.43,0,0,1,.19.13c.05.08.05.12,0,.13h0a.37.37,0,0,1,.17,0h0s0,0,0,0h0c.05,0-.06,0,0,0h0l0,0-.08,0-.05,0a.81.81,0,0,1-.3,0v0l-.05,0h0c-.06,0-.12,0-.17,0s0,0,0,0-.07-.06-.09,0v0a.78.78,0,0,1-.34,0c-.1.08-.21,0-.3.07h0c-.13,0-.27,0-.4,0a.76.76,0,0,0-.15,0v0c-.05,0-.1,0-.15,0a.12.12,0,0,0-.13,0l0,0c-.05,0,0,0-.1,0v0c-.18.09-.1,0-.16,0h0s0,0,0,0h0c.15-.08.06-.09.12-.16l0,0s0-.06.07-.11h0v0l0,0S10.61,5.2,10.65,5.15Z" transform="translate(-0.05)" style="fill:#1d1d1b"/><path d="M11,4.67Z" transform="translate(-0.05)" style="fill:#1d1d1b"/><path d="M11.51,4.18h0S11.51,4.18,11.51,4.18Z" transform="translate(-0.05)" style="fill:#1d1d1b"/><polygon points="16.27 9.11 16.28 9.11 16.26 9.1 16.27 9.11" style="fill:#1d1d1b"/><path d="M16.28,9h0l.05.06C16.37,9.1,16.25,9,16.28,9Z" transform="translate(-0.05)" style="fill:#1d1d1b"/><path d="M16.29,9s0,0,0,0S16.26,9,16.29,9Z" transform="translate(-0.05)" style="fill:#1d1d1b"/><path d="M16.66,8h0Z" transform="translate(-0.05)" style="fill:#1d1d1b"/><path d="M16.65,7.68h0c0,.07,0,.11,0,.17h0a1.87,1.87,0,0,0-.09.41h0l0,0h0c-.06,0,0,.1-.05.1l0,0a2,2,0,0,0-.07.35h0a.37.37,0,0,1-.08.29l0,0s0-.08,0-.09h0s-.05,0,0,0h0s0-.08,0-.14,0,0,.06,0,0,0,0,0a3.57,3.57,0,0,0,.16-.46c0-.1.07-.15.07-.24h0a.12.12,0,0,1,0-.1l0,0a4.06,4.06,0,0,0,.28-.62L17,7.1,17,7,17,7,16.7,7a.69.69,0,0,0-.35,0s0,0,0,0-.12,0-.19,0h0c-.17,0-.32-.07-.49,0a4.89,4.89,0,0,0-.59-.09h0a1.29,1.29,0,0,1-.28-.06c-.09,0,0,0,0,.06l.08.12c.09.21.28.29.32.45s.2.15.18.27.16.35.31.49.23.28.24.47,0,.19.08.26h0c0,.05.11,0,0,.08h0s.12,0,.08,0h0s0,0,0,0,0,0,0,0,0,0-.05.08,0,0-.06,0,0,0,.06,0,.08,0,.1-.06h0l0,0s0-.05,0-.08h0c-.05,0,0,0,0,0h0s-.08,0,0,0a.78.78,0,0,1-.1-.15s0-.05-.06,0a.08.08,0,0,0,0-.1h0c0-.07-.08,0,0-.08s0-.06-.08,0l0,0A1.66,1.66,0,0,1,16,8.3c-.07,0,0-.1-.11-.1s0-.09,0-.11h0S15.75,8,15.69,8s0-.06.05-.09-.07-.07-.12-.1,0,0,0,0a.43.43,0,0,1-.22-.39h0l-.13,0h0s0-.06,0-.08h0s0-.07,0-.07h0A.71.71,0,0,0,15.11,7L15,6.92s-.06-.07,0,0l0,0,0,0,0,0c.06,0,0,0,.08,0v0s0,.06,0,0v0a.94.94,0,0,1,.32,0c.11-.06.2,0,.31,0V7c.14,0,.26,0,.4.06s.09,0,.14,0v0c.11-.06.18.1.29,0v0s.05,0,.07,0v0c.11-.07.1,0,.17,0h0s0,0,0,.05h0c-.1.06,0,.11-.07.19l0,0s0,.09,0,.14h0v0h0C16.66,7.57,16.67,7.63,16.65,7.68Z" transform="translate(-0.05)" style="fill:#1d1d1b"/><path d="M16.48,8.25Z" transform="translate(-0.05)" style="fill:#1d1d1b"/><path d="M16.25,8.91h0S16.25,8.91,16.25,8.91Z" transform="translate(-0.05)" style="fill:#1d1d1b"/><polygon points="15.47 12.46 15.33 12.38 15.32 12.38 15.32 12.38 15.32 12.38 15.32 12.38 15.34 12.4 15.33 12.39 15.33 12.38 15.33 12.38 15.33 12.38 15.33 12.38 15.33 12.38 15.47 12.46" style="fill:#1d1d1b"/><path d="M15.4,12.46h0l0-.06S15.43,12.46,15.4,12.46Z" transform="translate(-0.05)" style="fill:#1d1d1b"/><path d="M15.39,12.46s0,0,0,0S15.42,12.48,15.39,12.46Z" transform="translate(-0.05)" style="fill:#1d1d1b"/><path d="M14.75,13.54Z" transform="translate(-0.05)" style="fill:#1d1d1b"/><path d="M15,13.56l0,0c-.1.06-.13,0-.14,0h0a1.51,1.51,0,0,0,.13-.33h0v0h0s0-.09.06-.09l0,0a1.62,1.62,0,0,0,.13-.33l0,0a.41.41,0,0,1,.13-.28s0,0,0,0,0,.08,0,.08h0s0,0,0,0l0,0s0,.08,0,.14,0,0-.07,0,0,0,0,0a4.19,4.19,0,0,0-.24.42c0,.11-.14.21-.18.34h0s0,.07-.05.12h0c0,.05.23,0,.37,0l.36-.06a1.36,1.36,0,0,0,.69-.14h0c.06,0,.13,0,.19,0h0c.16-.1.32,0,.49-.15H17l0,0-.06-.16-.13-.29h0c-.09-.14-.06-.31-.14-.45s-.21-.29-.22-.46-.17-.19-.13-.31a.91.91,0,0,0-.09-.4,1.2,1.2,0,0,0-.13.39c-.11.11-.11.34-.27.45,0,.1-.15.12-.18.21h0c-.07,0,0,.1-.05.08h0c-.05,0,.07.09,0,.08h0s0,0,0,0,0,0,0,0,0,.05-.1,0,0,0-.05,0,0,0,0,0,.07.06.11.06l0,0h0s.06,0,.09,0h0s0,0,0-.05h0s0-.07,0,0a.89.89,0,0,1,.08-.17s0-.05,0-.06a.08.08,0,0,0,.1,0h0c.08,0,0-.07.06-.05-.06,0,0-.05,0-.1l0,0a1.71,1.71,0,0,1,.11-.14c0-.07.07-.08,0-.15s.08,0,.05-.06h0v-.1a.43.43,0,0,1,0,.12.53.53,0,0,1,0-.12c0,.07,0,0,0,.08,0-.09,0-.06.05,0v.19h.11s0,.06,0,.08h0s0,.07,0,.08h0c.07.22.23.4.3.63h0l.05,0h0c0,.06.06.1.07.16h0c.06,0,0,.08.06.07h0a.42.42,0,0,1,.11.24c.08.06,0,.07,0,.07a.24.24,0,0,0-.12,0h0c-.12.07-.27,0-.4.07a.74.74,0,0,0-.14,0v0c-.08.09-.21,0-.29.07v0s-.06,0,0,.06l0,0c0,.11-.13,0-.2.06v0s0,0-.06,0v0c-.08-.05-.14,0-.21,0v0s-.1,0-.13,0v0l0,0v0A1.38,1.38,0,0,1,15,13.56Z" transform="translate(-0.05)" style="fill:#1d1d1b"/><path d="M15.06,13.2h0Z" transform="translate(-0.05)" style="fill:#1d1d1b"/><path d="M15.68,12.47h0Z" transform="translate(-0.05)" style="fill:#1d1d1b"/><polygon points="7.41 10.18 7.26 10.25 7.26 10.25 7.26 10.25 7.26 10.25 7.26 10.25 7.26 10.26 7.25 10.27 7.29 10.28 7.28 10.27 7.27 10.26 7.26 10.25 7.26 10.25 7.26 10.25 7.26 10.25 7.26 10.25 7.26 10.25 7.41 10.18" style="fill:#1d1d1b"/><path d="M7.45,10.4h0l-.13-.08C7.33,10.38,7.46,10.36,7.45,10.4Z" transform="translate(-0.05)" style="fill:#1d1d1b"/><path d="M7.46,10.43c0,.05,0,.05.06.06S7.49,10.41,7.46,10.43Z" transform="translate(-0.05)" style="fill:#1d1d1b"/><path d="M9.61,13.83h0Z" transform="translate(-0.05)" style="fill:#1d1d1b"/><path d="M10.65,13.75v0a4.14,4.14,0,0,1-.61,0H9.68c-.06,0-.13,0-.16,0l-.1-.14L9,12.92H9s-.05,0-.06-.06H9c0-.12-.19-.25-.2-.33s0,0,0,0c-.23-.33-.46-.7-.67-1.05,0,0,0,0,0,0a3.93,3.93,0,0,1-.53-.94s0,0,0,0,.14.17.16.28h0c0,.08,0,0,.06.08s0,0,0,0a2.26,2.26,0,0,0,.26.42s.08.15.08.22.05.07.08.07A13.28,13.28,0,0,0,9,13.09a1.23,1.23,0,0,1,.26.36l.11.21.08.13c0,.07.12,0,.17,0h0a1.61,1.61,0,0,1,.38,0l.11,0a16,16,0,0,0,2.3.06h1.1s.19.05.22,0a9.69,9.69,0,0,0,.62-1.12s0,0,0,0c.12-.21.26-.39.37-.6h0c.23-.53.57-1,.77-1.57l.12-.23c0-.06.12-.17,0-.25l-.25-.48-.54-.94h0c-.29-.49-.54-1-.86-1.45-.07-.13-.15-.26-.23-.38l-.14-.2a1,1,0,0,0-.24,0,5.41,5.41,0,0,1-.9,0c-.36-.08-.84,0-1.18,0a4.61,4.61,0,0,0-1.05,0l-.51,0a.85.85,0,0,0-.25.05l-.12.23C9,7.41,8.74,8,8.35,8.51a8,8,0,0,1-.49.82h0c-.1.08,0,.27-.16.3v0c-.07,0,0,.18,0,.19l0,0c0,.07,0,0-.06,0s0,0,0,.06-.07.18-.17.14-.06,0,0-.05-.07.13,0,.14,0,.09.12,0l0,0h0c.06-.09.11-.08.16-.13h0c0-.06,0-.11.07-.14h0s0-.14,0-.08c.08-.19.19-.4.3-.6,0,0,.08-.16,0-.14s.16-.16.19-.22,0,0,0,0,0-.17.14-.22c0-.05.11-.18.09-.27s0,0,0,0l.35-.51c0-.15.21-.29.21-.44a1.21,1.21,0,0,0,.25-.35h0a2.74,2.74,0,0,0,.18-.36c0,.07.12,0,.19.08s.33,0,.5-.08.14,0,.15,0a4,4,0,0,1,1.59,0h0a1.39,1.39,0,0,0,.21-.11s0,0,0,0a2.51,2.51,0,0,1,.27,0s0,0,0,0,.18,0,.29,0h0l.07,0a0,0,0,0,1,0,0l.61,0c.13,0,.14,0,.16,0l.18.26c.23.34.46.68.68,1l0,0,.11.12h0c.09.18.23.35.31.53,0,0,0,0,0,0s.07.23.18.26,0,0,0,0a10.43,10.43,0,0,1,.6,1.09c.07.07.1.08.05.16l-.12.25a2.27,2.27,0,0,0-.23.5h0a9.7,9.7,0,0,1-.69,1.26c-.11.17-.16.29-.27.46h0c-.11.33-.43.57-.54.91v0c0,.09-.1.13-.07.17l-.07,0c-.24.11-.44,0-.73,0l0,0a.63.63,0,0,1-.23,0l0,0a3.42,3.42,0,0,0-.78,0l0,0a2.09,2.09,0,0,1-.51,0h0l-.09,0v0C11.06,13.73,10.86,13.75,10.65,13.75Z" transform="translate(-0.05)" style="fill:#1d1d1b"/><path d="M9,12.88Z" transform="translate(-0.05)" style="fill:#1d1d1b"/><path d="M7.71,10v0Z" transform="translate(-0.05)" style="fill:#1d1d1b"/><polygon points="6.19 7.1 6.03 7.15 6.03 7.15 6.02 7.15 6.02 7.15 6.02 7.16 6.05 7.16 6.04 7.15 6.03 7.15 6.03 7.15 6.03 7.15 6.03 7.15 6.03 7.15 6.19 7.1" style="fill:#1d1d1b"/><path d="M6.15,7.19H6.08S6.17,7.17,6.15,7.19Z" transform="translate(-0.05)" style="fill:#1d1d1b"/><path d="M6.15,7.2s0,0,0,0S6.18,7.18,6.15,7.2Z" transform="translate(-0.05)" style="fill:#1d1d1b"/><path d="M6.54,8.23h0Z" transform="translate(-0.05)" style="fill:#1d1d1b"/><path d="M6.75,8.45h0c-.07,0,0-.11-.08-.16h0a2.24,2.24,0,0,0-.2-.37h0s0-.07,0-.1h0a1,1,0,0,0-.17-.3l0,0a.37.37,0,0,1-.13-.27s0,0,0,0,.07,0,0,.08h0s0,0,0,0h0s0,.09.08.12,0,0,0,.07,0,0,0,0c0,.16.13.3.18.45s0,.16.1.23h0a.15.15,0,0,1,.06.09h0a3.47,3.47,0,0,0,.22.74l0,.15s0,.13,0,.06l.14-.22c0-.09.1-.18.14-.27a.65.65,0,0,0,0-.18h0c0-.07.07-.11.09-.17h0c0-.17.16-.28.17-.45s.2-.34.29-.52h0c.05-.15.2-.24.26-.38a.62.62,0,0,0,.12-.25.24.24,0,0,1,0-.09s-.07,0-.09,0-.11,0-.17,0-.1.06-.16,0-.38,0-.56.13-.34.12-.53.07-.18,0-.27,0V7c0-.06,0,.09-.09,0h0s0,.11,0,.06v0s0,0,0,0,0,0,0,0,0,0-.07-.07,0,0,0-.06,0,0,0,0,0,.08,0,.11v0l0,0s0,0,.06.06h0s0,0,0,0v0s0-.08,0,0a.53.53,0,0,1,.18,0s0,0,0,0a.11.11,0,0,0,.1,0h0c0,.06,0-.07.07,0s.06,0,.06-.07l0,0a1,1,0,0,1,.17,0c0-.06.1,0,.12-.08s.08,0,.12,0h0A.16.16,0,0,0,7.38,7c0,.07,0,0,.07.07S7.54,7,7.58,7s0,0,0,0S8,6.9,7.93,7h0A1.11,1.11,0,0,1,8,6.84v0s0,0,0,0l0,0c.05,0,0,0,0,0l0,0,0,0L8,6.94S8,7,8,7a1,1,0,0,1-.13.27v0h0s0,.11-.08.15h0c0,.05-.09,0,0,.09l0,0a.87.87,0,0,1-.16.3c0,.13-.09.18-.09.3h0c0,.14-.13.23-.18.36s0,.08-.06.13h0a.15.15,0,0,1-.06.13s-.06,0-.06.12v0c0,.07,0,0,0,.12H7C7,9.09,7,9,6.94,9V9s0,0,0,0v0c0-.18,0-.1-.08-.18l0,0s0-.07-.06-.11h0l0,0h0S6.77,8.5,6.75,8.45Z" transform="translate(-0.05)" style="fill:#1d1d1b"/><path d="M6.51,7.91Z" transform="translate(-0.05)" style="fill:#1d1d1b"/><path d="M6.34,7.23h0A0,0,0,0,0,6.34,7.23Z" transform="translate(-0.05)" style="fill:#1d1d1b"/><polygon points="7.54 12.47 7.68 12.39 7.68 12.39 7.69 12.38 7.69 12.38 7.66 12.39 7.67 12.39 7.68 12.39 7.68 12.39 7.68 12.39 7.68 12.39 7.68 12.39 7.54 12.47" style="fill:#1d1d1b"/><path d="M7.66,12.37h.06S7.64,12.39,7.66,12.37Z" transform="translate(-0.05)" style="fill:#1d1d1b"/><path d="M7.66,12.36s0,0,0,0S7.63,12.38,7.66,12.36Z" transform="translate(-0.05)" style="fill:#1d1d1b"/><path d="M7,11.27H7Z" transform="translate(-0.05)" style="fill:#1d1d1b"/><path d="M6.91,11.47v0c0-.11,0-.13,0-.13v0c0,.11.12.14.21.28h0c0,.05.07.07,0,.1s0,0,0,0a2.69,2.69,0,0,0,.22.28l0,0c.11.05.13.15.17.25l0,0s-.07,0,0-.08h0s0,0,0,0l0,0s0-.08-.1-.1,0,0,0-.07,0,0,0,0c-.06-.15-.17-.27-.24-.42s-.11-.23-.2-.33H7a.17.17,0,0,1-.07-.1l0,0c-.06,0-.12.18-.17.32a3,3,0,0,1-.14.33,1.35,1.35,0,0,0-.21.67h0c0,.07-.06.12-.07.19h0c0,.18-.12.3-.12.5l0,.07,0,0h.05l.17,0,.31,0h0c.17,0,.3.1.47.1s.34,0,.5,0,.24,0,.33.05a.77.77,0,0,0,.39.12,1.42,1.42,0,0,0-.28-.31c0-.15-.24-.27-.26-.46-.09,0,0-.18-.09-.25h0c0-.06-.11,0,0-.09h0s-.12,0-.08,0h0s0,0,0,0,0,0,0,0,0,0,0-.08,0,0,.06,0,0,0,0,0-.09,0-.11.06h0l0,0s0,.05,0,.08h0s0,0,0,0h0s.08,0,0,0a.53.53,0,0,1,.11.15s0,0,.06,0a.08.08,0,0,0,0,.1h0c0,.07.08,0,0,.08s0,.06.08,0l0,0s.05.12.07.16,0,.1.12.09,0,.09,0,.08H8l.09,0-.12,0,.11.07c-.07,0,0,0-.07,0,.07.06,0,.07,0,.06a.1.1,0,0,1-.05,0,.3.3,0,0,1-.11-.06h0s0,.08-.08.11h0s0-.05-.08,0v0s0-.05-.08,0v0l0,0s0,0,0,0c-.22-.05-.46,0-.69-.06h0l0,0v0s-.12,0-.17,0,0,0,0,0,0-.06-.09,0a0,0,0,0,1,0,0,.57.57,0,0,1-.27,0c-.09,0-.07,0,0,0a.27.27,0,0,0,0-.13h0c0-.14.1-.25.14-.38a.8.8,0,0,0,0-.15h0c0-.12.14-.17.09-.29l0,0s0,0,0-.07h0c-.07-.1.08-.1.05-.2h0s0,0,0-.06h0c.08,0,0-.14.07-.21l0,0s0-.09,0-.13h0l0,0,0,0A1.55,1.55,0,0,1,6.91,11.47Z" transform="translate(-0.05)" style="fill:#1d1d1b"/><path d="M7.19,11.7Z" transform="translate(-0.05)" style="fill:#1d1d1b"/><path d="M7.51,12.61h0S7.51,12.61,7.51,12.61Z" transform="translate(-0.05)" style="fill:#1d1d1b"/><polygon points="12.59 2.74 12.58 2.74 12.58 2.77 12.59 2.74" style="fill:#1d1d1b"/><path d="M12.58,2.87h0V2.77C12.55,2.77,12.62,2.88,12.58,2.87Z" transform="translate(-0.05)" style="fill:#1d1d1b"/><path d="M12.56,2.88s0,0,0,.06S12.59,2.91,12.56,2.88Z" transform="translate(-0.05)" style="fill:#1d1d1b"/><path d="M13.46,5h0Z" transform="translate(-0.05)" style="fill:#1d1d1b"/><path d="M14,5.5h0c-.12-.07-.17-.21-.28-.3h0a9.78,9.78,0,0,0-.68-.75h0s0,0,0,0h0c0-.09-.16-.15-.16-.21s0,0,0,0a8,8,0,0,0-.56-.6s0,0,0,0-.39-.27-.11-.38c.13-.12.2-.16.3-.25s0,0,0,0-.07.13-.15.15V3c-.05,0,0,0,0,.06s0,0,0,0l-.19.18c-.13.06.05.15.1.2s.1.14.09.18,0,0,.07,0c.22.31.49.58.73.88.17.09.24.32.39.47h0a.77.77,0,0,1,.18.18l.07,0a2.11,2.11,0,0,0,.21.31l.12.17c0,.1.19,0,.23.08L15,6a7.62,7.62,0,0,0,1.63.23s0,0,0,0c.17,0,.27.06.53.08h0c.09-.26.09-.44.15-.63a2.34,2.34,0,0,0,.06-.58,6.06,6.06,0,0,0,.09-1.42h0a6.14,6.14,0,0,0-.08-1.13,2.37,2.37,0,0,0-.51-1.07c-.12-.26-.5-.24-.7-.31a1.62,1.62,0,0,0-1.32.35c-.42.14-.73.45-1.12.61-.13.16-.38.18-.55.34h0c-.1,0-.09.17-.18.13h0c-.06,0,0,.15-.06.12v0s0,0-.06,0,0,0,0,0-.08.1-.15,0-.06,0,0-.06-.08.07,0,.09,0,.1.09.09l0,0,.05,0c.05,0,.09,0,.14,0h0s0-.06.07-.08h0s0-.11,0,0a3.24,3.24,0,0,1,.34-.29s.1-.07,0-.09.16,0,.2-.06,0,0,0,0,0-.11.16-.08c0-.06.12-.06.12-.15l0,0c.11-.08.25-.13.35-.19s.22-.1.26-.2a.55.55,0,0,0,.25-.11h0a.8.8,0,0,0,.27-.18c.06.05.1,0,.15,0a2.09,2.09,0,0,1,.3-.15s.08,0,.1,0a.81.81,0,0,1,.92,0h0l.16,0h0c.06,0,.06.11.11.14h0c.06,0,0,.11.11.14h0l0,0s0,0-.05,0a3.27,3.27,0,0,1,.47,1.5l0,0,0,.1h0c0,.14,0,.28,0,.41s0,0,0,0-.06.15,0,.2,0,0,0,0a3.23,3.23,0,0,1-.05.82,4.51,4.51,0,0,1,0,.73h0a1.5,1.5,0,0,1-.08.47c-.05.15,0,.35-.21.26l-.35,0v0c-.24,0-.46-.14-.7-.09l0,0s-.14,0-.14,0l0,0c-.17.07-.28-.09-.48-.06h0a.32.32,0,0,1-.15,0h0c-.15-.09-.34,0-.51-.07l0,0a2.35,2.35,0,0,1-.35,0h0v0c-.08,0-.14,0-.17,0Z" transform="translate(-0.05)" style="fill:#1d1d1b"/><path d="M13.07,4.41Z" transform="translate(-0.05)" style="fill:#1d1d1b"/><path d="M13,2.85h0Z" transform="translate(-0.05)" style="fill:#1d1d1b"/><polygon points="18.74 6.66 18.69 6.81 18.69 6.81 18.69 6.81 18.69 6.82 18.69 6.82 18.7 6.82 18.7 6.82 18.72 6.83 18.82 6.84 18.75 6.83 18.72 6.82 18.7 6.82 18.7 6.82 18.69 6.81 18.69 6.81 18.69 6.81 18.69 6.81 18.69 6.81 18.74 6.66" style="fill:#1d1d1b"/><path d="M19.34,7l0,0L19,6.89C19.09,7,19.25,6.91,19.34,7Z" transform="translate(-0.05)" style="fill:#1d1d1b"/><path d="M19.43,7a.38.38,0,0,0,.23.06C19.6,7.09,19.42,7,19.43,7Z" transform="translate(-0.05)" style="fill:#1d1d1b"/><path d="M18.22,14.89v0S18.21,14.88,18.22,14.89Z" transform="translate(-0.05)" style="fill:#1d1d1b"/><path d="M18.33,18.11l0,0a8.21,8.21,0,0,0,.14-1.93v0a13.62,13.62,0,0,0-.34-2.32,13.84,13.84,0,0,0,2.17-.9s0,0,0,0a1.91,1.91,0,0,1,.21-.14s0,0,0,0a7.67,7.67,0,0,0,1-.63c.07-.06.09-.1,0-.08a3.72,3.72,0,0,0,1.23-1.44,1.72,1.72,0,0,0-.29-1.77c0-.05,0-.07,0-.06a8.09,8.09,0,0,0-2.73-1.87s.1.07,0,0a8.19,8.19,0,0,1,.89.42h-.05c.2.12.07,0,.27.12s0,0,0,0a8.45,8.45,0,0,1,1.21.86c.06.1.37.38.43.56s.13.21.18.23a1.67,1.67,0,0,1,.13,1.22,2.73,2.73,0,0,1-.69,1.08,7.37,7.37,0,0,1-2.22,1.48,6.13,6.13,0,0,1-1.27.52l-.35.11c-.07,0-.2,0-.24.09l.05.26.15.74h0a6.9,6.9,0,0,1,.15,1.18l.05.33a4.39,4.39,0,0,1-1,3.25,2,2,0,0,1-1.64.41,4.79,4.79,0,0,1-1.66-.59,9,9,0,0,1-1.62-1.13c-.27-.21-.44-.39-.75-.67l-.07-.07s-.06-.05-.08,0l-.15.14-.19.16-.35.32a8.62,8.62,0,0,1-3.31,1.84s0,0,.05,0a2.18,2.18,0,0,1-2-.44h0a3.5,3.5,0,0,1-.91-2.48A11.78,11.78,0,0,1,5,14.42L5.05,14c0-.08-.12-.06-.17-.1l-.19-.06-.78-.27a11.68,11.68,0,0,1-1.52-.72,6.47,6.47,0,0,1-1.37-1,2.7,2.7,0,0,1-.86-1.42h0A2.41,2.41,0,0,1,1.33,8.22,9.72,9.72,0,0,1,3.63,7c.42-.17.85-.3,1.31-.45l.11,0h0V6.39l0-.2L5,5.85c-.06-.23-.1-.46-.14-.69a7.54,7.54,0,0,1,0-2.8A3.54,3.54,0,0,1,5.6.69,1.91,1.91,0,0,1,7.31.21,7.66,7.66,0,0,1,10.23,1.6a13.5,13.5,0,0,1,1.27,1c.06.09.11,0,.17,0l.15-.14.29-.29c.2-.19.41-.37.62-.55A8,8,0,0,1,15.43.22a2.59,2.59,0,0,1,1.51.05,2,2,0,0,1,1,1.06,5.43,5.43,0,0,1,.39,2.94l0,0a5.65,5.65,0,0,1-.12,1.06v0c-.07.18,0,.47-.05.58l0,0c0,.24,0,0-.08.2s0,0,0,.18,0,0-.06.09l0,.09a.3.3,0,0,0,.1,0c.14,0,.27.08.27.13s.18.1-.11,0c.08,0,.46.15.44.1s.21,0,0-.13H18.7c-.06,0-.05,0-.07-.06-.28-.1-.41-.18-.4-.21h0s0,0,0-.15L18.3,6l0,0c.05-.07,0-.37,0-.26a12.1,12.1,0,0,0,.17-2.13c0-.1,0-.56-.06-.4a3,3,0,0,0-.07-.93s0,0,0,0c0-.41-.18-.43-.24-.81-.07,0-.32-.63-.55-.73q0-.08,0-.06A2.22,2.22,0,0,0,15.73,0a4.28,4.28,0,0,0-1.51.53A5.34,5.34,0,0,0,13,1.25l0,0a6.73,6.73,0,0,0-1.19,1,.83.83,0,0,0-.25.15l-.06,0s0,0,0,0c-.2-.15-.8-.69-1.24-1-.05-.08-.38-.25-.38-.3a8.2,8.2,0,0,0-2.29-1,2.85,2.85,0,0,0-1.33,0A2.09,2.09,0,0,0,5.21.87l0,0A2.24,2.24,0,0,0,5,1.5s0,0,0,0a4.52,4.52,0,0,0-.29.83V2.26a4.08,4.08,0,0,0-.12.9v.23s0,0,0-.13A9.68,9.68,0,0,0,4.66,5.2c.06.32.12.64.2,1s.07.16,0,.21l-.46.15A9.73,9.73,0,0,0,.94,8.41L1,8.33a4.24,4.24,0,0,0-.33.39s0,0,0-.05a2.07,2.07,0,0,0-.6,1.84s0-.1,0,0c.15.45.24.75.45.9,0,0,0,0,0,0a8.09,8.09,0,0,0,3.25,2.21l.8.25.39.12S5,14,5,14l0,.07,0,.2A7.83,7.83,0,0,0,4.67,16h0a8,8,0,0,0,.16,2.23A2.41,2.41,0,0,0,6.11,20a2.62,2.62,0,0,0,1.66.06h0a7.55,7.55,0,0,0,2.92-1.57l0,.07c.11-.14.53-.42.43-.43l.16-.12.18-.21c.07,0,.14-.22.22-.09l.39.38a5,5,0,0,0,.94.76l-.06,0,.59.39-.06,0a4.82,4.82,0,0,0,2.23.92l-.1,0a2.58,2.58,0,0,0,1.6-.25l0,0,.2-.16,0,0A2.91,2.91,0,0,0,18.33,18.11Z" transform="translate(-0.05)" style="fill:#1d1d1b"/><path d="M20.46,13h0Z" transform="translate(-0.05)" style="fill:#1d1d1b"/><path d="M18.24,6.31v0S18.24,6.32,18.24,6.31Z" transform="translate(-0.05)" style="fill:#1d1d1b"/></g></svg>