<svg id="b0d4d2f1-be71-478d-9abf-fb3bffc0141b" data-name="Calque 1" xmlns="http://www.w3.org/2000/svg" viewBox="0 0 26.69 20.24"><path d="M12.83,15.37Zm10.38-3.62a5.47,5.47,0,0,0-2.42.56,4.91,4.91,0,0,1-.54-1.26A3.27,3.27,0,0,1,20.2,10a7.94,7.94,0,0,1,.32-1.13s-.06-.28-.6-.28-1,.1-1.05.24a4.52,4.52,0,0,0-.22.8A20,20,0,0,1,17,12.77a3.31,3.31,0,0,1-.37-.92,3.27,3.27,0,0,1,0-1,8.7,8.7,0,0,1,.32-1.14s-.06-.27-.6-.28-1,.11-1.05.25-.11.47-.22.79-1.41,3.23-1.75,4c-.18.38-.33.69-.44.9a.43.43,0,0,1,0,.07l0,0-.15.28h0c-.07.13-.15.25-.19.25a1.78,1.78,0,0,1,0-.82c.2-1,.66-2.58.66-2.63s.09-.3-.31-.45a.5.5,0,0,0-.55.09s-.05.09-.05.09.42-1.77-.81-1.77A3.68,3.68,0,0,0,9.1,12L7.31,13l-.86.48-.06-.07C4.9,11.78,2.14,10.66,2.26,8.52c0-.78.31-2.82,5.3-5.31,4.08-2,7.34-1.47,7.9-.23.81,1.77-1.74,5.07-6,5.54A3.16,3.16,0,0,1,6.8,7.84c-.22-.24-.25-.26-.34-.21s0,.29,0,.42A2.53,2.53,0,0,0,8,9.25a8,8,0,0,0,5-.49c2.58-1,4.58-3.75,4-6.06S12.46-.42,8.77.88A18.59,18.59,0,0,0,2.5,4.48C.47,6.38.14,8,.28,8.73c.47,2.45,3.85,4,5.21,5.24l-.19.1c-.68.34-3.26,1.69-3.9,3.11-.73,1.62.12,2.78.68,2.94A4.16,4.16,0,0,0,6.56,18.3,4.55,4.55,0,0,0,7,14.15s0,0,0,0l.53-.31,1-.56A6.7,6.7,0,0,0,8.1,15a3.72,3.72,0,0,0,.8,2.57.89.89,0,0,0,.64.21c.57,0,.83-.48,1.12-1s.67-1.5.67-1.5-.4,2.18.68,2.18c.39,0,.78-.51,1-.77h0l0-.05a.51.51,0,0,1,.07-.1v0c.15-.27.5-.89,1-1.91.67-1.33,1.32-3,1.32-3a7.94,7.94,0,0,0,.26,1.07A8.46,8.46,0,0,0,16.22,14L16,14.3h0c-.13.17-.27.35-.42.52a16.68,16.68,0,0,0-1.25,1.57.43.43,0,0,0,.12.57,1,1,0,0,0,.65.11,2.88,2.88,0,0,0,1-.23,3.53,3.53,0,0,0,.84-.44,1.85,1.85,0,0,0,.81-1.66,3.21,3.21,0,0,0-.3-1.17l.14-.21A21.44,21.44,0,0,0,19,10.83a8.08,8.08,0,0,0,.26,1.08A7.55,7.55,0,0,0,19.74,13a4.47,4.47,0,0,0-1.42,1.84c-.31.88-.07,1.28.38,1.37a1.3,1.3,0,0,0,.71-.14,3.19,3.19,0,0,0,.9-.46,2,2,0,0,0,1-1.65,3.41,3.41,0,0,0-.23-1,5.19,5.19,0,0,1,2.59-.3c2.32.27,2.77,1.72,2.68,2.33a1.53,1.53,0,0,1-.73,1c-.17.1-.22.14-.2.21s.09.1.23.08a1.8,1.8,0,0,0,1.26-1.61c.07-1.42-1.29-3-3.71-3Zm-17.89,6c-.76.84-1.84,1.16-2.3.89s-.3-1.52.65-2.41a12.38,12.38,0,0,1,1.8-1.35L6,14.61l0,0,.12-.07a3.31,3.31,0,0,1-.8,3.26Zm5.6-3.8c-.26.65-.83,2.32-1.17,2.23s-.47-1.35-.06-2.6a5.57,5.57,0,0,1,.92-1.67c.42-.47.88-.62,1-.43A8.54,8.54,0,0,1,10.92,14Zm4.63,2.2c-.12.06-.22.1-.27.07s.05-.1.05-.1.57-.62.8-.9l.46-.58v.06a1.92,1.92,0,0,1-1,1.45Zm3.56-.81c-.08-.06-.07-.25.21-.86a3.25,3.25,0,0,1,.79-1,1.38,1.38,0,0,1,.08.45,1.45,1.45,0,0,1-1.08,1.43Z" transform="translate(-0.23 -0.09)" style="fill:#f29286"/><path d="M12.83,15.37Zm10.38-3.62a5.47,5.47,0,0,0-2.42.56,4.91,4.91,0,0,1-.54-1.26A3.27,3.27,0,0,1,20.2,10a7.94,7.94,0,0,1,.32-1.13s-.06-.28-.6-.28-1,.1-1.05.24a4.52,4.52,0,0,0-.22.8A20,20,0,0,1,17,12.77a3.31,3.31,0,0,1-.37-.92,3.27,3.27,0,0,1,0-1,8.7,8.7,0,0,1,.32-1.14s-.06-.27-.6-.28-1,.11-1.05.25-.11.47-.22.79-1.41,3.23-1.75,4c-.18.38-.33.69-.44.9a.43.43,0,0,1,0,.07l0,0-.15.28h0c-.07.13-.15.25-.19.25a1.78,1.78,0,0,1,0-.82c.2-1,.66-2.58.66-2.63s.09-.3-.31-.45a.5.5,0,0,0-.55.09s-.05.09-.05.09.42-1.77-.81-1.77A3.68,3.68,0,0,0,9.1,12L7.31,13l-.86.48-.06-.07C4.9,11.78,2.14,10.66,2.26,8.52c0-.78.31-2.82,5.3-5.31,4.08-2,7.34-1.47,7.9-.23.81,1.77-1.74,5.07-6,5.54A3.16,3.16,0,0,1,6.8,7.84c-.22-.24-.25-.26-.34-.21s0,.29,0,.42A2.53,2.53,0,0,0,8,9.25a8,8,0,0,0,5-.49c2.58-1,4.58-3.75,4-6.06S12.46-.42,8.77.88A18.59,18.59,0,0,0,2.5,4.48C.47,6.38.14,8,.28,8.73c.47,2.45,3.85,4,5.21,5.24l-.19.1c-.68.34-3.26,1.69-3.9,3.11-.73,1.62.12,2.78.68,2.94A4.16,4.16,0,0,0,6.56,18.3,4.55,4.55,0,0,0,7,14.15s0,0,0,0l.53-.31,1-.56A6.7,6.7,0,0,0,8.1,15a3.72,3.72,0,0,0,.8,2.57.89.89,0,0,0,.64.21c.57,0,.83-.48,1.12-1s.67-1.5.67-1.5-.4,2.18.68,2.18c.39,0,.78-.51,1-.77h0l0-.05a.51.51,0,0,1,.07-.1v0c.15-.27.5-.89,1-1.91.67-1.33,1.32-3,1.32-3a7.94,7.94,0,0,0,.26,1.07A8.46,8.46,0,0,0,16.22,14L16,14.3h0c-.13.17-.27.35-.42.52a16.68,16.68,0,0,0-1.25,1.57.43.43,0,0,0,.12.57,1,1,0,0,0,.65.11,2.88,2.88,0,0,0,1-.23,3.53,3.53,0,0,0,.84-.44,1.85,1.85,0,0,0,.81-1.66,3.21,3.21,0,0,0-.3-1.17l.14-.21A21.44,21.44,0,0,0,19,10.83a8.08,8.08,0,0,0,.26,1.08A7.55,7.55,0,0,0,19.74,13a4.47,4.47,0,0,0-1.42,1.84c-.31.88-.07,1.28.38,1.37a1.3,1.3,0,0,0,.71-.14,3.19,3.19,0,0,0,.9-.46,2,2,0,0,0,1-1.65,3.41,3.41,0,0,0-.23-1,5.19,5.19,0,0,1,2.59-.3c2.32.27,2.77,1.72,2.68,2.33a1.53,1.53,0,0,1-.73,1c-.17.1-.22.14-.2.21s.09.1.23.08a1.8,1.8,0,0,0,1.26-1.61c.07-1.42-1.29-3-3.71-3Zm-17.89,6c-.76.84-1.84,1.16-2.3.89s-.3-1.52.65-2.41a12.38,12.38,0,0,1,1.8-1.35L6,14.61l0,0,.12-.07a3.31,3.31,0,0,1-.8,3.26Zm5.6-3.8c-.26.65-.83,2.32-1.17,2.23s-.47-1.35-.06-2.6a5.57,5.57,0,0,1,.92-1.67c.42-.47.88-.62,1-.43A8.54,8.54,0,0,1,10.92,14Zm4.63,2.2c-.12.06-.22.1-.27.07s.05-.1.05-.1.57-.62.8-.9l.46-.58v.06a1.92,1.92,0,0,1-1,1.45Zm3.56-.81c-.08-.06-.07-.25.21-.86a3.25,3.25,0,0,1,.79-1,1.38,1.38,0,0,1,.08.45,1.45,1.45,0,0,1-1.08,1.43Z" transform="translate(-0.23 -0.09)" style="fill:none"/><polygon points="18.89 15.61 18.89 15.61 19 15.59 19 15.6 19.01 15.6 18.99 15.55 19 15.57 19 15.58 19 15.58 19 15.58 18.89 15.61 18.89 15.61" style="fill:#1d1d1b"/><path d="M19.22,15.55v0l0,.15C19.28,15.74,19.2,15.5,19.22,15.55Z" transform="translate(-0.23 -0.09)" style="fill:#1d1d1b"/><path d="M19.24,15.57s0,0,0-.06S19.21,15.5,19.24,15.57Z" transform="translate(-0.23 -0.09)" style="fill:#1d1d1b"/><path d="M19.92,15.1h0Z" transform="translate(-0.23 -0.09)" style="fill:#1d1d1b"/><path d="M19.88,14.79l0,0c.06.09-.05.05,0,.11v0c-.08.06-.08.18-.13.28l0,0s0,.05,0,.05l0,0c-.07-.06,0,.08-.06,0a.21.21,0,0,0,0,.07,1.14,1.14,0,0,0-.16.23.24.24,0,0,1,0-.07c0,.17-.1.15-.17.15s0,0,0,.08,0-.11,0,0v0s0-.09,0,0a.06.06,0,0,1,0,0s.07,0,.06-.11c0,.07,0,0,.08.06s0,0,0-.08c.13,0,.19-.16.29-.22-.06-.16.12-.06.13-.15h0s0-.08,0-.08l0-.06c.2,0,.22-.23.33-.35s.26-.32.07-.52h0s0-.09,0-.14h0c-.14-.11,0-.25-.18-.34a.5.5,0,0,0,0-.16l0-.09-.06.07a.62.62,0,0,0-.15.2l0,0c0,.12-.22.08-.25.2s0,.29-.14.32.07.23-.1.2-.2.2-.11.37c-.13.09,0,.27-.17.32.1.08-.16.08-.14.16h0c-.12,0,.16.06,0,.07h0c-.09,0,.21,0,.1,0h.05l-.07,0h.06c-.16.08,0,0-.12.12,0,0,0,.07-.1.06s.06.08.11,0l.13-.18,0,0,0,0h0l.05,0h.05c.06,0,0,0,0-.05s0,0-.09,0c.11,0,.15,0,.14,0h0c.15,0-.12-.05.05,0-.12,0,0,0-.08-.08l.07,0s.07-.06.08-.08.07,0-.06-.12c0,0,.1,0,.06-.06h0s0-.07-.06-.12a.31.31,0,0,0,.16,0c-.05-.05,0-.07-.06-.13s0,0,.07,0c-.13-.15,0-.22.14-.22h0l-.18-.16h0s.08,0,.07,0l0,0s.08,0,0,0l0,0,0,0,.05,0c.1-.09.07-.31.19-.4v0l0-.06,0,0c.06,0,0-.08.06-.1s0,0,0,.05.11,0,0-.09,0,0,.05,0a.16.16,0,0,1,.09-.15L20,13.53v.05c.17,0,0,.12.18.15h0c.13.07,0,.17.05.25s0,.06,0,.1h0c.15.08-.15.1,0,.19h-.05c.08,0,0,0,.1.06h0c.18.09-.11.05,0,.14l0,0s0,.05,0,.05h0c-.14,0,0,.08,0,.13l-.05,0c.06.06,0,.06,0,.1h0l0,0-.05,0S19.9,14.76,19.88,14.79Z" transform="translate(-0.23 -0.09)" style="fill:#1d1d1b"/><path d="M19.64,15.12h0Z" transform="translate(-0.23 -0.09)" style="fill:#1d1d1b"/><path d="M19.19,15.27h0Z" transform="translate(-0.23 -0.09)" style="fill:#1d1d1b"/><polygon points="15.32 15.75 15.32 15.74 15.5 16.38 15.5 16.38 15.5 16.38 15.48 16.34 15.49 16.35 15.49 16.36 15.49 16.36 15.32 15.76 15.32 15.75 15.32 15.75" style="fill:#1d1d1b"/><path d="M15.69,16.34l0,0,.06.14C15.78,16.52,15.65,16.3,15.69,16.34Z" transform="translate(-0.23 -0.09)" style="fill:#1d1d1b"/><path d="M15.7,16.35s0,0,0-.06S15.66,16.29,15.7,16.35Z" transform="translate(-0.23 -0.09)" style="fill:#1d1d1b"/><path d="M16.26,15.86h0Z" transform="translate(-0.23 -0.09)" style="fill:#1d1d1b"/><path d="M16.21,15.57l0,0c.06.09,0,.05,0,.11v0c-.07.05-.06.17-.11.26v0s0,.05,0,.05l0,0c-.07-.05,0,.08-.06,0L16,16a.62.62,0,0,0-.12.23l0-.06c0,.16-.06.15-.12.17s0,0,0,.07,0-.1,0-.06v0s-.05-.08,0-.05,0,0,0,0,.07,0,0-.11,0,0,.08,0a.2.2,0,0,0,0-.08c.11,0,.15-.15.23-.22-.07-.15.1-.05.11-.14h0s0-.07,0-.07l0-.06c.2,0,.21-.2.33-.29s.29-.26.12-.47h0c0-.05.05-.08,0-.13h0a.2.2,0,0,1-.05-.18l0-.3-.2.23a.14.14,0,0,0,0,.15,1,1,0,0,0-.2.31l0,0c0,.12-.2.1-.22.2s0,.27-.15.29,0,.22-.12.16-.22.12-.2.31c-.14,0-.07.27-.25.22,0,0,0,0,0,0s0,0,0,0,.08.09.11.07v0c.06.1,0-.17.06,0h0c0,.07-.06-.21,0-.11l0,0s0,0,0,.05,0-.07,0-.05,0-.05.1.13c0,0,0,.07,0,.11s0,0,0-.08a1.05,1.05,0,0,0-.12-.21l0,.06,0-.07s-.06-.09-.09-.12h0c0,.07,0,0,0,0v0c0-.07,0,.15,0,0a.07.07,0,0,1,0,0,.58.58,0,0,0,0,.1s0,.08,0,.07h0c-.05.09,0,0,0,.06l.08.05c.05,0,.12.09,0,0l.06.05s.08,0,.1,0,.08,0,0-.13.1,0,.08,0v0a.14.14,0,0,0,0-.15c.11.1.1.07.14.09s0-.08,0-.14,0,0,.07,0c-.08-.19,0-.22.2-.2h0l-.16-.19,0,0s.08,0,.08,0l0,0s.08,0,0,0l0,0,0,0s.06.06,0,.05.1-.3.21-.4l0,0,0-.06,0,0c.07,0,0-.08.05-.1l.05,0c-.05-.07.12,0,0-.08l0,0a.2.2,0,0,1,.12-.19c-.1-.15.06-.11,0-.24l0,0v-.06l-.05,0c0,.07,0,.13,0,.19s0,.06,0,.09h0c.14.09-.17.07,0,.18l-.05,0c.08,0,0,0,.1.07h-.05c.16.11-.11,0,0,.13l0,0s0,.05,0,0h0c-.14,0,0,.08-.06.11l-.05,0c.05.06,0,0,0,.09l0,0,0,0-.05,0S16.23,15.54,16.21,15.57Z" transform="translate(-0.23 -0.09)" style="fill:#1d1d1b"/><path d="M16,15.88Z" transform="translate(-0.23 -0.09)" style="fill:#1d1d1b"/><path d="M15.38,15.94h0Z" transform="translate(-0.23 -0.09)" style="fill:#1d1d1b"/><polygon points="10.69 13.88 11.01 14 11.01 14 11.01 14 11.01 14 11.02 14 10.98 13.97 10.99 13.99 11 13.99 11 14 11 14 11 14 11 14 10.69 13.88" style="fill:#1d1d1b"/><path d="M11.16,14h0l.12.1C11.33,14.07,11.1,14,11.16,14Z" transform="translate(-0.23 -0.09)" style="fill:#1d1d1b"/><path d="M11.18,14s0,0,0,0S11.11,13.93,11.18,14Z" transform="translate(-0.23 -0.09)" style="fill:#1d1d1b"/><path d="M11.71,12.24h0Z" transform="translate(-0.23 -0.09)" style="fill:#1d1d1b"/><path d="M11.57,11.75l-.06,0c.1.05,0,.13,0,.22h0a3.07,3.07,0,0,0-.06.68l0,0s0,0,0,0h0c-.1,0,0,.15-.06.16s0,0,.07,0a2.61,2.61,0,0,0-.08.57l-.06,0c.08.2,0,.34-.11.48s0,0,.08,0-.06-.13,0-.14h0s-.09,0,0-.05,0,0,.05,0,.07-.13,0-.23c.09,0,0-.07.12-.07s0,0-.06-.07a4.61,4.61,0,0,0,.21-.75c-.12-.16.11-.25.09-.4h0a.19.19,0,0,1,0-.18L11.66,12a.78.78,0,0,0,.09-.56c-.12-.26-.45-.2-.71-.1-.44.2-.78.44-.82.89,0,0,0,0,0,0s-.14.17-.16.28h0c0,.29-.27.48-.24.76a2.46,2.46,0,0,0-.24.93h0c0,.25-.19.48-.15.74s.18.54.13.8a.22.22,0,0,0,.08.26c.07.05.12,0,.14.2s.32.05.41-.11a1.1,1.1,0,0,0,.1-.54c.2-.22.11-.57.37-.77-.05-.16.23-.21.26-.36h0c.13,0-.12-.17.06-.14h0c.09,0-.18-.14-.07-.12l0,0s.05,0,.07,0-.07,0,0,0,0-.1.18,0c0,0,.09,0,.11,0s0-.06,0-.08a.61.61,0,0,0-.23-.09l.06,0H10.8s-.12,0-.17,0h0c.06,0,0,.06,0,.08h0c-.07,0,.13.1,0,0a1.38,1.38,0,0,1-.08.29s0,.08.07.09c-.12,0-.17,0-.18.07h0c-.16,0,.1.11-.08.09.11.05-.07.07,0,.15l-.07,0c0,.09-.12.16-.15.23s-.11.13,0,.24c-.05,0-.14.07-.11.15h0a.25.25,0,0,0,0,.24c-.13-.05-.12,0-.18,0a1.12,1.12,0,0,1,.05.13c0-.06,0,0-.05-.06.05.11,0,.23-.06.21a.2.2,0,0,1,0-.23h0a.42.42,0,0,1-.21.13h0s.06-.08,0-.09h0s.07-.06,0-.09h0l0,0s.08,0,.07,0a4.42,4.42,0,0,1-.1-1l0,0,0-.08h0c.07-.08,0-.18,0-.26s0,0,.06,0,.13-.07,0-.15l.06,0a1,1,0,0,1,.13-.52c-.1-.19.1-.29.05-.49l0,0c0-.24.19-.38.28-.57a.88.88,0,0,0,.1-.22l0,0c0-.21.28-.17.26-.38l0,0c0-.07.08,0,0-.14h.05c-.05-.22.2-.06.23-.23v0s0-.08.07-.07,0,0,0,0,.16-.11.29-.14l0,.08c.07-.11.13,0,.21,0l0,0,.06,0-.06.06,0,0A.21.21,0,0,1,11.57,11.75Z" transform="translate(-0.23 -0.09)" style="fill:#1d1d1b"/><path d="M11.41,12.68Z" transform="translate(-0.23 -0.09)" style="fill:#1d1d1b"/><path d="M10.61,14h0Z" transform="translate(-0.23 -0.09)" style="fill:#1d1d1b"/><polygon points="5.43 17.68 5.43 17.68 5.34 17.91 5.34 17.91 5.35 17.91 5.35 17.91 5.36 17.92 5.33 17.87 5.34 17.89 5.34 17.9 5.34 17.91 5.34 17.91 5.34 17.91 5.43 17.68 5.43 17.68 5.43 17.68" style="fill:#1d1d1b"/><path d="M5.55,17.85l0,0,.07.14C5.67,18,5.5,17.82,5.55,17.85Z" transform="translate(-0.23 -0.09)" style="fill:#1d1d1b"/><path d="M5.57,17.84s0,0,0-.06S5.51,17.8,5.57,17.84Z" transform="translate(-0.23 -0.09)" style="fill:#1d1d1b"/><path d="M6.41,16h0Z" transform="translate(-0.23 -0.09)" style="fill:#1d1d1b"/><path d="M6.22,15.48H6.16c.1.1,0,.2,0,.3h0c0,.24,0,.48,0,.73h0s0,0,0,.05l0,0c-.1,0,0,.17-.08.17a.13.13,0,0,0,.07.05c-.06.19-.13.39-.19.61l-.06,0c0,.23-.14.35-.27.47,0,0,0,0,.06.06s0-.15.09-.15l0,0s-.07-.06,0-.06,0,0,0,0,.11-.13.08-.24.06-.07.14-.06,0-.05,0-.09a2.36,2.36,0,0,0,.33-.82c-.11-.17.12-.29.09-.46h0a.28.28,0,0,1,0-.2l-.06-.06a2.24,2.24,0,0,0,0-1.15l0-.14,0-.25L6,14.33a1.59,1.59,0,0,0-.87.62s0,0,0,0-.21.11-.28.2h0c-.16.26-.49.32-.62.6a3.39,3.39,0,0,0-.75.72l0,0c-.13.24-.42.37-.51.65s-.07.61-.18.87.17.38.1.55.21.38.39.37a.89.89,0,0,0,.5-.2c.33,0,.52-.31.86-.32,0-.16.33,0,.44-.18l0,0c.12.06,0-.21.13-.1h0c.08,0-.09-.2,0-.14l0,0s0,0,.07,0-.06-.06,0-.05,0-.09.18,0c0,0,.08,0,.08.1s.06,0,0-.11-.1-.13-.18-.15l0,.05-.07-.05s-.11,0-.16,0h0c0,.07,0,.06,0,.06l0,0c-.06,0,.06.14,0,0a.55.55,0,0,1-.21.22c0,.05-.06.05,0,.11-.09-.07-.17-.05-.19,0a0,0,0,0,1,0,0c-.12-.09,0,.15-.12,0,.06.1-.09,0,0,.15l0-.06a1.45,1.45,0,0,1-.26.07c0,.13-.16,0-.16.17-.05,0-.14,0-.18,0v0c-.07,0-.15.05-.19.15,0-.14-.06-.11-.09-.15s-.12.05-.19.1,0,0,0-.08c-.22.17-.32-.1-.18-.29h0l-.24-.07h0S3,18,3,18H3c0-.05.08-.07,0-.12H3l0,0s.08,0,.07,0a2.41,2.41,0,0,1,.34-1l0,0v-.09l0,0c.09-.05.09-.17.16-.24s0,0,0,0,.15,0,.05-.15l0,0a1.18,1.18,0,0,1,.42-.41c0-.23.26-.23.32-.43l0,0c.11-.22.37-.26.55-.41s.12-.11.2-.16l0,0c0-.22.36-.07.41-.3l0,0c0-.08.11,0,0-.14l0,0c0-.23.22,0,.28-.21v0l0-.06h0v0a0,0,0,0,1,0,.05h0c-.11.15.07.24.09.36H6.12c.09.05,0,.16.07.24h0l0,0H6.15C6.15,15.29,6.21,15.38,6.22,15.48Z" transform="translate(-0.23 -0.09)" style="fill:#1d1d1b"/><path d="M6.12,16.51Z" transform="translate(-0.23 -0.09)" style="fill:#1d1d1b"/><path d="M5,17.67h0A0,0,0,0,0,5,17.67Z" transform="translate(-0.23 -0.09)" style="fill:#1d1d1b"/><polygon points="23.16 11.38 23.16 11.38 22.98 11.99 22.98 11.99 22.98 11.99 22.98 11.99 22.98 11.99 22.99 11.99 23 11.99 23.02 12 23.06 12.01 23.29 11.97 23.13 11.98 23.05 11.98 23.02 11.99 23 11.99 22.99 11.99 22.98 11.99 22.98 11.99 22.98 11.99 22.98 11.99 23.16 11.38 23.16 11.38 23.16 11.38" style="fill:#1d1d1b"/><path d="M24.69,12.2s0,0-.05-.06a4.44,4.44,0,0,0-.89,0C24.12,12.22,24.45,12.06,24.69,12.2Z" transform="translate(-0.23 -0.09)" style="fill:#1d1d1b"/><path d="M24.93,12.3a1.55,1.55,0,0,0,.52.21C25.33,12.48,24.89,12.2,24.93,12.3Z" transform="translate(-0.23 -0.09)" style="fill:#1d1d1b"/><path d="M16.46,16.44l.09-.06Z" transform="translate(-0.23 -0.09)" style="fill:#1d1d1b"/><path d="M15.42,11.88l0,.08c0,.13.09.29.14.47a4.82,4.82,0,0,0,.2.62c.1.22.21.44.31.65s.15.2.09.29l-.21.27,0,0v0a.05.05,0,0,0,0,0v-.07c-.43.55-.91,1.07-1.32,1.62l.05-.1a1.79,1.79,0,0,0-.48.81.48.48,0,0,0,.24.44,1,1,0,0,0,.47.11,3.58,3.58,0,0,0,1.73-.49,2.08,2.08,0,0,0,1.09-1.37,2.89,2.89,0,0,0-.27-1.72A23.33,23.33,0,0,0,19,10.79c.08.23.16.59.24.9a4.92,4.92,0,0,0,.36.88l-.09-.13.16.27.09.17c0,.06.08.13,0,.16s.08,0,0-.13,0,.06,0,.08l-.08.06-.16.12a2.69,2.69,0,0,0-.3.29,4.25,4.25,0,0,0-.55.7,3.23,3.23,0,0,0-.47,1.32c0,.25.1.32.09.2a.51.51,0,0,0,.36.4,1,1,0,0,0,.59-.08,3.42,3.42,0,0,0,1.17-.64,2,2,0,0,0,.73-1,1.53,1.53,0,0,0,0-.64,2,2,0,0,0-.08-.33,3.52,3.52,0,0,0-.16-.45,4.62,4.62,0,0,1,1.23-.37,5.45,5.45,0,0,1,1.14-.06,4.55,4.55,0,0,1,2.23.6c.13.11.14.14.08.14a2,2,0,0,1,1,2,1.7,1.7,0,0,1-.73,1c-.09.06-.16.13-.19.12a.29.29,0,0,0-.11-.08h.07c-.07,0,.1,0,.08,0h0l-.05,0c-.12.05,0,.06,0-.12a1,1,0,0,0,.38-.16,1.56,1.56,0,0,0,.75-1.62,2.6,2.6,0,0,0-1-1.65c-.11,0,.18.2-.05.07a2.33,2.33,0,0,1,1.06,1.92l0-.09c-.06.5.13.12-.06.63-.12.18,0-.07-.07,0a1.54,1.54,0,0,1-.52.62,1.3,1.3,0,0,1-.35.18h-.08v.12a.26.26,0,0,1,0,.1l.09,0H25.5s0,0,.09.06.07.07.08.07a2,2,0,0,0,.76-.76,1.45,1.45,0,0,0,.13-1.09,1.65,1.65,0,0,0-.38-.9,3.67,3.67,0,0,0-.83-.75,2.28,2.28,0,0,0-.82-.26,5.89,5.89,0,0,0-1.77-.22,5.39,5.39,0,0,0-.9.1,3.69,3.69,0,0,0-.45.11c-.16,0-.44.16-.65.24a5.62,5.62,0,0,1,.19.53,2.86,2.86,0,0,1,.07.28,1.53,1.53,0,0,1,0,.56,1.7,1.7,0,0,1-.57,1,3,3,0,0,1-1,.64c-.41.18-.77.29-1,.07s-.11-.65,0-1a3.69,3.69,0,0,1,.65-1,6,6,0,0,1,.43-.45l.35-.3a2.7,2.7,0,0,0-.17-.44,5.43,5.43,0,0,1-.5-1.41c-.09-.29-.16-.6-.25-.85-.17.37-.33.72-.5,1l-.21.4-.19.34-.42.68-.51.74a3.19,3.19,0,0,1,.17.48,2.6,2.6,0,0,1,.1.4,2,2,0,0,1,0,.8,1.92,1.92,0,0,1-1,1.22s0,0,0,0a3.13,3.13,0,0,1-1.31.46,1,1,0,0,1-.67-.08c-.14-.1-.08-.34.06-.5a7.78,7.78,0,0,1,.47-.7c.35-.4.71-.81,1.06-1.24L16,14.29l.08.08.17-.22c.07-.09.19-.18.09-.29l-.24-.51a3.15,3.15,0,0,1-.2-.47,1.69,1.69,0,0,1-.08-.24l-.09-.35-.16-.72-.09-.36s0-.1,0-.06l0,.09-.08.17-.58,1.29-.85,1.9-1,1.84,0,0v.06l0-.09-.09.16.33.08h0v-.55l-.32.46a2.09,2.09,0,0,1-.6.62.43.43,0,0,1-.6-.16,2.93,2.93,0,0,1-.12-1.75l.15-1.11-.48,1c-.32.65-.56,1.36-.93,2a.79.79,0,0,1-1.45,0,3.83,3.83,0,0,1-.49-1.86,6.38,6.38,0,0,1,.1-1l0-.25c0-.14.06-.27.1-.41l.31-.86c-.38.18-.85.46-1.27.69l-.51.29c-.26.13-.45.27-.31.54,0,0,.05.11.07.17l0,.09.06.19c0,.13.05.27.07.4A3.75,3.75,0,0,1,7,16a4.49,4.49,0,0,1-.36,1.58A4.23,4.23,0,0,1,4.4,19.73,3.55,3.55,0,0,1,2.83,20a3.22,3.22,0,0,1-.76-.14,1.17,1.17,0,0,1-.5-.51,2.6,2.6,0,0,1,.61-3s0,0-.06.11a9.37,9.37,0,0,1,2.22-1.67l.6-.33L5.76,14a4.76,4.76,0,0,0-.7-.59L4.49,13h0a16.85,16.85,0,0,1-2.77-2.08,5.55,5.55,0,0,1-1-1.37A2.34,2.34,0,0,1,.43,7.91,6.4,6.4,0,0,1,2.16,5,15,15,0,0,1,4.77,2.84,21.4,21.4,0,0,1,8.5,1.05,10.67,10.67,0,0,1,12.7.31a5,5,0,0,1,3.86,1.62A3.1,3.1,0,0,1,17,4a4.88,4.88,0,0,1-.73,2l0,0a6.48,6.48,0,0,1-2.09,2.14,8,8,0,0,1-2.78,1.07,7.82,7.82,0,0,1-3,.09A2.89,2.89,0,0,1,7.2,8.73a1.63,1.63,0,0,1-.35-.39.84.84,0,0,1-.09-.25c0-.09.06-.21.14-.14a1.66,1.66,0,0,0,.86.53,5.84,5.84,0,0,0,3.55-.27,7.62,7.62,0,0,0,3-1.91,5.57,5.57,0,0,0,1-1.5,2.36,2.36,0,0,0,.11-1.75,2,2,0,0,0-1.41-1,6.93,6.93,0,0,0-1.76-.19A10.33,10.33,0,0,0,7.7,3.15,21.57,21.57,0,0,0,3.8,5.7a4.88,4.88,0,0,0-1.48,2,2.7,2.7,0,0,0,.35,2.46,8.11,8.11,0,0,0,1.82,1.74l1,.75c.16.13.32.26.47.4s.29.27.49.47l1.51-.86.73-.42L9,12.05c.14-.07.18-.23.28-.32a4.62,4.62,0,0,1,1.26-1.11,2,2,0,0,1,.81-.28.83.83,0,0,1,.8.33,1.44,1.44,0,0,1,.2.83,2.22,2.22,0,0,1,0,.37l0,.17c0,.05,0,0,0,0l.07-.05a.59.59,0,0,1,.74.18.5.5,0,0,1,0,.43l-.11.41c-.14.53-.28,1.07-.4,1.6a7.62,7.62,0,0,0-.14.81,1.57,1.57,0,0,0,0,.38s0,.07,0,.07l.06-.06.09-.15h0l.11-.22h0l0-.06h0l0,0c.05,0,0,0,0,0h0v0l-.13-.07c.46-.94.85-1.9,1.27-2.84l.63-1.42.31-.7.22-.75c0-.12.15-.17.25-.2a.89.89,0,0,1,.28-.07,2.63,2.63,0,0,1,.56,0,.89.89,0,0,1,.56.14c.21.13,0,.38,0,.53a3.56,3.56,0,0,0-.2,1.38,3.51,3.51,0,0,0,.12.71,3.24,3.24,0,0,0,.27.6c.36-.56.82-1.28,1.2-2a5.35,5.35,0,0,0,.5-1.11L18.9,9c0-.22.14-.26.35-.31h-.1a5.67,5.67,0,0,1,.72-.06c.24,0,.52,0,.62.21A8.85,8.85,0,0,1,20.15,10v-.1c-.17.52.23,1.17.24,1.45l.07.06c.26.54,0,.08.17.51.08.14.1,0,.2.25h0c0,.1.35-.08.7-.19s.71-.19.75-.09c-.32.06.51,0-.2.16a7,7,0,0,0,1.1-.19c.08-.09.48-.17-.14-.24l-.13.07c-.21-.05-.16,0-.24-.07a10.22,10.22,0,0,0-1.55.21s0,0,0,0l-.27.16a1.43,1.43,0,0,1-.09-.18l-.13-.31,0-.13a2,2,0,0,0-.16-.39c0-.18-.09-.29,0-.18a2.45,2.45,0,0,1,0-1.17l.09-.3L20.73,9c.13-.38-.42-.63-.65-.61a3.6,3.6,0,0,0-.74,0,1.6,1.6,0,0,0-.39.1.47.47,0,0,0-.33.39l-.2.7a3.74,3.74,0,0,1-.23.59c-.05.25-.65,1.24-.38.93-.2.21-.8,1.19-.76,1.09L17,12.08s0,0,0,0a5.37,5.37,0,0,0-.14-.73,1.23,1.23,0,0,1,.13-.9.64.64,0,0,1,0-.32c0-.07.33-.58-.06-.85a1.35,1.35,0,0,0-.9-.19,1.4,1.4,0,0,0-.58.15c-.13,0-.2,0-.15,0a.61.61,0,0,0-.38.32,11.82,11.82,0,0,1-.91,2.27c-.32.72-.64,1.41-.91,2a10.58,10.58,0,0,1-.62,1.42l.54.3,0,0h0l-.08,0-.16-.09,0,0h0l.11.27h-.13l0,0h0s0,0,0,0a3.83,3.83,0,0,1,0-.47c.06-.31.11-.63.14-.9.12-.42.28-.95.45-1.53a1.19,1.19,0,0,0,.07-.29.38.38,0,0,0,0-.15.5.5,0,0,0-.05-.21.83.83,0,0,0-.58-.44l-.16,0h0l0,0s0,0,0,0a0,0,0,0,0,0,0v-.21a2.06,2.06,0,0,0-.12-.63,1.06,1.06,0,0,0-.47-.56,1.21,1.21,0,0,0-.68-.12,2.9,2.9,0,0,0-1.7,1,1.7,1.7,0,0,0-.61.46l-.15.17s0,0-.05,0l-.4.19c-.24.15-.57.35-.94.56l-1,.58s-.29-.28-.48-.43-.43-.34-.63-.49-.93-.68-.92-.8A4.81,4.81,0,0,1,2.56,9.25a2.51,2.51,0,0,1,0-1.46,4.17,4.17,0,0,1,.78-1.35A13.92,13.92,0,0,1,8.69,3.07l0,0a16.3,16.3,0,0,1,1.5-.77c.06,0,.06,0-.05,0a9.79,9.79,0,0,1,2.15-.31s0,0-.12,0a6.38,6.38,0,0,1,2.17.24l0,0a3.12,3.12,0,0,1,.46.17s-.07.06-.29-.07c1,.35,1,1.54.5,2.44a6.14,6.14,0,0,1-2.22,2.25A8.48,8.48,0,0,1,9.7,8.26a4.1,4.1,0,0,1-1.6,0,2.53,2.53,0,0,1-1.19-.58c-.2-.07-.26,0-.33-.09s-.08-.09-.14-.12-.25.14-.22.25a.87.87,0,0,0,.08.38,2.08,2.08,0,0,0,.56.72,2.71,2.71,0,0,0,.46.33l.4.19a3.86,3.86,0,0,0,.81.21,8.77,8.77,0,0,0,3.23-.23l-.23.09c.42-.12.83-.26,1.24-.42l-.12.07A6.91,6.91,0,0,0,16.5,5.94s-.1.24,0,0a3.86,3.86,0,0,0,.66-2.47c0-.06,0-.1.07,0A3.63,3.63,0,0,0,17,2.26a2.85,2.85,0,0,0-.81-1,4.92,4.92,0,0,0-2.36-1,10.44,10.44,0,0,0-5,.46,29.14,29.14,0,0,0-3.9,1.9A11.58,11.58,0,0,0,1.55,5.43l0,0A6.22,6.22,0,0,0,.28,7.92a2.49,2.49,0,0,0,0,.72,3.31,3.31,0,0,0,.2.7,4.56,4.56,0,0,0,.75,1.23A11.78,11.78,0,0,0,3.37,12.5l1.19.84.56.41.24.19c0,.05-.15.1-.22.15a13.12,13.12,0,0,0-1.81,1.08,7.49,7.49,0,0,0-1.6,1.43H1.67a3.15,3.15,0,0,0-.57,2,2.3,2.3,0,0,0,.32,1,1.23,1.23,0,0,0,.88.62,3.92,3.92,0,0,0,3.91-1.42l-.1.18a9.54,9.54,0,0,0,.59-.82c.19-.3.28-.57.18-.52.08-.14.15-.3.22-.45A5.73,5.73,0,0,0,7,14.29c0-.06-.11-.16,0-.2L7.18,14l.43-.23L8,13.52l.22-.13.11-.06s.08-.06.05,0a3.72,3.72,0,0,0-.19.84V14a7.2,7.2,0,0,0-.09,1.81c0-.07,0,0,0-.18a3.63,3.63,0,0,0,.35,1.45,1.92,1.92,0,0,0,.48.63,1,1,0,0,0,.8.13c.59-.13.8-.73,1-1.17s.41-.94.61-1.41h0l0,.1v-.11l.09,0,0,.13.05-.12-.15,0a3.87,3.87,0,0,0,.13,1.81.67.67,0,0,0,.92.35,2,2,0,0,0,.7-.71l-.09,0h0v.17l.09-.15.08-.15v0s0,0,0,0,0,0,0,0v0l0,.07,0-.06v0h0v0l.24-.54.06,0a19.58,19.58,0,0,0,1.1-2.26L15,12.64l.22-.5.11-.26.06-.13S15.41,11.84,15.42,11.88Z" transform="translate(-0.23 -0.09)" style="fill:#1d1d1b"/><path d="M19.74,12.91h0C19.71,12.84,19.72,12.87,19.74,12.91Z" transform="translate(-0.23 -0.09)" style="fill:#1d1d1b"/><path d="M21,11.91l.18-.06Z" transform="translate(-0.23 -0.09)" style="fill:#1d1d1b"/><path d="M12.83,15.37Z" transform="translate(-0.23 -0.09)" style="fill:none;stroke:#1d1d1b;stroke-miterlimit:10;stroke-width:0.5px"/></svg>