<svg id="e64a214e-eaac-448e-bdeb-d3af9d389a75" data-name="Calque 1" xmlns="http://www.w3.org/2000/svg" viewBox="0 0 20.32 20.41"><path d="M10.4,10.93,8.94,15.21h0L7.8,18.47l.24.06h0a8.65,8.65,0,0,0,2.21.29,6.91,6.91,0,0,0,1.11-.08,8,8,0,0,0,1.45-.32l.35-.11c-.13-.27-.39-.86-.41-.89Zm-7.95-4a8.67,8.67,0,0,0-.75,3.37,7.87,7.87,0,0,0,0,.84,8.56,8.56,0,0,0,5.18,7.05l.36.14L3.12,6.88Z" transform="translate(0 0)" style="fill:#23282d"/><path d="M10.4,10.93,8.94,15.21h0L7.8,18.47l.24.06h0a8.65,8.65,0,0,0,2.21.29,6.91,6.91,0,0,0,1.11-.08,8,8,0,0,0,1.45-.32l.35-.11c-.13-.27-.39-.86-.41-.89Zm-7.95-4a8.67,8.67,0,0,0-.75,3.37,7.87,7.87,0,0,0,0,.84,8.56,8.56,0,0,0,5.18,7.05l.36.14L3.12,6.88Z" transform="translate(0 0)" style="fill:none"/><polygon points="2.43 7.21 2.44 7.23 2.48 7.18 2.43 7.21" style="fill:#1d1d1b"/><path d="M2.65,7.1a.06.06,0,0,0,0,0l-.13.15C2.56,7.3,2.62,7,2.65,7.1Z" transform="translate(0 0)" style="fill:#1d1d1b"/><path d="M2.69,7.11c.05,0,.07,0,.08-.05S2.68,7,2.69,7.11Z" transform="translate(0 0)" style="fill:#1d1d1b"/><path d="M4.27,10.6h0Z" transform="translate(0 0)" style="fill:#1d1d1b"/><path d="M4.87,11.58h.06c-.16-.16-.15-.42-.27-.61h0c-.18-.53-.44-1-.67-1.5h0S4,9.43,4,9.4H4c0-.14-.17-.3-.13-.4A0,0,0,0,0,3.8,9c-.18-.4-.35-.84-.57-1.23,0,0,0,0,.06,0A1.46,1.46,0,0,1,3,7.23c0-.07,0-.08,0-.12l-.16,0s0,0,0,.08.07,0,.1,0,.06-.05,0,0l0,0s.08-.08,0,0l0,0v0l0,.13a.62.62,0,0,0,.15.22c-.06.06.06.17,0,.26s0,.08.11.08c.17.59.46,1.15.67,1.75.25.22.19.62.36.93h0a1.21,1.21,0,0,1,.18.38l.1.09c.15.81.53,1.57.76,2.37a9.54,9.54,0,0,0,1,2.51s0,0,0,0c.12.24.15.49.26.71h0a4.5,4.5,0,0,1,.38.87,2.85,2.85,0,0,0,.12.31l.08.18.06.11s0,0,0,0a10.66,10.66,0,0,1-1.94-1l0,0a7.39,7.39,0,0,1-1.3-1.26c-.35-.51-.94-.92-1.17-1.54,0-.41-.56-.75-.53-1.16a9.89,9.89,0,0,0-.53-2.21,5.23,5.23,0,0,1,.15-2.09c-.05-.34.28-.63.36-1h0c.15-.09-.07-.33.12-.35v0c.11,0-.14-.22,0-.23l0,0c0-.08.05,0,.09,0s-.07,0,0-.07,0-.21.23-.13c0,0,.1,0,.1.07s.07-.14,0-.17-.13-.13-.23-.08l.05.05H2.31C2.25,7,2.16,7,2.09,7h0c0,.08,0,.13-.05.17H2c-.08,0,.1.18,0,.1-.05.23-.14.47-.2.72,0,.05-.06.19.05.16-.12,0-.2.21-.21.28s0,0,0,0c-.17.11.09.19-.11.28.12,0-.08.23.06.32a.08.08,0,0,1-.08,0,6.7,6.7,0,0,0-.13.68c.09.18-.08.42.08.56a.78.78,0,0,0,0,.48h0a.84.84,0,0,0,.15.54c-.13.07-.1.15-.13.24s.11.37.21.55c-.06,0,.06.15,0,.18A5,5,0,0,1,2.18,14h0a1.33,1.33,0,0,0,.32.11s0,0,0,0,0,.21.09.29,0,0,0,0,0,.22.15.28v0l.06.05s-.07,0-.08,0a8.87,8.87,0,0,0,1.82,2.05h0l.17.08h0a2.46,2.46,0,0,0,.55.41s-.06,0,0,0c.18,0,.14.25.31.14,0,0,0,.05,0,.06.22.09.41.21.62.32s.36.22.68.37a2.45,2.45,0,0,1,.66.19s.15.08.15,0l-.07-.18a1.93,1.93,0,0,0-.19-.38l0,0a3.76,3.76,0,0,1-.33-.78,6.54,6.54,0,0,0-.24-.75c-.06-.2-.15-.33-.23-.53l0,0c-.27-.29-.13-.77-.42-1.07h.06c-.1,0,0-.22-.18-.15l0-.08c-.27-.18-.08-.48-.31-.73h0a.39.39,0,0,1-.1-.23s0,0,0,0c0-.3-.2-.53-.29-.79h.07c-.12-.1-.14-.36-.23-.51h0l-.07-.06.06,0C5.08,12,5,11.79,4.87,11.58Z" transform="translate(0 0)" style="fill:#1d1d1b"/><path d="M4,9.41Z" transform="translate(0 0)" style="fill:#1d1d1b"/><path d="M2.07,7.05l0,0S2.07,7,2.07,7.05Z" transform="translate(0 0)" style="fill:#1d1d1b"/><polygon points="10.09 11.04 10.07 11.06 10.13 11.07 10.09 11.04" style="fill:#1d1d1b"/><path d="M10.25,11.17l0,0-.17,0C10.05,11.18,10.3,11.12,10.25,11.17Z" transform="translate(0 0)" style="fill:#1d1d1b"/><path d="M10.25,11.2c0,.05.05,0,.08,0S10.32,11.17,10.25,11.2Z" transform="translate(0 0)" style="fill:#1d1d1b"/><path d="M11.46,14.43h0Z" transform="translate(0 0)" style="fill:#1d1d1b"/><path d="M12,15.19h.06c-.15-.13-.12-.34-.23-.49h0a10.88,10.88,0,0,0-.56-1.2h0s-.06,0-.07,0,0,0,0,0-.15-.24-.11-.32,0,0-.08,0a8,8,0,0,0-.47-1,.09.09,0,0,1,.06,0,1.69,1.69,0,0,1-.38-.85s0,0-.08,0,.15.14.12.25h0c0,.07.09,0,.07.06s-.05,0-.05,0,.09.28.22.37c-.07.06,0,.14,0,.22s.05.06.1,0c.13.48.38.92.54,1.4.23.17.15.5.3.74h0a.62.62,0,0,1,.15.29l.1.07a16,16,0,0,0,.58,1.9,10.85,10.85,0,0,0,.34,1.06,1.63,1.63,0,0,0,.18.35s.08.07.06.09a.58.58,0,0,1-.08.1v0c-.11.06-.37.06-.54.13v0a7.5,7.5,0,0,1-1.45.36,10.32,10.32,0,0,1-1.84,0v0a2.37,2.37,0,0,1-.71-.16L8,18.42s0,0-.05,0l0-.06,0-.12c.21-.41.16-1,.42-1.47.25-.25.07-.75.32-1A1.79,1.79,0,0,0,9,15.24l-.11.08H9l0-.08A4.64,4.64,0,0,0,9.27,14c.26-.5.23-1.1.57-1.56,0-.28.31-.47.37-.75h0c.15-.05-.08-.27.11-.27h0c.11,0-.15-.18,0-.18l0,0c0-.07.05,0,.08,0s-.07,0,0-.06c.18.05,0-.17.21-.1,0,0,.1,0,.11.06s0-.13,0-.14-.15-.11-.24-.07l.06,0h-.08c0,.08-.14.06-.19.11h0c.06.07,0,.11,0,.14h0c-.08,0,.11.14,0,.07a3.21,3.21,0,0,1-.15.57s-.06.14.05.13a.27.27,0,0,0-.21.2s0,0,0,0c-.18,0,.08.16-.12.2.11.05-.1.16,0,.26H9.52c-.06.17-.17.34-.22.48s-.15.28-.05.44a.54.54,0,0,0-.15.34v0a.78.78,0,0,0,0,.45c-.15,0-.14.06-.2.1s-.06.3,0,.46c-.07,0,0,.12-.1.1v.18L8.94,15h0L8.7,15v.1a2.15,2.15,0,0,1-.47,1.11h0c0,.08.12.18.16.26a0,0,0,0,1,0,0c0,.08-.12.13-.13.21l0,0c0,.09-.12.13-.08.24h0l0,.07s-.07,0-.06-.05a8,8,0,0,0-.29,1,3.49,3.49,0,0,0-.16.69l.7.17,0,0,.15,0s0,0,0,0c.17.09.37,0,.54.07,0,0,0,0,0,.07s.19.14.28,0a0,0,0,0,1,0,.06,10,10,0,0,1,1.1,0c.3-.18.65-.06.95-.21v0a8.13,8.13,0,0,1,1.23-.26,2.89,2.89,0,0,0,.45-.14l0,0a.4.4,0,0,1,.2-.11c.06,0,0,0,0-.08l0-.11a.68.68,0,0,0-.23-.45H13c-.09,0-.05-.18-.17-.1l0-.07c-.27-.11-.05-.38-.26-.57h0a.24.24,0,0,1-.09-.18s0,0,0,0c.06-.25-.16-.42-.23-.63h.06c-.1-.08-.11-.29-.19-.41h0l-.07-.05.06,0C12.17,15.5,12.06,15.36,12,15.19Z" transform="translate(0 0)" style="fill:#1d1d1b"/><path d="M11.29,13.46h0Z" transform="translate(0 0)" style="fill:#1d1d1b"/><path d="M10.06,11.07l0,0S10.06,11.06,10.06,11.07Z" transform="translate(0 0)" style="fill:#1d1d1b"/><path d="M18,6.65a8.22,8.22,0,0,0-.67-1.19l-.23-.32a8.58,8.58,0,0,0-3.79-2.88,8.35,8.35,0,0,0-3.09-.58,8.63,8.63,0,0,0-3.7.84,8.52,8.52,0,0,0-3,2.36A8.83,8.83,0,0,0,2.81,6H4.32c.81,0,2.05-.1,2.05-.1a.32.32,0,1,1,0,.63s-.42.05-.88.07L8.35,15,10,9.92,8.84,6.64c-.42,0-.81-.07-.81-.07a.32.32,0,0,1,.05-.64s1.27.1,2,.1,2.05-.1,2.05-.1a.32.32,0,0,1,.05.64s-.42,0-.88.07l2.78,8.28.77-2.57a7.15,7.15,0,0,0,.59-2.48,4.1,4.1,0,0,0-.64-2.13,3.61,3.61,0,0,1-.75-1.8,1.33,1.33,0,0,1,1.29-1.37h.1c1.17,0,1.55,1.13,1.6,1.92v0c0,.32,0,.56,0,.84a7.29,7.29,0,0,1-.59,2.76l-1.74,5-1,2.93L14,18a8.54,8.54,0,0,0,4.76-6.55,7.46,7.46,0,0,0,.09-1.16A8.49,8.49,0,0,0,18,6.65Z" transform="translate(0 0)" style="fill:#23282d"/><polygon points="17.74 6.79 17.74 6.84 17.84 6.92 17.74 6.79" style="fill:#1d1d1b"/><path d="M18.14,7.46s0,0,0,0l-.3-.37C17.86,7.26,18.15,7.31,18.14,7.46Z" transform="translate(0 0)" style="fill:#1d1d1b"/><path d="M18.17,7.59a.34.34,0,0,0,.14.26C18.24,7.81,18.23,7.53,18.17,7.59Z" transform="translate(0 0)" style="fill:#1d1d1b"/><path d="M15,15.05v.06S15,15.06,15,15.05Z" transform="translate(0 0)" style="fill:#1d1d1b"/><path d="M16.13,11.05l0-.06c-.16.76-.54,1.56-.77,2.35v-.06c-.35,1-.66,1.93-1,2.88s-1.07,2.53.26,1.41c0,0,0,.05-.05.07a1.21,1.21,0,0,1,.24-.21s0,0,0,.06A7.12,7.12,0,0,0,16,16.57c.09-.09.1-.15,0-.13a8.06,8.06,0,0,0,2.34-4.23c0-.07.06-.08.08-.05.09-.69.1-1.39.13-2.09A9.22,9.22,0,0,0,18.32,8c-.06,0,0,.15-.08,0a5.82,5.82,0,0,1,.27,1.19l-.05,0c0,.3.11,0,.09.36,0,.12-.05,0-.05,0,.09.63,0,1.27,0,1.87-.1.14-.12.67-.26.88s-.06.32,0,.39a8.83,8.83,0,0,1-1.58,2.92,7.88,7.88,0,0,1-1.19,1.19c-.22.18-.45.34-.69.5l-.34.21-.16.09-.23.16a.76.76,0,0,1,.05-.21l.09-.25.16-.44c.22-.58.46-1.19.64-1.81,0,0,0,0,0,0a13.56,13.56,0,0,1,.47-1.46l.08-.43c.28-.7.54-1.41.8-2.13s.56-1.42.74-2.2a9.15,9.15,0,0,0,.16-2.33A3.11,3.11,0,0,0,17,5.31,1.68,1.68,0,0,0,16,4.45a1.94,1.94,0,0,0-.71-.08,1.47,1.47,0,0,0-.71.21,1.64,1.64,0,0,0-.75,1.19,4.45,4.45,0,0,0,.91,2.38,3.63,3.63,0,0,1,.43,2.21,16.47,16.47,0,0,1-.57,2.39s0,0,0-.07c-.1.39-.22.76-.33,1.12l-.18.56L14,14.13v0c-.07-.12-.33-.82-.51-1.35l-.57-1.68c-.37-1.12-.74-2.24-1.16-3.26L11.51,7c0-.1-.13-.26-.07-.31l.38,0c.15,0,.29,0,.45,0a.37.37,0,0,0-.06-.73l-.46,0c-.61,0-1.22.08-1.83.08L8.08,5.9h0a.34.34,0,0,0-.36.33A.32.32,0,0,0,8,6.58H8l.35,0v0c.16,0,.35,0,.45.06L9,7.15l.33.93L10,9.93c-.3.82-.62,1.73-.9,2.62-.14.39-.28.79-.41,1.19l-.3,1c-.25-.65-.5-1.31-.74-2s-.52-1.46-.73-2.19A15.4,15.4,0,0,0,6.1,8.31c-.15-.39-.3-.77-.44-1.15,0-.17-.19-.45-.14-.57.21,0,.43,0,.59,0s.36,0,.53-.08a.38.38,0,0,0,0-.54.41.41,0,0,0-.29-.11H5.58c-.69,0-1.38.06-2.07.06-.21,0-.71.12-.4-.2l.52-.82A8.66,8.66,0,0,1,5.06,3.36a9.82,9.82,0,0,1,3.53-1.6,7.34,7.34,0,0,1,3.81.16,7.57,7.57,0,0,1,3.32,1.84V3.7c.29.38.9.6,1,.94l0,0c.1.24.54.32.55.51h.06c.19.24,0,0,.1.26s.09,0,.16.15c-.13.13.41.64.24.75-.08-.14.06.26-.16,0,0,.1.29.53.34.46s.27.15.19-.16l-.09,0c0-.12,0-.08,0-.14a5,5,0,0,1-.25-.74h0a2.3,2.3,0,0,1-.36-.54V5c0-.13-.41-.29-.23-.27a10.21,10.21,0,0,0-2-1.85c-.14,0-.62-.38-.49-.19a2.92,2.92,0,0,0-1-.65s0,0,.07,0c-.42-.33-.61-.1-1-.41-.1.09-.84-.25-1.14-.13,0,0-.07-.07,0-.08A9.14,9.14,0,0,0,9,1.43,6.76,6.76,0,0,0,7,2.05a5,5,0,0,0-1.59.8l0-.05A5.65,5.65,0,0,0,4,4.18c-.24.05-.43.3-.65.51,0,.1-.13.23-.21.37l-.41.63-.28.42c0,.06-.12.16-.1.19h.26l.95,0c.11.07.57,0,.61.07.48,0,1-.12,1.53-.16l.77,0c.1,0,.13.2,0,.22a2.09,2.09,0,0,1-.34,0l-.58,0H5.36s-.16,0-.11.05l.1.32.16.52.43,1.54,0,0c.14.24.35.49.5.73,0,0,0,0,0,0,.13.35.16.72.29,1.07l0,0c.16.32.16.71.37,1.09l0,0,.12.24s-.08,0-.12-.13c.18.54.36,1.08.55,1.63.27.78.54,1.57.82,2.36l1.86-5.86L9.82,8.83l.07.11-.27-.59s0,0,.05.05C9.55,8,9.4,7.62,9.25,7.23L9,6.6l0-.11H8.62l-.3,0s.13,0,0-.06H8c-.1,0-.08-.08-.07-.14s0-.06.07-.15,0,0,0,.07h0c.82,0,1.65.08,2.48,0l1.24-.06c.2,0,.47,0,.49,0s.06.21,0,.23-.29.07-.44.1-.51,0-.63.12c.13.38.27.77.4,1.16.24.7.47,1.41.76,2.07h0c.33.81.62,1.67.89,2.53s.61,1.86.9,2.78l.12-.38c.29-.93.39-1.4.62-2.18h.05c.14-.66.43-1.31.57-2a3,3,0,0,0-.26-2.13l.08.07c-.14-.18-.35-.79-.44-.64l-.09-.24a2,2,0,0,1-.28-2.65l0,.08a1,1,0,0,1,.77-.43s0,0-.09,0a1.7,1.7,0,0,1,1.34.44,2.29,2.29,0,0,1,.58,1.39L17,6.35a7.4,7.4,0,0,1,0,2l0,0,0,.33h-.06C16.66,9.5,16.37,10.25,16.13,11.05Z" transform="translate(0 0)" style="fill:#1d1d1b"/><path d="M14.78,17.49h0S14.77,17.5,14.78,17.49Z" transform="translate(0 0)" style="fill:#1d1d1b"/><path d="M17.74,5.54l0,.1S17.75,5.57,17.74,5.54Z" transform="translate(0 0)" style="fill:#1d1d1b"/><path d="M10.27,1a9.27,9.27,0,1,1-3.62.73A9.35,9.35,0,0,1,10.27,1Zm0-.71a10,10,0,1,0,10,10A10,10,0,0,0,10.27.25Z" transform="translate(0 0)" style="fill:#23282d"/><path d="M10.27,1a9.27,9.27,0,1,1-3.62.73A9.35,9.35,0,0,1,10.27,1Zm0-.71a10,10,0,1,0,10,10A10,10,0,0,0,10.27.25Z" transform="translate(0 0)" style="fill:none"/><polygon points="10.27 0.58 10.3 0.6 10.37 0.55 10.27 0.58" style="fill:#1d1d1b"/><path d="M10.76.49s0,0,0,0l-.29.13C10.57.68,10.68.43,10.76.49Z" transform="translate(0 0)" style="fill:#1d1d1b"/><path d="M10.85.51a.16.16,0,0,0,.19,0C11,.52,10.83.44,10.85.51Z" transform="translate(0 0)" style="fill:#1d1d1b"/><path d="M18.89,5.58l0,0S18.88,5.58,18.89,5.58Z" transform="translate(0 0)" style="fill:#1d1d1b"/><path d="M20,8h.06a4.57,4.57,0,0,1-.24-.74,4.93,4.93,0,0,0-.28-.76l0,0a9,9,0,0,0-2.19-3.16h0a.5.5,0,0,1-.17-.11s0,0,.05,0c-.14-.26-.64-.51-.72-.68s-.12,0-.1,0a8.82,8.82,0,0,0-2.76-1.46s0-.06,0-.08C12.89.84,12,.62,11.11.5c0,0,.09.05,0,.08a4.79,4.79,0,0,1,.78.08l0,0c.18.05.05-.09.24,0s0,0,0,0A9.83,9.83,0,0,0,13.28,1c.06.11.4.15.52.28s.2.05.26,0a10.49,10.49,0,0,1,3.49,2.47A6.46,6.46,0,0,1,18.9,5.57h0a6.11,6.11,0,0,1,.45.85l.15.23a10.72,10.72,0,0,1,.36,5.67,10.23,10.23,0,0,1-1.2,2.87,13.77,13.77,0,0,1-1.87,2.44s0,0,0-.05a4.1,4.1,0,0,1-.69.57c-.23.17-.47.32-.71.48h0a10.31,10.31,0,0,1-4.09,1.52A10.63,10.63,0,0,1,6,19.26l0,0a9.92,9.92,0,0,1-3.33-2.63,9.72,9.72,0,0,1-2.1-4c-.07-.91-.53-2.11-.28-3a16.73,16.73,0,0,1,1.65-5A9.28,9.28,0,0,1,5.6,1.38,7.12,7.12,0,0,1,7.92.62l0,0c.31,0,.63-.3.84-.16l0,0c.17.06.34-.27.45-.18l0-.05c.19,0,0,.05.18.06s0-.09.13-.07c0,.18.48-.06.5.14-.11,0,.16.07-.07.13.07,0,.39,0,.36-.1s.15-.17,0-.24l0,.07c-.06-.06,0,0-.07-.08C9.85.14,9.81,0,9.62,0h0a.6.6,0,0,1-.41,0L9.16,0c-.07-.06-.28.2-.22.05-.53.1-1.13.24-1.71.4C7.17.56,6.8.63,7,.68a1.55,1.55,0,0,0-.76.15s0,0,0,0c-.35,0-.29.29-.64.26,0,.12-.51.23-.58.45,0,0-.07,0-.07-.05a10.4,10.4,0,0,0-1.34.9c-.22.35-.76.61-.87,1A2.83,2.83,0,0,0,2,4.17v0a3.74,3.74,0,0,0-.62,1.15c-.2,0-.25.23-.37.38a4.06,4.06,0,0,1-.22.58c-.07.23-.15.48-.2.7-.09,0-.1.36-.19.36A24.25,24.25,0,0,0,0,11.45v0c.08.17.23.36.32.52s0,0,0,0a4.18,4.18,0,0,0,.09.71s0,0,0,0c.1.21,0,.48.18.72l0,0,.1.15s-.08,0-.1-.07a10.19,10.19,0,0,0,3.82,5.06l-.08,0,.37.21H4.55A7.41,7.41,0,0,0,6,19.43s-.09,0,0,.06c.38.09.53.35.77.25,0,0,0,.06,0,.06a12.69,12.69,0,0,0,3.18.61A10.92,10.92,0,0,0,12.61,20v0A12.56,12.56,0,0,0,16,18.54,8,8,0,0,0,17,17.66l0,0c.53-.67,1.37-1.23,1.72-2.1v.08c0-.17.31-.45.16-.48l.12-.11c.1-.63.58-1,.7-1.73l0,.06a3.26,3.26,0,0,1,.14-.56s0,0,0,.06A4.66,4.66,0,0,0,20.25,11l.06.08c0-.33.05-.91,0-1.33l0,0-.06-.21h.06A8.1,8.1,0,0,0,20,8Z" transform="translate(0 0)" style="fill:#1d1d1b"/><path d="M17.35,3.24Z" transform="translate(0 0)" style="fill:#1d1d1b"/><path d="M9.55,0h0Z" transform="translate(0 0)" style="fill:#1d1d1b"/><polygon points="10.27 0.63 10.24 0.61 10.17 0.66 10.27 0.63" style="fill:#1d1d1b"/><path d="M9.79.76l0,0,.28-.16C10,.55,9.87.81,9.79.76Z" transform="translate(0 0)" style="fill:#1d1d1b"/><path d="M9.7.75a.14.14,0,0,0-.17.07C9.56.76,9.73.82,9.7.75Z" transform="translate(0 0)" style="fill:#1d1d1b"/><path d="M1.93,5.73v0A0,0,0,0,0,1.93,5.73Z" transform="translate(0 0)" style="fill:#1d1d1b"/><path d="M1.27,8.12l0,0a5.48,5.48,0,0,1,.4-1.39v0a10.69,10.69,0,0,1,1.85-3,.09.09,0,0,0,0,.05.4.4,0,0,1,.09-.17s0,0,0,0c.24-.12.51-.56.69-.61s0-.11,0-.1a11,11,0,0,1,2.53-1.6s.06,0,.06.05A5.57,5.57,0,0,1,9.45.79s-.09,0,0-.08c-.29,0-.5.15-.76.12l0,0c-.19,0,0,.1-.22.09s0-.06,0-.05a3.83,3.83,0,0,0-1.13.36c-.11-.05-.4.14-.56.12s-.18.1-.2.16A9.1,9.1,0,0,0,3.2,3.91C2.88,4.49,2.27,5,1.94,5.74h0a8.45,8.45,0,0,1-.37.85l0,.26A8.81,8.81,0,0,0,1,12.26a8,8,0,0,0,3,5.06s0,0-.05,0a9.59,9.59,0,0,0,1.36,1h0a9.18,9.18,0,0,0,4,1.22,8.92,8.92,0,0,0,5-.89v0a9.65,9.65,0,0,0,3.19-2.41,9.77,9.77,0,0,0,1.83-3.81,9.47,9.47,0,0,0,.23-2.79A6.54,6.54,0,0,0,17.9,5.08a10.45,10.45,0,0,0-3.33-3,14.79,14.79,0,0,0-2.08-.91l0,.05c-.25-.19-.65,0-.79-.17h0c-.14-.12-.37.15-.45,0l0,0c-.18,0,0-.05-.15-.08s0,.07-.13,0c0-.18-.44,0-.45-.19.1,0-.15-.08.07-.12-.06,0-.37,0-.34.07s-.15.17,0,.24l0-.06c.07.07.05,0,.07.08.24,0,.27.11.43.16h0a.43.43,0,0,1,.37,0l0,0c0,.08.28-.12.19,0A6.67,6.67,0,0,1,13,1.6c.08,0,.38.13.3,0a1.73,1.73,0,0,0,.59.37s0,0,0,0c.2.24.36,0,.52.29.1-.09.41.26.61.22,0,0,0,.07,0,.08A9.5,9.5,0,0,1,16,3.43c.34.14.57.6.88.71a4.82,4.82,0,0,0,.61.79h0a9.79,9.79,0,0,0,.71.9c-.06.17,0,.3.07.47a6.27,6.27,0,0,1,.55,1c0,.07.13.3,0,.35a5.49,5.49,0,0,1,.29,3.61v0c0,.16.13.35.17.52,0,0,0,0,0,0,0,.22-.16.4-.19.61,0,0,0,0,0,0,0,.21-.18.39-.18.64h0v.16s-.08,0,0-.11a9.15,9.15,0,0,1-3.23,4.61l0-.07-.27.26s0,0,0-.05c-.42.22-.81.55-1.24.73,0,0,0-.07,0-.06-.27.23-.54.11-.64.34,0,0,0,0,0-.06a6.84,6.84,0,0,1-2.82.6,7.78,7.78,0,0,1-2.54-.1v0A7.58,7.58,0,0,1,5,17.86a12.25,12.25,0,0,1-1-.77l0,0c-.7-.44-1-1.3-1.62-1.9l.08,0c-.15-.06-.23-.45-.34-.33l0-.15c-.44-.42-.38-1-.72-1.57l.05,0a1.39,1.39,0,0,1-.17-.51s0,0,0,0c0-.59-.28-1.18-.32-1.8l.07.06A5.2,5.2,0,0,1,1,9.75l0,0,0-.19H1.1A10,10,0,0,1,1.27,8.12Z" transform="translate(0 0)" style="fill:#1d1d1b"/><path d="M3.65,3.69h0S3.64,3.7,3.65,3.69Z" transform="translate(0 0)" style="fill:#1d1d1b"/><path d="M10.9,1.27l-.06,0S10.88,1.27,10.9,1.27Z" transform="translate(0 0)" style="fill:#1d1d1b"/></svg>